<svg width="25" height="25" viewBox="0 0 25 25" fill="none" xmlns="http://www.w3.org/2000/svg">
<circle cx="12.5" cy="12.5" r="12.5" fill="url(#paint0_linear_210_2295)"/>
<path d="M10.5517 19.5833L10.2684 17.3166C10.1149 17.2576 9.97027 17.1868 9.83451 17.1041C9.69874 17.0215 9.56593 16.9329 9.43607 16.8385L7.32878 17.7239L5.38086 14.3593L7.20482 12.9781C7.19301 12.8954 7.18711 12.8158 7.18711 12.739V12.2609C7.18711 12.1842 7.19301 12.1045 7.20482 12.0218L5.38086 10.6406L7.32878 7.276L9.43607 8.16142C9.56593 8.06697 9.70169 7.97843 9.84336 7.89579C9.98503 7.81315 10.1267 7.74232 10.2684 7.68329L10.5517 5.41663H14.4475L14.7309 7.68329C14.8843 7.74232 15.0289 7.81315 15.1647 7.89579C15.3005 7.97843 15.4333 8.06697 15.5632 8.16142L17.6704 7.276L19.6184 10.6406L17.7944 12.0218C17.8062 12.1045 17.8121 12.1842 17.8121 12.2609V12.739C17.8121 12.8158 17.8003 12.8954 17.7767 12.9781L19.6007 14.3593L17.6527 17.7239L15.5632 16.8385C15.4333 16.9329 15.2975 17.0215 15.1559 17.1041C15.0142 17.1868 14.8725 17.2576 14.7309 17.3166L14.4475 19.5833H10.5517ZM11.7913 18.1666H13.1902L13.4382 16.2895C13.8041 16.1951 14.1435 16.0564 14.4564 15.8734C14.7692 15.6904 15.0555 15.4691 15.3152 15.2093L17.0684 15.9354L17.759 14.7312L16.2361 13.5802C16.2951 13.4149 16.3364 13.2408 16.36 13.0578C16.3836 12.8748 16.3954 12.6888 16.3954 12.5C16.3954 12.3111 16.3836 12.1251 16.36 11.9421C16.3364 11.7592 16.2951 11.585 16.2361 11.4198L17.759 10.2687L17.0684 9.06454L15.3152 9.80829C15.0555 9.53676 14.7692 9.30951 14.4564 9.12652C14.1435 8.94354 13.8041 8.80482 13.4382 8.71038L13.2079 6.83329H11.809L11.5611 8.71038C11.1951 8.80482 10.8557 8.94354 10.5428 9.12652C10.23 9.30951 9.94371 9.53086 9.68398 9.79058L7.93086 9.06454L7.24023 10.2687L8.76315 11.402C8.70412 11.5791 8.6628 11.7562 8.63919 11.9333C8.61558 12.1104 8.60378 12.2993 8.60378 12.5C8.60378 12.6888 8.61558 12.8718 8.63919 13.0489C8.6628 13.226 8.70412 13.4031 8.76315 13.5802L7.24023 14.7312L7.93086 15.9354L9.68398 15.1916C9.94371 15.4632 10.23 15.6904 10.5428 15.8734C10.8557 16.0564 11.1951 16.1951 11.5611 16.2895L11.7913 18.1666ZM12.535 14.9791C13.2197 14.9791 13.8041 14.7371 14.2882 14.2531C14.7722 13.7691 15.0142 13.1847 15.0142 12.5C15.0142 11.8152 14.7722 11.2309 14.2882 10.7468C13.8041 10.2628 13.2197 10.0208 12.535 10.0208C11.8385 10.0208 11.2512 10.2628 10.773 10.7468C10.2949 11.2309 10.0559 11.8152 10.0559 12.5C10.0559 13.1847 10.2949 13.7691 10.773 14.2531C11.2512 14.7371 11.8385 14.9791 12.535 14.9791Z" fill="white"/>
<defs>
<linearGradient id="paint0_linear_210_2295" x1="0.520833" y1="12.2882" x2="24.1458" y2="12.5966" gradientUnits="userSpaceOnUse">
<stop stop-color="#FF5C3C"/>
<stop offset="1" stop-color="#FF2F63"/>
</linearGradient>
</defs>
</svg>
