<svg width="24" height="29" viewBox="0 0 24 29" fill="none" xmlns="http://www.w3.org/2000/svg">
<path d="M19.296 15.398C19.3354 19.7562 23.0366 21.2067 23.0774 21.2253C23.0461 21.3273 22.4862 23.2922 21.1277 25.3213C19.9534 27.0757 18.7345 28.8236 16.8147 28.8603C14.9283 28.8955 14.3216 27.7165 12.1647 27.7165C10.0084 27.7165 9.33462 28.8236 7.54868 28.8955C5.69539 28.9674 4.2841 26.9981 3.10005 25.2504C0.680691 21.6748 -1.1683 15.1465 1.31433 10.7398C2.54759 8.55143 4.75196 7.16584 7.14432 7.13014C8.96405 7.09467 10.6817 8.38151 11.7941 8.38151C12.9058 8.38151 14.9932 6.83388 17.1875 7.06106C18.1063 7.10024 20.6848 7.44032 22.3406 9.91801C22.2075 10.0026 19.264 11.7543 19.296 15.398M15.7506 4.6958C16.7344 3.47851 17.3966 1.78344 17.2161 0.0974121C15.7978 0.155599 14.0828 1.06341 13.0657 2.28023C12.154 3.3575 11.3557 5.08224 11.571 6.73489C13.1519 6.86007 14.7666 5.91378 15.7506 4.6958" fill="black"/>
</svg>
