<svg width="8" height="15" viewBox="0 0 8 15" fill="none" xmlns="http://www.w3.org/2000/svg">
<path d="M0.666841 6.41085e-07C0.845969 -0.000237793 1.01766 0.0735899 1.14312 0.20482L7.8046 7.20408C7.9296 7.33221 8 7.50583 8 7.68707C8 7.86831 7.9296 8.04217 7.8046 8.1703L1.14313 14.8281C0.876868 15.0699 0.472637 15.0549 0.224259 14.7941C-0.024107 14.5331 -0.0285207 14.1184 0.213804 13.8517L6.38578 7.66818L0.190606 1.16095C0.00264522 0.964461 -0.0519488 0.671766 0.0521366 0.418097C0.156222 0.164697 0.398491 -0.0002368 0.666841 6.41085e-07Z" fill="url(#paint0_linear_201_2683)"/>
<defs>
<linearGradient id="paint0_linear_201_2683" x1="4" y1="15" x2="4" y2="-6.03983e-07" gradientUnits="userSpaceOnUse">
<stop stop-color="#FF5A3D"/>
<stop offset="1" stop-color="#FF2F63"/>
</linearGradient>
</defs>
</svg>
