<svg width="14" height="16" viewBox="0 0 14 16" fill="none" xmlns="http://www.w3.org/2000/svg">
<path d="M1 15.5C0.7875 15.5 0.609375 15.4281 0.465625 15.2844C0.321875 15.1406 0.25 14.9625 0.25 14.75V11C0.25 10.5875 0.396875 10.2344 0.690625 9.94063C0.984375 9.64688 1.3375 9.5 1.75 9.5V6.5C1.75 6.0875 1.89688 5.73438 2.19063 5.44063C2.48438 5.14688 2.8375 5 3.25 5H6.25V3.9125C6.025 3.7625 5.84375 3.58125 5.70625 3.36875C5.56875 3.15625 5.5 2.9 5.5 2.6C5.5 2.4125 5.5375 2.22813 5.6125 2.04688C5.6875 1.86563 5.8 1.7 5.95 1.55L7 0.5L8.05 1.55C8.2 1.7 8.3125 1.86563 8.3875 2.04688C8.4625 2.22813 8.5 2.4125 8.5 2.6C8.5 2.9 8.43125 3.15625 8.29375 3.36875C8.15625 3.58125 7.975 3.7625 7.75 3.9125V5H10.75C11.1625 5 11.5156 5.14688 11.8094 5.44063C12.1031 5.73438 12.25 6.0875 12.25 6.5V9.5C12.6625 9.5 13.0156 9.64688 13.3094 9.94063C13.6031 10.2344 13.75 10.5875 13.75 11V14.75C13.75 14.9625 13.6781 15.1406 13.5344 15.2844C13.3906 15.4281 13.2125 15.5 13 15.5H1ZM3.25 9.5H10.75V6.5H3.25V9.5ZM1.75 14H12.25V11H1.75V14Z" fill="black"/>
</svg>
