<svg width="25" height="25" viewBox="0 0 25 25" fill="none" xmlns="http://www.w3.org/2000/svg">
<circle cx="12.5" cy="12.5" r="12.5" fill="url(#paint0_linear_210_2299)"/>
<path d="M12.4993 19.5833C11.5195 19.5833 10.5987 19.3974 9.73685 19.0255C8.87504 18.6536 8.12539 18.1489 7.48789 17.5114C6.85039 16.8739 6.3457 16.1243 5.97383 15.2625C5.60195 14.4007 5.41602 13.4798 5.41602 12.5C5.41602 11.5201 5.60195 10.5993 5.97383 9.73746C6.3457 8.87565 6.85039 8.126 7.48789 7.4885C8.12539 6.851 8.87504 6.34631 9.73685 5.97444C10.5987 5.60256 11.5195 5.41663 12.4993 5.41663C13.4792 5.41663 14.4 5.60256 15.2618 5.97444C16.1237 6.34631 16.8733 6.851 17.5108 7.4885C18.1483 8.126 18.653 8.87565 19.0249 9.73746C19.3967 10.5993 19.5827 11.5201 19.5827 12.5C19.5827 13.4798 19.3967 14.4007 19.0249 15.2625C18.653 16.1243 18.1483 16.8739 17.5108 17.5114C16.8733 18.1489 16.1237 18.6536 15.2618 19.0255C14.4 19.3974 13.4792 19.5833 12.4993 19.5833ZM12.4993 18.1666C13.1368 18.1666 13.7507 18.0633 14.341 17.8567C14.9313 17.6501 15.4743 17.352 15.9702 16.9625L8.03685 9.02913C7.64727 9.52496 7.34918 10.068 7.14258 10.6583C6.93598 11.2486 6.83268 11.8625 6.83268 12.5C6.83268 14.0819 7.38164 15.4218 8.47956 16.5198C9.57747 17.6177 10.9174 18.1666 12.4993 18.1666ZM16.9618 15.9708C17.3514 15.475 17.6495 14.9319 17.8561 14.3416C18.0627 13.7513 18.166 13.1375 18.166 12.5C18.166 10.918 17.6171 9.57808 16.5191 8.48017C15.4212 7.38225 14.0813 6.83329 12.4993 6.83329C11.8618 6.83329 11.248 6.93659 10.6577 7.14319C10.0674 7.34979 9.52435 7.64788 9.02852 8.03746L16.9618 15.9708Z" fill="white"/>
<defs>
<linearGradient id="paint0_linear_210_2299" x1="0.520833" y1="12.2882" x2="24.1458" y2="12.5966" gradientUnits="userSpaceOnUse">
<stop stop-color="#FF5C3C"/>
<stop offset="1" stop-color="#FF2F63"/>
</linearGradient>
</defs>
</svg>
