<svg width="25" height="25" viewBox="0 0 25 25" fill="none" xmlns="http://www.w3.org/2000/svg">
<circle cx="12.5" cy="12.5" r="12.5" fill="url(#paint0_linear_210_2294)"/>
<path d="M13.2083 18.875C12.3347 18.875 11.5172 18.7127 10.7557 18.388C9.99427 18.0634 9.32431 17.6177 8.74583 17.051L9.75521 16.0417C10.2038 16.4785 10.7233 16.8238 11.3135 17.0776C11.9038 17.3314 12.5354 17.4583 13.2083 17.4583C14.5778 17.4583 15.7465 16.9743 16.7146 16.0063C17.6826 15.0382 18.1667 13.8694 18.1667 12.5C18.1667 11.1306 17.6826 9.96181 16.7146 8.99375C15.7465 8.02569 14.5778 7.54167 13.2083 7.54167C11.8389 7.54167 10.6701 8.02569 9.70208 8.99375C8.73403 9.96181 8.25 11.1306 8.25 12.5V12.624L9.54271 11.3313L10.5521 12.3229L7.54167 15.3333L4.53125 12.3229L5.54062 11.3313L6.83333 12.6417V12.5C6.83333 11.6146 7.00156 10.7852 7.33802 10.012C7.67448 9.23872 8.12899 8.5658 8.70156 7.99323C9.27413 7.42066 9.94705 6.96615 10.7203 6.62969C11.4936 6.29323 12.3229 6.125 13.2083 6.125C14.0938 6.125 14.9231 6.29323 15.6964 6.62969C16.4696 6.96615 17.1425 7.42066 17.7151 7.99323C18.2877 8.5658 18.7422 9.23872 19.0786 10.012C19.4151 10.7852 19.5833 11.6146 19.5833 12.5C19.5833 14.2708 18.9635 15.776 17.724 17.0156C16.4844 18.2552 14.9792 18.875 13.2083 18.875ZM11.7917 15.3333C11.591 15.3333 11.4227 15.2655 11.287 15.1297C11.1512 14.9939 11.0833 14.8257 11.0833 14.625V12.5C11.0833 12.2993 11.1512 12.1311 11.287 11.9953C11.4227 11.8595 11.591 11.7917 11.7917 11.7917V11.0833C11.7917 10.6937 11.9304 10.3602 12.2078 10.0828C12.4852 9.80538 12.8188 9.66667 13.2083 9.66667C13.5979 9.66667 13.9314 9.80538 14.2089 10.0828C14.4863 10.3602 14.625 10.6937 14.625 11.0833V11.7917C14.8257 11.7917 14.9939 11.8595 15.1297 11.9953C15.2655 12.1311 15.3333 12.2993 15.3333 12.5V14.625C15.3333 14.8257 15.2655 14.9939 15.1297 15.1297C14.9939 15.2655 14.8257 15.3333 14.625 15.3333H11.7917ZM12.5 11.7917H13.9167V11.0833C13.9167 10.8826 13.8488 10.7144 13.713 10.5786C13.5773 10.4429 13.409 10.375 13.2083 10.375C13.0076 10.375 12.8394 10.4429 12.7036 10.5786C12.5679 10.7144 12.5 10.8826 12.5 11.0833V11.7917Z" fill="white"/>
<defs>
<linearGradient id="paint0_linear_210_2294" x1="0.520833" y1="12.2882" x2="24.1458" y2="12.5966" gradientUnits="userSpaceOnUse">
<stop stop-color="#FF5C3C"/>
<stop offset="1" stop-color="#FF2F63"/>
</linearGradient>
</defs>
</svg>
