<svg width="25" height="25" viewBox="0 0 25 25" fill="none" xmlns="http://www.w3.org/2000/svg">
<circle cx="12.5" cy="12.5" r="12.5" fill="url(#paint0_linear_238_2555)"/>
<path d="M4.70898 18.1666V16.1833C4.70898 15.7819 4.81228 15.4129 5.01888 15.0765C5.22548 14.74 5.49996 14.4833 5.84232 14.3062C6.57426 13.9402 7.31801 13.6657 8.07357 13.4827C8.82912 13.2997 9.59648 13.2083 10.3757 13.2083C11.1548 13.2083 11.9222 13.2997 12.6777 13.4827C13.4333 13.6657 14.177 13.9402 14.909 14.3062C15.2513 14.4833 15.5258 14.74 15.7324 15.0765C15.939 15.4129 16.0423 15.7819 16.0423 16.1833V18.1666H4.70898ZM17.459 18.1666V16.0416C17.459 15.5221 17.3144 15.0234 17.0251 14.5452C16.7359 14.0671 16.3257 13.6569 15.7944 13.3145C16.3965 13.3853 16.9632 13.5063 17.4944 13.6775C18.0257 13.8487 18.5215 14.0583 18.9819 14.3062C19.4069 14.5423 19.7316 14.805 19.9559 15.0942C20.1802 15.3834 20.2923 15.6992 20.2923 16.0416V18.1666H17.459ZM10.3757 12.4999C9.59648 12.4999 8.92947 12.2225 8.37461 11.6676C7.81975 11.1128 7.54232 10.4458 7.54232 9.66659C7.54232 8.88742 7.81975 8.2204 8.37461 7.66554C8.92947 7.11068 9.59648 6.83325 10.3757 6.83325C11.1548 6.83325 11.8218 7.11068 12.3767 7.66554C12.9316 8.2204 13.209 8.88742 13.209 9.66659C13.209 10.4458 12.9316 11.1128 12.3767 11.6676C11.8218 12.2225 11.1548 12.4999 10.3757 12.4999ZM17.459 9.66659C17.459 10.4458 17.1816 11.1128 16.6267 11.6676C16.0718 12.2225 15.4048 12.4999 14.6257 12.4999C14.4958 12.4999 14.3305 12.4852 14.1298 12.4556C13.9291 12.4261 13.7638 12.3937 13.634 12.3583C13.9527 11.9805 14.1977 11.5614 14.3689 11.101C14.5401 10.6405 14.6257 10.1624 14.6257 9.66659C14.6257 9.17075 14.5401 8.69263 14.3689 8.23221C14.1977 7.77179 13.9527 7.3527 13.634 6.97492C13.7993 6.91589 13.9645 6.87752 14.1298 6.85981C14.2951 6.84211 14.4604 6.83325 14.6257 6.83325C15.4048 6.83325 16.0718 7.11068 16.6267 7.66554C17.1816 8.2204 17.459 8.88742 17.459 9.66659ZM6.12565 16.7499H14.6257V16.1833C14.6257 16.0534 14.5932 15.9353 14.5283 15.8291C14.4633 15.7228 14.3777 15.6402 14.2715 15.5812C13.634 15.2624 12.9906 15.0234 12.3413 14.864C11.692 14.7046 11.0368 14.6249 10.3757 14.6249C9.71454 14.6249 9.05933 14.7046 8.41003 14.864C7.76072 15.0234 7.11732 15.2624 6.47982 15.5812C6.37357 15.6402 6.28798 15.7228 6.22305 15.8291C6.15812 15.9353 6.12565 16.0534 6.12565 16.1833V16.7499ZM10.3757 11.0833C10.7652 11.0833 11.0987 10.9445 11.3762 10.6671C11.6536 10.3897 11.7923 10.0562 11.7923 9.66659C11.7923 9.277 11.6536 8.9435 11.3762 8.66606C11.0987 8.38863 10.7652 8.24992 10.3757 8.24992C9.98607 8.24992 9.65256 8.38863 9.37513 8.66606C9.0977 8.9435 8.95898 9.277 8.95898 9.66659C8.95898 10.0562 9.0977 10.3897 9.37513 10.6671C9.65256 10.9445 9.98607 11.0833 10.3757 11.0833Z" fill="white"/>
<defs>
<linearGradient id="paint0_linear_238_2555" x1="0.520833" y1="12.2882" x2="24.1458" y2="12.5966" gradientUnits="userSpaceOnUse">
<stop stop-color="#FF5C3C"/>
<stop offset="1" stop-color="#FF2F63"/>
</linearGradient>
</defs>
</svg>
