<svg width="25" height="25" viewBox="0 0 25 25" fill="none" xmlns="http://www.w3.org/2000/svg">
<circle cx="12.5" cy="12.5" r="12.5" fill="url(#paint0_linear_238_2563)"/>
<path d="M6.125 18.875V8.95833H8.95833V6.125H16.0417V11.7917H18.875V18.875H13.2083V16.0417H11.7917V18.875H6.125ZM7.54167 17.4583H8.95833V16.0417H7.54167V17.4583ZM7.54167 14.625H8.95833V13.2083H7.54167V14.625ZM7.54167 11.7917H8.95833V10.375H7.54167V11.7917ZM10.375 14.625H11.7917V13.2083H10.375V14.625ZM10.375 11.7917H11.7917V10.375H10.375V11.7917ZM10.375 8.95833H11.7917V7.54167H10.375V8.95833ZM13.2083 14.625H14.625V13.2083H13.2083V14.625ZM13.2083 11.7917H14.625V10.375H13.2083V11.7917ZM13.2083 8.95833H14.625V7.54167H13.2083V8.95833ZM16.0417 17.4583H17.4583V16.0417H16.0417V17.4583ZM16.0417 14.625H17.4583V13.2083H16.0417V14.625Z" fill="white"/>
<defs>
<linearGradient id="paint0_linear_238_2563" x1="0.520833" y1="12.2882" x2="24.1458" y2="12.5966" gradientUnits="userSpaceOnUse">
<stop stop-color="#FF5C3C"/>
<stop offset="1" stop-color="#FF2F63"/>
</linearGradient>
</defs>
</svg>
