<svg width="25" height="25" viewBox="0 0 25 25" fill="none" xmlns="http://www.w3.org/2000/svg">
<circle cx="12.5" cy="12.5" r="12.5" fill="url(#paint0_linear_238_2568)"/>
<path d="M11.0827 12.4999C10.3035 12.4999 9.6365 12.2225 9.08164 11.6676C8.52678 11.1128 8.24935 10.4458 8.24935 9.66659C8.24935 8.88742 8.52678 8.2204 9.08164 7.66554C9.6365 7.11068 10.3035 6.83325 11.0827 6.83325C11.8618 6.83325 12.5289 7.11068 13.0837 7.66554C13.6386 8.2204 13.916 8.88742 13.916 9.66659C13.916 10.4458 13.6386 11.1128 13.0837 11.6676C12.5289 12.2225 11.8618 12.4999 11.0827 12.4999ZM5.41602 18.1666V16.1833C5.41602 15.7937 5.51636 15.4277 5.71706 15.0853C5.91775 14.743 6.19518 14.4833 6.54935 14.3062C7.15143 13.9992 7.83025 13.7395 8.58581 13.527C9.34136 13.3145 10.1737 13.2083 11.0827 13.2083H11.3306C11.4014 13.2083 11.4723 13.2201 11.5431 13.2437C11.4487 13.4562 11.369 13.6775 11.304 13.9077C11.2391 14.1379 11.1889 14.377 11.1535 14.6249H11.0827C10.2445 14.6249 9.49188 14.7312 8.82487 14.9437C8.15786 15.1562 7.61185 15.3687 7.18685 15.5812C7.0806 15.6402 6.99501 15.7228 6.93008 15.8291C6.86515 15.9353 6.83268 16.0534 6.83268 16.1833V16.7499H11.2952C11.366 16.9978 11.4605 17.2428 11.5785 17.4848C11.6966 17.7268 11.8264 17.9541 11.9681 18.1666H5.41602ZM15.3327 18.8749L15.1202 17.8124C14.9785 17.7534 14.8457 17.6914 14.7217 17.6265C14.5978 17.5616 14.4709 17.4819 14.341 17.3874L13.3139 17.7062L12.6056 16.502L13.4202 15.7937C13.3966 15.6284 13.3848 15.4749 13.3848 15.3333C13.3848 15.1916 13.3966 15.0381 13.4202 14.8728L12.6056 14.1645L13.3139 12.9603L14.341 13.2791C14.4709 13.1846 14.5978 13.105 14.7217 13.04C14.8457 12.9751 14.9785 12.9131 15.1202 12.8541L15.3327 11.7916H16.7493L16.9618 12.8541C17.1035 12.9131 17.2363 12.978 17.3603 13.0489C17.4842 13.1197 17.6112 13.2083 17.741 13.3145L18.7681 12.9603L19.4764 14.1999L18.6618 14.9083C18.6855 15.0499 18.6973 15.1975 18.6973 15.351C18.6973 15.5044 18.6855 15.652 18.6618 15.7937L19.4764 16.502L18.7681 17.7062L17.741 17.3874C17.6112 17.4819 17.4842 17.5616 17.3603 17.6265C17.2363 17.6914 17.1035 17.7534 16.9618 17.8124L16.7493 18.8749H15.3327ZM16.041 16.7499C16.4306 16.7499 16.7641 16.6112 17.0415 16.3338C17.319 16.0563 17.4577 15.7228 17.4577 15.3333C17.4577 14.9437 17.319 14.6102 17.0415 14.3327C16.7641 14.0553 16.4306 13.9166 16.041 13.9166C15.6514 13.9166 15.3179 14.0553 15.0405 14.3327C14.7631 14.6102 14.6243 14.9437 14.6243 15.3333C14.6243 15.7228 14.7631 16.0563 15.0405 16.3338C15.3179 16.6112 15.6514 16.7499 16.041 16.7499ZM11.0827 11.0833C11.4723 11.0833 11.8058 10.9445 12.0832 10.6671C12.3606 10.3897 12.4993 10.0562 12.4993 9.66659C12.4993 9.277 12.3606 8.9435 12.0832 8.66606C11.8058 8.38863 11.4723 8.24992 11.0827 8.24992C10.6931 8.24992 10.3596 8.38863 10.0822 8.66606C9.80473 8.9435 9.66602 9.277 9.66602 9.66659C9.66602 10.0562 9.80473 10.3897 10.0822 10.6671C10.3596 10.9445 10.6931 11.0833 11.0827 11.0833Z" fill="white"/>
<defs>
<linearGradient id="paint0_linear_238_2568" x1="0.520833" y1="12.2882" x2="24.1458" y2="12.5966" gradientUnits="userSpaceOnUse">
<stop stop-color="#FF5C3C"/>
<stop offset="1" stop-color="#FF2F63"/>
</linearGradient>
</defs>
</svg>
