<svg width="282" height="328" viewBox="0 0 282 328" fill="none" xmlns="http://www.w3.org/2000/svg">
<g clip-path="url(#clip0_20_9034)">
<path d="M272.123 120.892H8.84812C6.50229 120.889 4.2533 119.956 2.59454 118.298C0.935784 116.639 0.00270869 114.39 0 112.044V8.84811C0.00270869 6.50228 0.935784 4.2533 2.59454 2.59454C4.2533 0.935784 6.50229 0.00270869 8.84812 0H272.123C274.468 0.00270869 276.717 0.935784 278.376 2.59454C280.035 4.2533 280.968 6.50228 280.971 8.84811V112.044C280.968 114.39 280.035 116.639 278.376 118.298C276.717 119.956 274.468 120.889 272.123 120.892Z" fill="#F2F2F2"/>
<path d="M210.721 115.249H50.6388C38.7097 115.235 27.2731 110.491 18.8379 102.055C10.4028 93.6203 5.65799 82.1837 5.64453 70.2546V50.6423C5.65798 38.7132 10.4027 27.2765 18.8379 18.8413C27.273 10.4061 38.7097 5.66124 50.6388 5.64771H230.333C242.262 5.66124 253.699 10.4061 262.134 18.8413C270.569 27.2765 275.314 38.7132 275.328 50.6423C275.308 67.7711 268.495 84.1928 256.383 96.3047C244.271 108.417 227.85 115.229 210.721 115.249Z" fill="white"/>
<path d="M169.426 35.1894H63.6101C63.0048 35.1894 62.4244 34.9489 61.9965 34.521C61.5685 34.093 61.3281 33.5126 61.3281 32.9074C61.3281 32.3022 61.5685 31.7218 61.9965 31.2939C62.4244 30.8659 63.0048 30.6255 63.6101 30.6255H169.426C170.031 30.6255 170.612 30.8659 171.04 31.2939C171.468 31.7218 171.708 32.3022 171.708 32.9074C171.708 33.5126 171.468 34.093 171.04 34.521C170.612 34.9489 170.031 35.1894 169.426 35.1894Z" fill="#E6E6E6"/>
<path d="M222.992 59.536H63.6101C63.0048 59.536 62.4244 59.2956 61.9965 58.8677C61.5685 58.4397 61.3281 57.8593 61.3281 57.2541C61.3281 56.6489 61.5685 56.0685 61.9965 55.6405C62.4244 55.2126 63.0048 54.9722 63.6101 54.9722H222.992C223.598 54.9722 224.178 55.2126 224.606 55.6405C225.034 56.0685 225.274 56.6489 225.274 57.2541C225.274 57.8593 225.034 58.4397 224.606 58.8677C224.178 59.2956 223.598 59.536 222.992 59.536Z" fill="#E6E6E6"/>
<path d="M222.992 83.8827H63.6101C63.0048 83.8827 62.4244 83.6423 61.9965 83.2143C61.5685 82.7864 61.3281 82.206 61.3281 81.6008C61.3281 80.9956 61.5685 80.4152 61.9965 79.9872C62.4244 79.5593 63.0048 79.3188 63.6101 79.3188H222.992C223.598 79.3188 224.178 79.5593 224.606 79.9872C225.034 80.4152 225.274 80.9956 225.274 81.6008C225.274 82.206 225.034 82.7864 224.606 83.2143C224.178 83.6423 223.598 83.8827 222.992 83.8827Z" fill="#E6E6E6"/>
<path d="M222.992 83.8827H63.6101C63.0048 83.8827 62.4244 83.6423 61.9965 83.2143C61.5685 82.7864 61.3281 82.206 61.3281 81.6008C61.3281 80.9956 61.5685 80.4152 61.9965 79.9872C62.4244 79.5593 63.0048 79.3188 63.6101 79.3188H222.992C223.598 79.3188 224.178 79.5593 224.606 79.9872C225.034 80.4152 225.274 80.9956 225.274 81.6008C225.274 82.206 225.034 82.7864 224.606 83.2143C224.178 83.6423 223.598 83.8827 222.992 83.8827Z" fill="#E6E6E6"/>
<path d="M158.26 62.3304C158.285 63.0178 158.461 63.6912 158.775 64.3033C159.089 64.9154 159.533 65.4513 160.076 65.8731C160.619 66.2949 161.249 66.5925 161.919 66.7449C162.59 66.8973 163.286 66.9008 163.958 66.7551L172.661 81.0314L176.364 73.172L167.533 60.8199C167.213 59.7068 166.496 58.7497 165.518 58.1298C164.54 57.5099 163.368 57.2704 162.225 57.4566C161.082 57.6428 160.047 58.2418 159.317 59.1401C158.586 60.0383 158.21 61.1735 158.26 62.3304Z" fill="#FFB6B6"/>
<path d="M223.566 103.246L193.576 86.9783L184.116 78.1033C184.116 78.1033 180.004 77.0023 181.518 75.6652C183.031 74.3281 178.718 73.0385 178.718 73.0385L173.64 68.2742L166.424 73.3799L168.512 76.6171C168.512 76.6171 168.368 81.9762 171.304 80.9452C174.24 79.9142 173.506 84.3588 173.506 84.3588L191.03 111.522L223.566 103.246Z" fill="url(#paint0_linear_20_9034)"/>
<path d="M135.038 87.9194C151.216 87.9194 164.332 74.8044 164.332 58.6262C164.332 42.448 151.216 29.333 135.038 29.333C118.86 29.333 105.745 42.448 105.745 58.6262C105.745 74.8044 118.86 87.9194 135.038 87.9194Z" fill="url(#paint1_linear_20_9034)"/>
<path d="M223.659 316.611H217.568L214.669 293.118H223.659V316.611Z" fill="#FFB6B6"/>
<path d="M226.873 327.164H222.506L221.726 323.04L219.729 327.164H208.144C207.589 327.164 207.048 326.987 206.601 326.658C206.153 326.329 205.823 325.865 205.658 325.335C205.493 324.805 205.501 324.236 205.682 323.711C205.863 323.186 206.207 322.733 206.664 322.417L215.916 316.028V311.859L225.647 312.439L226.873 327.164Z" fill="#2F2E41"/>
<path d="M174.945 316.611H168.854L165.955 293.118H174.945V316.611Z" fill="#FFB6B6"/>
<path d="M178.159 327.164H173.791L173.012 323.04L171.015 327.164H159.43C158.874 327.164 158.334 326.987 157.886 326.658C157.439 326.329 157.109 325.865 156.943 325.335C156.778 324.805 156.787 324.236 156.968 323.711C157.149 323.186 157.493 322.733 157.95 322.417L167.201 316.028V311.859L176.932 312.439L178.159 327.164Z" fill="#2F2E41"/>
<path d="M217.196 138.934H186.454V173.933H217.196V138.934Z" fill="#FFB6B6"/>
<path d="M187.163 156.197L181.961 162.346L172.975 181.264L150.332 235.138L145.543 246.532L149.41 266.673C149.41 266.673 150.036 280.863 150.036 283.186C150.036 287.915 153.992 290.536 153.992 290.536L156.894 305.651L185.035 304.469C185.035 304.469 184.053 287.808 178.159 283.605C172.265 279.402 169.556 257.499 169.556 257.499L166.353 247.781L197.568 210.779L197.77 223.713L197.867 229.974C197.867 229.974 193.296 270.692 198.625 278.594C203.953 286.497 198.733 285.567 198.733 285.567L198.987 301.868L232.331 302.104L224.974 255.174C224.974 255.174 221.239 252.225 223.238 249.26C225.236 246.295 221.301 242.664 221.301 242.664L223.066 206.027C223.066 206.027 221.112 199.699 223.41 198.876C225.709 198.054 223.712 192.612 223.712 192.612L224.054 185.521L217.196 163.528L187.163 156.197Z" fill="white"/>
<path d="M217.669 138.934L220.98 129.002L223.345 125.692L224.29 116.233C224.29 90.693 218.594 94.9459 218.594 94.9459L215.304 85.9634L200.17 85.4905L190.474 94.7131L182.434 97.5508L179.285 113.91L185.035 131.367L186.454 140.826C183.747 145.823 183.976 143.46 186.218 147.211L212.94 154.542C222.399 157.853 222.399 149.339 220.502 147.211C218.605 145.083 217.669 138.934 217.669 138.934Z" fill="url(#paint2_linear_20_9034)"/>
<path d="M205.782 82.3156C213.53 82.3156 219.812 76.034 219.812 68.2853C219.812 60.5366 213.53 54.255 205.782 54.255C198.033 54.255 191.751 60.5366 191.751 68.2853C191.751 76.034 198.033 82.3156 205.782 82.3156Z" fill="#FFB6B6"/>
<path d="M224.513 87.0133C224.645 87.2364 224.725 87.4864 224.747 87.7447C224.769 88.003 224.733 88.263 224.64 88.5053C224.548 88.7476 224.402 88.966 224.214 89.1441C224.026 89.3223 223.799 89.4556 223.552 89.5342C221.67 90.1585 220.511 91.9794 219.159 93.4361C217.811 94.8881 215.64 96.0941 213.918 95.1056C212.201 94.1219 212.083 91.6105 210.646 90.2484C209.246 88.9241 206.919 89.0849 205.273 90.0923L205.223 90.1226C204.939 90.3078 204.607 90.4057 204.268 90.4041C203.929 90.4026 203.598 90.3017 203.315 90.1139C203.033 89.9261 202.812 89.6596 202.679 89.3475C202.547 89.0353 202.508 88.6911 202.569 88.3575C203.146 85.2905 203.722 82.2239 204.298 79.1576C202.785 82.8042 200.587 86.1274 197.824 88.9477C197.063 89.8261 196.098 90.5048 195.014 90.9247C194.031 91.2369 193.075 90.22 192.12 90.4044C194.494 88.3282 202.478 75.0192 201.049 66.1229C199.37 66.3121 197.691 66.5013 196.012 66.6904C195.831 65.8959 195.442 65.1633 194.887 64.5669C194.954 65.3402 194.856 66.1191 194.598 66.8512C193.898 66.9317 193.193 67.0073 192.493 67.0877C191.519 67.1965 190.46 67.2911 189.623 66.7803C188.227 65.929 188.185 63.9142 188.582 62.3251C189.746 57.7043 193.274 53.8402 197.592 51.816C201.91 49.7965 203.187 54.2943 207.737 52.8565C216.723 50.0188 223.609 54.8713 226.035 63.8764C228.074 71.4295 226.594 79.4461 224.513 87.0133Z" fill="#2F2E41"/>
<path d="M263.355 327.469H246.175L246.101 327.335C245.881 326.937 245.669 326.515 245.471 326.081C243.702 322.293 242.954 317.96 242.294 314.137L241.797 311.255C241.736 310.906 241.782 310.547 241.927 310.224C242.072 309.901 242.31 309.629 242.611 309.442C242.912 309.255 243.261 309.162 243.615 309.175C243.969 309.188 244.311 309.306 244.597 309.515C247.208 311.414 249.82 313.312 252.433 315.208C253.422 315.928 254.552 316.761 255.634 317.662C255.739 317.155 255.848 316.646 255.957 316.145C256.032 315.798 256.209 315.483 256.465 315.237C256.721 314.992 257.044 314.829 257.394 314.769C257.743 314.708 258.102 314.754 258.425 314.899C258.749 315.043 259.021 315.282 259.209 315.583L261.219 318.812C262.685 321.17 263.979 323.494 263.715 326.001C263.716 326.031 263.714 326.062 263.708 326.092C263.655 326.504 263.558 326.908 263.416 327.299L263.355 327.469Z" fill="#F0F0F0"/>
<path d="M280.598 327.841L117.345 328C117.183 327.999 117.027 327.934 116.912 327.818C116.797 327.703 116.732 327.547 116.732 327.384C116.732 327.221 116.797 327.064 116.912 326.949C117.027 326.833 117.183 326.768 117.345 326.767L280.598 326.608C280.761 326.609 280.917 326.674 281.032 326.79C281.147 326.905 281.212 327.062 281.212 327.225C281.212 327.387 281.147 327.544 281.032 327.659C280.917 327.775 280.761 327.84 280.598 327.841Z" fill="#CACACA"/>
<path d="M132.375 98.0526L114.418 82.8879C113.804 82.3684 113.422 81.6266 113.354 80.8253C113.287 80.024 113.54 79.2286 114.058 78.6137L117.363 74.7C117.882 74.0862 118.624 73.7035 119.426 73.636C120.227 73.5684 121.022 73.8215 121.637 74.3397L139.594 89.5044C140.208 90.0239 140.591 90.7656 140.658 91.5669C140.726 92.3682 140.473 93.1636 139.955 93.7786L136.65 97.6922C136.13 98.306 135.388 98.6887 134.587 98.7562C133.786 98.8238 132.99 98.5707 132.375 98.0526Z" fill="#3F3D56"/>
<path d="M115.361 78.9293C115.081 79.2607 114.945 79.6893 114.981 80.1211C115.018 80.5529 115.224 80.9526 115.555 81.2326L133.512 96.3973C133.843 96.6765 134.272 96.8129 134.704 96.7764C135.135 96.74 135.535 96.5339 135.815 96.2031L139.12 92.2895C139.399 91.9581 139.536 91.5295 139.499 91.0977C139.463 90.6659 139.257 90.2661 138.926 89.9862L120.969 74.8215C120.637 74.5423 120.209 74.4059 119.777 74.4423C119.345 74.4787 118.946 74.6849 118.666 75.0156L115.361 78.9293Z" fill="white"/>
<path d="M125.902 84.8244C125.84 84.9116 125.758 84.9831 125.664 85.0332C125.569 85.0833 125.464 85.1107 125.357 85.1131L122.535 85.1779C122.444 85.18 122.354 85.1642 122.27 85.1314C122.185 85.0987 122.108 85.0496 122.042 84.987C121.977 84.9243 121.924 84.8494 121.888 84.7665C121.851 84.6835 121.831 84.5942 121.829 84.5035C121.827 84.4129 121.843 84.3227 121.876 84.2382C121.908 84.1537 121.957 84.0764 122.02 84.0108C122.083 83.9453 122.158 83.8927 122.241 83.8561C122.323 83.8195 122.413 83.7996 122.503 83.7975L124.349 83.755L122.531 78.9586C122.467 78.7874 122.473 78.5978 122.548 78.4312C122.624 78.2646 122.762 78.1346 122.933 78.0698C123.104 78.005 123.294 78.0107 123.46 78.0856C123.627 78.1604 123.758 78.2984 123.823 78.4692L125.986 84.1782C126.025 84.2815 126.039 84.3927 126.027 84.5023C126.014 84.612 125.975 84.7171 125.913 84.8087L125.902 84.8244Z" fill="#6C63FF"/>
<path d="M126.265 86.0297C126.945 86.1297 127.595 86.3776 128.17 86.7561C128.744 87.1346 129.228 87.6344 129.589 88.2203C129.949 88.8062 130.176 89.464 130.255 90.1473C130.333 90.8307 130.261 91.5229 130.043 92.1753L143.289 102.378L135.073 105.206L123.755 95.0831C122.683 94.6444 121.809 93.8278 121.3 92.788C120.79 91.7483 120.679 90.5576 120.988 89.4417C121.298 88.3257 122.006 87.362 122.978 86.7332C123.951 86.1043 125.12 85.854 126.265 86.0297Z" fill="#FFB6B6"/>
<path d="M195.223 91.0746L161.311 111.925C161.311 111.925 147.637 106.866 150.31 104.524C152.982 102.182 144.475 100.599 144.475 100.599L135.077 94.2766L129.624 100.614C129.624 100.614 130.618 110.908 132.309 109.126C133.999 107.343 136.526 112.212 136.526 112.212C136.526 112.212 137.273 117.649 142.086 116.281C146.898 114.913 159.812 129.254 159.812 129.254L201.548 113.688L195.223 91.0746Z" fill="url(#paint3_linear_20_9034)"/>
<path d="M134.008 70.3769C133.615 70.3769 133.227 70.2853 132.876 70.1094C132.524 69.9336 132.218 69.6783 131.983 69.3637L125.772 61.0822C125.572 60.8161 125.427 60.5134 125.344 60.1912C125.262 59.8691 125.244 59.5338 125.291 59.2046C125.338 58.8754 125.449 58.5586 125.619 58.2725C125.788 57.9863 126.012 57.7364 126.278 57.5368C126.815 57.1339 127.491 56.9608 128.156 57.0558C128.485 57.1029 128.802 57.2143 129.088 57.3838C129.374 57.5532 129.624 57.7774 129.823 58.0434L133.887 63.461L144.323 47.8064C144.696 47.2476 145.275 46.8596 145.934 46.7279C146.593 46.5962 147.277 46.7315 147.835 47.104C148.394 47.4766 148.782 48.0559 148.914 48.7146C149.046 49.3732 148.91 50.0571 148.538 50.616L136.116 69.2491C135.891 69.5861 135.589 69.8643 135.234 70.0604C134.88 70.2565 134.484 70.3647 134.079 70.3761C134.055 70.3765 134.032 70.3769 134.008 70.3769Z" fill="white"/>
</g>
<defs>
<linearGradient id="paint0_linear_20_9034" x1="194.995" y1="68.2742" x2="194.995" y2="111.522" gradientUnits="userSpaceOnUse">
<stop stop-color="#FF583E"/>
<stop offset="1" stop-color="#FF3161"/>
</linearGradient>
<linearGradient id="paint1_linear_20_9034" x1="135.038" y1="29.333" x2="135.038" y2="87.9194" gradientUnits="userSpaceOnUse">
<stop stop-color="#FF3260"/>
<stop offset="1" stop-color="#FF583E"/>
</linearGradient>
<linearGradient id="paint2_linear_20_9034" x1="201.788" y1="85.4905" x2="201.788" y2="155.298" gradientUnits="userSpaceOnUse">
<stop stop-color="#FF583E"/>
<stop offset="1" stop-color="#FF3161"/>
</linearGradient>
<linearGradient id="paint3_linear_20_9034" x1="165.586" y1="91.0746" x2="165.586" y2="129.254" gradientUnits="userSpaceOnUse">
<stop stop-color="#FF583E"/>
<stop offset="1" stop-color="#FF3161"/>
</linearGradient>
<clipPath id="clip0_20_9034">
<rect width="281.211" height="328" fill="white"/>
</clipPath>
</defs>
</svg>
