<svg width="14" height="14" viewBox="0 0 14 14" fill="none" xmlns="http://www.w3.org/2000/svg">
<path d="M7.00033 0.583252C9.73875 0.583252 11.9587 2.80317 11.9587 5.54159C11.9587 7.28317 11.1549 9.04429 9.81129 10.7628C9.33441 11.3727 8.81577 11.9413 8.28445 12.4593C8.24068 12.502 8.19763 12.5435 8.15537 12.5839L7.91157 12.8126L7.68901 13.0132L7.49024 13.1849L7.36884 13.2854C7.15581 13.459 6.85051 13.4604 6.63592 13.2888L6.50899 13.1837L6.31112 13.0128L6.08897 12.8125L5.84528 12.5839L5.7162 12.4593C5.18488 11.9413 4.66624 11.3727 4.18936 10.7628C2.84571 9.04429 2.04199 7.28317 2.04199 5.54159C2.04199 2.80317 4.26191 0.583252 7.00033 0.583252ZM7.00033 1.74992C4.90624 1.74992 3.20866 3.4475 3.20866 5.54159C3.20866 6.97434 3.91028 8.51176 5.10844 10.0441C5.5508 10.6099 6.0347 11.1405 6.53059 11.6239L6.76551 11.8486C6.84291 11.9213 6.92042 11.994 7.00033 12.0638L7.23511 11.8487L7.47006 11.6239C7.96595 11.1405 8.44985 10.6099 8.89221 10.0441C10.0904 8.51176 10.792 6.97434 10.792 5.54159C10.792 3.4475 9.09441 1.74992 7.00033 1.74992ZM7.00033 3.20825C8.28899 3.20825 9.33366 4.25292 9.33366 5.54159C9.33366 6.83025 8.28899 7.87492 7.00033 7.87492C5.71166 7.87492 4.66699 6.83025 4.66699 5.54159C4.66699 4.25292 5.71166 3.20825 7.00033 3.20825ZM7.00033 4.37492C6.356 4.37492 5.83366 4.89726 5.83366 5.54159C5.83366 6.18592 6.356 6.70825 7.00033 6.70825C7.64466 6.70825 8.16699 6.18592 8.16699 5.54159C8.16699 4.89726 7.64466 4.37492 7.00033 4.37492Z" fill="url(#paint0_linear_162_2748)"/>
<defs>
<linearGradient id="paint0_linear_162_2748" x1="7.00033" y1="0.583252" x2="7.00033" y2="13.4166" gradientUnits="userSpaceOnUse">
<stop stop-color="#FF5A3D"/>
<stop offset="1" stop-color="#FF3062"/>
</linearGradient>
</defs>
</svg>
