<svg width="369" height="206" viewBox="0 0 369 206" fill="none" xmlns="http://www.w3.org/2000/svg">
<g clip-path="url(#clip0_348_5717)">
<path d="M108.082 205.74H51.7082C51.7082 205.74 50.5655 188.98 57.3264 188.79C64.0873 188.599 63.3254 196.217 71.8008 185.742C80.2762 175.267 90.5603 175.839 91.8934 182.029C93.2266 188.219 89.3225 193.17 96.4643 191.646C103.606 190.123 113.891 194.122 108.082 205.74Z" fill="#E6E6E6"/>
<path d="M78.9434 205.744L78.7529 205.736C79.1968 194.702 81.5075 187.613 83.3683 183.608C85.3883 179.26 87.335 177.5 87.3546 177.482L87.4813 177.625C87.4621 177.642 85.5383 179.385 83.5343 183.703C81.6839 187.69 79.3856 194.751 78.9434 205.744Z" fill="white"/>
<path d="M99.3488 205.767L99.166 205.714C100.584 201.037 103.139 196.785 106.604 193.339L106.732 193.48C103.293 196.902 100.756 201.124 99.3488 205.767Z" fill="white"/>
<path d="M60.5878 205.753L60.399 205.727C61.0137 201.59 60.3633 197.364 58.5333 193.603C57.7832 192.026 56.7901 190.576 55.5903 189.306L55.7223 189.169C56.9382 190.454 57.945 191.921 58.7057 193.519C60.5522 197.314 61.2083 201.579 60.5878 205.753Z" fill="white"/>
<path d="M115.73 205.994H45.6255L45.6095 205.757C45.5694 205.166 44.6748 191.231 49.19 186.259C49.6379 185.733 50.1909 185.308 50.8133 185.009C51.4357 184.71 52.1138 184.545 52.8038 184.525C55.7468 184.441 57.5964 185.543 59.0883 186.428C61.9002 188.096 63.7575 189.198 70.5115 180.851C77.8278 171.808 85.7221 169.862 90.2602 170.944C93.1923 171.643 95.2131 173.619 95.8046 176.365C96.3659 178.965 96.1863 181.408 96.0427 183.371C95.8891 185.472 95.7681 187.131 96.6309 187.883C97.3526 188.511 98.7884 188.567 101.154 188.063C105.966 187.036 112.681 187.914 116.051 192.269C117.864 194.612 119.292 198.87 115.801 205.853L115.73 205.994ZM46.1038 205.485H115.415C118.017 200.206 118.098 195.747 115.648 192.581C112.556 188.586 106.07 187.535 101.26 188.561C98.6898 189.11 97.1586 189.019 96.2961 188.268C95.2412 187.349 95.3707 185.577 95.5343 183.336C95.6754 181.405 95.8507 179.002 95.3062 176.473C94.7577 173.927 92.8752 172.093 90.1415 171.441C85.7482 170.393 78.0727 172.314 70.9073 181.172C63.8769 189.862 61.7587 188.606 58.8281 186.866C57.3177 185.97 55.6032 184.954 52.8178 185.033C52.1966 185.053 51.5864 185.203 51.0265 185.473C50.4666 185.743 49.9694 186.127 49.5669 186.601C45.51 191.07 46.0048 203.6 46.1042 205.485H46.1038Z" fill="#2F2E41"/>
<path d="M314.373 206.277H245.322L245.309 205.89L242.012 111.593H317.683L314.373 206.277ZM246.097 205.475H313.598L316.853 112.395H242.842L246.097 205.475Z" fill="#3F3D56"/>
<path d="M261.794 129.065H256.542V194.059H261.794V129.065Z" fill="#3F3D56"/>
<path d="M282.473 129.065H277.221V194.059H282.473V129.065Z" fill="#3F3D56"/>
<path d="M303.152 129.065H297.899V194.059H303.152V129.065Z" fill="#3F3D56"/>
<path d="M361.561 139.284L361.222 139.07L275.452 84.8675L282.892 73.0947L283.231 73.3089L369.001 127.511L361.561 139.284ZM276.559 84.6181L361.311 138.177L367.894 127.761L283.142 74.2009L276.559 84.6181Z" fill="#3F3D56"/>
<path d="M340.852 80.4996C338.359 78.9218 335.466 78.0923 332.515 78.1096C329.565 78.127 326.682 78.9903 324.207 80.5973C321.733 82.2043 319.771 84.4874 318.556 87.1757C317.34 89.864 316.921 92.8446 317.348 95.7639L321.438 98.3485C320.41 95.962 320.173 93.3092 320.762 90.7784C321.351 88.2476 322.735 85.9719 324.711 84.2844C326.687 82.5969 329.151 81.5863 331.743 81.4005C334.334 81.2148 336.917 81.8636 339.114 83.2521C341.31 84.6406 343.004 86.6958 343.948 89.1167C344.892 91.5376 345.036 94.1971 344.359 96.7057C343.682 99.2143 342.219 101.44 340.186 103.058C338.152 104.675 335.654 105.599 333.058 105.694L337.147 108.279C339.968 107.413 342.481 105.756 344.388 103.505C346.295 101.254 347.516 98.5025 347.907 95.578C348.297 92.6535 347.84 89.6784 346.591 87.0057C345.341 84.333 343.35 82.075 340.856 80.4996H340.852Z" fill="#3F3D56"/>
<path d="M364.468 205.724H0V206.526H364.468V205.724Z" fill="#3F3D56"/>
<path d="M159.195 200.253H153.356L150.576 177.73H159.197L159.195 200.253Z" fill="#FEB8B8"/>
<path d="M142.088 205.674H160.44V198.583H149.08C147.226 198.583 145.447 199.32 144.136 200.631C142.825 201.943 142.088 203.721 142.088 205.576V205.674Z" fill="#2F2E41"/>
<path d="M157.143 165.351L161.171 169.579L179.395 156.056L173.45 149.816L157.143 165.351Z" fill="#FEB8B8"/>
<path d="M165.318 171.516L157.48 163.292L152.347 168.184L165.01 181.471L165.081 181.403C165.746 180.77 166.279 180.011 166.651 179.171C167.023 178.332 167.225 177.427 167.247 176.509C167.269 175.591 167.11 174.677 166.779 173.821C166.448 172.964 165.952 172.181 165.318 171.516Z" fill="#2F2E41"/>
<path d="M116.495 103.645C116.126 103.051 115.891 102.382 115.808 101.687C115.724 100.992 115.794 100.287 116.013 99.6221C116.231 98.957 116.593 98.3479 117.072 97.8376C117.551 97.3273 118.137 96.9283 118.787 96.6686L141.713 38.2388L150.649 43.5895L125.181 99.6429C125.545 100.764 125.485 101.98 125.013 103.06C124.54 104.14 123.687 105.01 122.616 105.503C121.546 105.996 120.331 106.08 119.203 105.737C118.075 105.395 117.111 104.651 116.495 103.645Z" fill="#FEB8B8"/>
<path d="M203.513 107.833C202.814 107.783 202.135 107.581 201.523 107.24C200.912 106.899 200.382 106.428 199.972 105.861C199.562 105.293 199.281 104.642 199.15 103.954C199.019 103.266 199.04 102.558 199.212 101.879L165.39 49.0057L174.969 44.916L205.376 98.4526C206.499 98.8156 207.449 99.5783 208.047 100.596C208.644 101.613 208.848 102.815 208.618 103.972C208.388 105.13 207.741 106.163 206.8 106.875C205.859 107.587 204.689 107.929 203.513 107.835V107.833Z" fill="#FEB8B8"/>
<path d="M141.938 97.794L147.925 186.771L162.232 185.509L165.177 119.864L173.172 148.056L190.425 149.319L183.596 93.5859L141.938 97.794Z" fill="#2F2E41"/>
<path d="M175.7 143.85L173.174 148.058L155.503 160.26L168.127 166.993C168.127 166.993 192.532 153.528 190.428 149.32L175.7 143.85Z" fill="#2F2E41"/>
<path d="M129.409 61.7952L134.389 47.7618C135.497 44.6394 137.214 41.7676 139.439 39.3128C141.664 36.858 144.354 34.8689 147.353 33.4606C154.094 30.9773 161.425 30.5759 168.397 32.3087L170.209 32.7585C175.042 33.9299 179.57 36.1168 183.492 39.1738C186.561 41.5932 189.322 44.6564 189.568 47.9515C189.569 47.9585 189.571 47.9654 189.574 47.9719C190.424 51.6976 190.844 71.0537 190.844 71.0537H183.346L184.532 97.1426L184.437 96.9537C184.437 96.9537 141.191 105.138 141.191 100.93V73.9983L140.305 64.2471L129.409 61.7952Z" fill="#CCCCCC"/>
<path d="M169.779 28.6606C176.398 28.6606 181.763 23.2952 181.763 16.6765C181.763 10.0579 176.398 4.69238 169.779 4.69238C163.16 4.69238 157.795 10.0579 157.795 16.6765C157.795 23.2952 163.16 28.6606 169.779 28.6606Z" fill="#FEB8B8"/>
<path d="M171.57 11.3023L180.876 11.6752C182.046 11.6716 183.325 11.6303 184.216 10.8733C185.559 9.73099 185.335 7.57546 184.615 5.96523C182.61 1.48175 178.139 -0.124466 173.228 0.0074475C168.318 0.139362 163.172 1.80372 160.528 5.94157C157.884 10.0794 157.169 15.3047 158.165 20.1129C159.316 17.668 161.089 15.5678 163.306 14.0221C165.523 12.4764 168.106 11.5391 170.798 11.3039L171.57 11.3023Z" fill="#2F2E41"/>
<path d="M226.824 128.525L193.143 104.919C192.83 104.699 192.617 104.364 192.551 103.987C192.485 103.61 192.571 103.222 192.79 102.909L219.225 65.1897C219.445 64.8767 219.781 64.6638 220.157 64.5976C220.534 64.5313 220.922 64.617 221.236 64.836L254.917 88.4414C255.23 88.6616 255.442 88.9968 255.509 89.3737C255.575 89.7505 255.489 90.1383 255.27 90.4521L228.835 128.17C228.615 128.483 228.28 128.697 227.903 128.763C227.526 128.829 227.138 128.744 226.824 128.525Z" fill="url(#paint0_linear_348_5717)"/>
<path d="M234.398 102.911L214.635 89.0601C214.406 88.8999 214.212 88.6962 214.062 88.4608C213.912 88.2253 213.81 87.9627 213.762 87.6878C213.713 87.4129 213.72 87.1312 213.78 86.8587C213.841 86.5863 213.954 86.3284 214.114 86.0999C214.275 85.8713 214.478 85.6765 214.714 85.5267C214.949 85.3768 215.212 85.2748 215.487 85.2265C215.762 85.1781 216.043 85.1844 216.316 85.2449C216.588 85.3054 216.846 85.419 217.075 85.5792L236.838 99.4304C237.299 99.7539 237.614 100.248 237.711 100.803C237.809 101.358 237.682 101.929 237.359 102.391C237.035 102.852 236.541 103.166 235.986 103.264C235.431 103.362 234.86 103.235 234.398 102.911Z" fill="white"/>
<path d="M229.864 109.383L210.1 95.5313C209.872 95.3713 209.677 95.1677 209.526 94.9322C209.376 94.6967 209.274 94.4339 209.226 94.1589C209.177 93.8839 209.183 93.602 209.244 93.3294C209.304 93.0568 209.418 92.7988 209.578 92.5701C209.739 92.3414 209.942 92.1465 210.178 91.9966C210.414 91.8468 210.676 91.7448 210.951 91.6965C211.226 91.6483 211.508 91.6547 211.781 91.7154C212.053 91.7762 212.311 91.89 212.54 92.0505L232.303 105.902C232.764 106.225 233.078 106.719 233.175 107.274C233.273 107.829 233.146 108.4 232.822 108.861C232.499 109.322 232.006 109.636 231.451 109.734C230.896 109.832 230.325 109.705 229.864 109.383Z" fill="white"/>
<path d="M225.277 115.924L205.514 102.073C205.285 101.913 205.091 101.709 204.941 101.474C204.791 101.239 204.689 100.976 204.641 100.701C204.592 100.426 204.598 100.144 204.659 99.8719C204.72 99.5995 204.833 99.3416 204.993 99.1131C205.153 98.8845 205.357 98.6897 205.593 98.5399C205.828 98.39 206.091 98.288 206.366 98.2396C206.64 98.1913 206.922 98.1976 207.195 98.2581C207.467 98.3186 207.725 98.4322 207.953 98.5924L227.717 112.444C228.178 112.767 228.493 113.261 228.59 113.816C228.688 114.371 228.561 114.942 228.237 115.404C227.914 115.865 227.42 116.18 226.865 116.277C226.31 116.375 225.739 116.248 225.277 115.924Z" fill="white"/>
<path d="M234.34 90.1092L226.685 84.7442C226.457 84.5842 226.261 84.3806 226.111 84.1451C225.961 83.9096 225.859 83.6468 225.811 83.3718C225.762 83.0968 225.768 82.8149 225.829 82.5423C225.889 82.2697 226.003 82.0117 226.163 81.783C226.323 81.5543 226.527 81.3594 226.763 81.2095C226.998 81.0597 227.261 80.9577 227.536 80.9094C227.811 80.8612 228.093 80.8676 228.366 80.9283C228.638 80.9891 228.896 81.1029 229.125 81.2634L236.78 86.6284C237.241 86.9519 237.556 87.4455 237.653 88.0006C237.751 88.5558 237.624 89.127 237.3 89.5886C236.977 90.0502 236.483 90.3643 235.928 90.462C235.373 90.5596 234.802 90.4327 234.34 90.1092Z" fill="white"/>
</g>
<defs>
<linearGradient id="paint0_linear_348_5717" x1="224.03" y1="64.5757" x2="224.03" y2="128.785" gradientUnits="userSpaceOnUse">
<stop stop-color="#FF5A3D"/>
<stop offset="1" stop-color="#FF2F63"/>
</linearGradient>
<clipPath id="clip0_348_5717">
<rect width="369" height="206.526" fill="white"/>
</clipPath>
</defs>
</svg>
