<svg width="25" height="25" viewBox="0 0 25 25" fill="none" xmlns="http://www.w3.org/2000/svg">
<circle cx="12.5" cy="12.5" r="12.5" fill="url(#paint0_linear_210_2302)"/>
<path d="M8.95898 19.875C8.5694 19.875 8.23589 19.7363 7.95846 19.4589C7.68103 19.1814 7.54232 18.8479 7.54232 18.4583V9.25H6.83398V7.83333H10.3757V7.125H14.6257V7.83333H18.1673V9.25H17.459V18.4583C17.459 18.8479 17.3203 19.1814 17.0428 19.4589C16.7654 19.7363 16.4319 19.875 16.0423 19.875H8.95898ZM16.0423 9.25H8.95898V18.4583H16.0423V9.25ZM10.3757 17.0417H11.7923V10.6667H10.3757V17.0417ZM13.209 17.0417H14.6257V10.6667H13.209V17.0417Z" fill="white"/>
<defs>
<linearGradient id="paint0_linear_210_2302" x1="0.520833" y1="12.2882" x2="24.1458" y2="12.5966" gradientUnits="userSpaceOnUse">
<stop stop-color="#FF5C3C"/>
<stop offset="1" stop-color="#FF2F63"/>
</linearGradient>
</defs>
</svg>
