<svg width="25" height="25" viewBox="0 0 25 25" fill="none" xmlns="http://www.w3.org/2000/svg">
<circle cx="12.5" cy="12.5" r="12.5" fill="url(#paint0_linear_238_2559)"/>
<path d="M7.09909 18.875L6.10742 17.8833L13.3678 10.6229C13.1553 10.1271 13.1258 9.56632 13.2793 8.94062C13.4328 8.31493 13.7692 7.75417 14.2887 7.25833C14.9144 6.63264 15.6109 6.26667 16.3783 6.16042C17.1456 6.05417 17.7713 6.24306 18.2553 6.72708C18.7394 7.21111 18.9283 7.83681 18.822 8.60417C18.7158 9.37153 18.3498 10.0681 17.7241 10.6937C17.2283 11.2132 16.6675 11.5497 16.0418 11.7031C15.4161 11.8566 14.8553 11.8271 14.3595 11.6146L13.4741 12.5L18.8574 17.8833L17.8658 18.875L12.4824 13.5271L7.09909 18.875ZM9.18867 12.8187L7.06367 10.6937C6.42617 10.0562 6.10742 9.29479 6.10742 8.40937C6.10742 7.52396 6.42617 6.7625 7.06367 6.125L11.4553 10.5521L9.18867 12.8187Z" fill="white"/>
<defs>
<linearGradient id="paint0_linear_238_2559" x1="0.520833" y1="12.2882" x2="24.1458" y2="12.5966" gradientUnits="userSpaceOnUse">
<stop stop-color="#FF5C3C"/>
<stop offset="1" stop-color="#FF2F63"/>
</linearGradient>
</defs>
</svg>
