<svg width="80" height="81" viewBox="0 0 80 81" fill="none" xmlns="http://www.w3.org/2000/svg">
<g filter="url(#filter0_d_136_3982)">
<circle cx="35.999" cy="32.3232" r="25" fill="url(#paint0_linear_136_3982)"/>
</g>
<g filter="url(#filter1_d_136_3982)">
<path d="M43.6102 32.3218C43.9491 32.8336 44.1367 33.4607 44.1367 34.1132C44.1367 35.1484 43.6304 36.1282 42.8154 36.6746C42.6056 36.8153 42.3668 36.8893 42.1235 36.8891H37.2863L37.4073 39.7226C37.4355 40.4073 37.2237 41.0575 36.8122 41.5532C36.6103 41.7975 36.3666 41.9919 36.0963 42.1243C35.8261 42.2568 35.5349 42.3245 35.2408 42.3232C34.1919 42.3232 33.2639 41.5163 32.9856 40.3612L31.2528 33.191H31.2467V23.3232H40.774C40.9596 23.3232 41.1411 23.3647 41.3086 23.4477C42.2688 23.9158 42.8881 24.9878 42.8881 26.1775C42.8881 26.468 42.8517 26.7539 42.7791 27.0306C43.118 27.5424 43.3056 28.1695 43.3056 28.822C43.3056 29.1125 43.2693 29.3983 43.1967 29.675C43.5356 30.1868 43.7232 30.814 43.7232 31.4664C43.7191 31.7569 43.6828 32.0451 43.6102 32.3218ZM27.999 32.4532V24.061C27.999 23.6529 28.2875 23.3232 28.6445 23.3232H29.9557V33.191H28.6445C28.2875 33.191 27.999 32.8613 27.999 32.4532Z" fill="url(#paint1_linear_136_3982)"/>
</g>
<defs>
<filter id="filter0_d_136_3982" x="-0.000976562" y="0.323242" width="80" height="80" filterUnits="userSpaceOnUse" color-interpolation-filters="sRGB">
<feFlood flood-opacity="0" result="BackgroundImageFix"/>
<feColorMatrix in="SourceAlpha" type="matrix" values="0 0 0 0 0 0 0 0 0 0 0 0 0 0 0 0 0 0 127 0" result="hardAlpha"/>
<feOffset dx="4" dy="8"/>
<feGaussianBlur stdDeviation="7.5"/>
<feColorMatrix type="matrix" values="0 0 0 0 0.94902 0 0 0 0 0.231373 0 0 0 0 0.333333 0 0 0 0.2 0"/>
<feBlend mode="normal" in2="BackgroundImageFix" result="effect1_dropShadow_136_3982"/>
<feBlend mode="normal" in="SourceGraphic" in2="effect1_dropShadow_136_3982" result="shape"/>
</filter>
<filter id="filter1_d_136_3982" x="19.999" y="16.3232" width="40.1377" height="43" filterUnits="userSpaceOnUse" color-interpolation-filters="sRGB">
<feFlood flood-opacity="0" result="BackgroundImageFix"/>
<feColorMatrix in="SourceAlpha" type="matrix" values="0 0 0 0 0 0 0 0 0 0 0 0 0 0 0 0 0 0 127 0" result="hardAlpha"/>
<feOffset dx="4" dy="5"/>
<feGaussianBlur stdDeviation="6"/>
<feColorMatrix type="matrix" values="0 0 0 0 0.00416667 0 0 0 0 0.00416667 0 0 0 0 0.00416667 0 0 0 0.25 0"/>
<feBlend mode="normal" in2="BackgroundImageFix" result="effect1_dropShadow_136_3982"/>
<feBlend mode="normal" in="SourceGraphic" in2="effect1_dropShadow_136_3982" result="shape"/>
</filter>
<linearGradient id="paint0_linear_136_3982" x1="31.0595" y1="16.5116" x2="46.6301" y2="44.2728" gradientUnits="userSpaceOnUse">
<stop stop-color="#FF7D95"/>
<stop offset="1" stop-color="#EF3349"/>
</linearGradient>
<linearGradient id="paint1_linear_136_3982" x1="34.4736" y1="38.8316" x2="40.8578" y2="28.5228" gradientUnits="userSpaceOnUse">
<stop stop-color="white"/>
<stop offset="1" stop-color="#FFEBED"/>
</linearGradient>
</defs>
</svg>
