<svg width="25" height="25" viewBox="0 0 25 25" fill="none" xmlns="http://www.w3.org/2000/svg">
<circle cx="12.5" cy="12.5" r="12.5" fill="url(#paint0_linear_238_2554)"/>
<path d="M10.375 20.5C10.05 20.5 9.78125 20.3938 9.56875 20.1813C9.35625 19.9688 9.25 19.7 9.25 19.375C9.25 19.05 9.35625 18.7813 9.56875 18.5688C9.78125 18.3563 10.05 18.25 10.375 18.25C10.7 18.25 10.9688 18.3563 11.1813 18.5688C11.3938 18.7813 11.5 19.05 11.5 19.375C11.5 19.7 11.3938 19.9688 11.1813 20.1813C10.9688 20.3938 10.7 20.5 10.375 20.5ZM18.625 20.5C18.3 20.5 18.0313 20.3938 17.8188 20.1813C17.6063 19.9688 17.5 19.7 17.5 19.375C17.5 19.05 17.6063 18.7813 17.8188 18.5688C18.0313 18.3563 18.3 18.25 18.625 18.25C18.95 18.25 19.2188 18.3563 19.4313 18.5688C19.6438 18.7813 19.75 19.05 19.75 19.375C19.75 19.7 19.6438 19.9688 19.4313 20.1813C19.2188 20.3938 18.95 20.5 18.625 20.5ZM14.125 9.7L11.2 6.175C11.65 5.95 12.1375 5.78125 12.6625 5.66875C13.1875 5.55625 13.75 5.5 14.35 5.5C14.9875 5.5 15.5969 5.59062 16.1781 5.77188C16.7594 5.95313 17.275 6.2125 17.725 6.55L14.125 9.7ZM13 17.5C11.9625 17.5 11.0781 17.1344 10.3469 16.4031C9.61563 15.6719 9.25 14.7875 9.25 13.75V7.975L8.875 7.525C8.7 7.3125 8.55313 7.17188 8.43438 7.10313C8.31563 7.03438 8.1875 7 8.05 7C7.75 7 7.5 7.1125 7.3 7.3375C7.1 7.5625 7 7.825 7 8.125H5.5C5.5 7.4125 5.74688 6.79688 6.24063 6.27813C6.73438 5.75938 7.3375 5.5 8.05 5.5C8.425 5.5 8.76875 5.5875 9.08125 5.7625C9.39375 5.9375 9.7125 6.2125 10.0375 6.5875L18.0625 16.2625C18.275 16.5125 18.3156 16.7812 18.1844 17.0688C18.0531 17.3563 17.825 17.5 17.5 17.5H13ZM13 16H15.8875L10.75 9.775V13.75C10.75 14.375 10.9688 14.9062 11.4062 15.3438C11.8438 15.7812 12.375 16 13 16Z" fill="white"/>
<defs>
<linearGradient id="paint0_linear_238_2554" x1="0.520833" y1="12.2882" x2="24.1458" y2="12.5966" gradientUnits="userSpaceOnUse">
<stop stop-color="#FF5C3C"/>
<stop offset="1" stop-color="#FF2F63"/>
</linearGradient>
</defs>
</svg>
