<svg width="25" height="25" viewBox="0 0 25 25" fill="none" xmlns="http://www.w3.org/2000/svg">
<circle cx="12.5" cy="12.5" r="12.5" fill="url(#paint0_linear_210_2298)"/>
<path d="M10.4275 15.0937L12.4993 13.8364L14.5712 15.0937L14.0223 12.7385L15.8639 11.1448L13.4379 10.95L12.4993 8.71871L11.5608 10.95L9.13477 11.1448L10.9764 12.7385L10.4275 15.0937ZM5.41602 20.5833V7.83329C5.41602 7.44371 5.55473 7.1102 5.83216 6.83277C6.10959 6.55534 6.4431 6.41663 6.83268 6.41663H18.166C18.5556 6.41663 18.8891 6.55534 19.1665 6.83277C19.444 7.1102 19.5827 7.44371 19.5827 7.83329V16.3333C19.5827 16.7229 19.444 17.0564 19.1665 17.3338C18.8891 17.6112 18.5556 17.75 18.166 17.75H8.24935L5.41602 20.5833ZM7.64727 16.3333H18.166V7.83329H6.83268V17.1302L7.64727 16.3333Z" fill="white"/>
<defs>
<linearGradient id="paint0_linear_210_2298" x1="0.520833" y1="12.2882" x2="24.1458" y2="12.5966" gradientUnits="userSpaceOnUse">
<stop stop-color="#FF5C3C"/>
<stop offset="1" stop-color="#FF2F63"/>
</linearGradient>
</defs>
</svg>
