<svg width="18" height="21" viewBox="0 0 18 21" fill="none" xmlns="http://www.w3.org/2000/svg">
<path d="M10.9821 16.6792C10.9821 18.5792 12.4183 20.118 14.1903 20.118C15.9613 20.118 17.3975 18.5792 17.3975 16.6792C17.3975 14.7803 15.9613 13.2403 14.1903 13.2403C12.4183 13.2403 10.9821 14.7803 10.9821 16.6792ZM12.8221 8.20133C12.8221 9.03355 13.4522 9.7091 14.2283 9.7091C15.0034 9.7091 15.6345 9.03355 15.6345 8.20133L15.6345 1.62581C15.6345 0.793593 15.0034 0.118041 14.2283 0.118041C13.4522 0.118041 12.8221 0.793593 12.8221 1.62581L12.8221 8.20133ZM0.521485 3.55691C0.521485 5.4569 1.95772 6.99578 3.72867 6.99578C5.50065 6.99578 6.93689 5.4569 6.93689 3.55691C6.93689 1.65803 5.50065 0.118042 3.72867 0.118042C1.95772 0.118042 0.521484 1.65803 0.521485 3.55691ZM2.32352 18.6114C2.32352 19.4425 2.95356 20.118 3.72867 20.118C4.50482 20.118 5.13486 19.4425 5.13486 18.6114L5.13486 12.0359C5.13486 11.2036 4.50482 10.5281 3.72867 10.5281C2.95356 10.5281 2.32352 11.2036 2.32352 12.0359L2.32352 18.6114Z" fill="url(#paint0_linear_136_3992)"/>
<defs>
<linearGradient id="paint0_linear_136_3992" x1="0.521485" y1="10.118" x2="17.3975" y2="10.118" gradientUnits="userSpaceOnUse">
<stop stop-color="#FF5A3D"/>
<stop offset="1" stop-color="#FF2F63"/>
</linearGradient>
</defs>
</svg>
