<svg width="336" height="223" viewBox="0 0 336 223" fill="none" xmlns="http://www.w3.org/2000/svg">
<g clip-path="url(#clip0_45_1273)">
<path d="M120.523 128.338C132.038 108.11 154.003 92.577 177.254 94.0733C160.103 112.7 150.102 136.784 149.021 162.065C148.639 171.817 149.231 182.702 142.748 190.004C138.714 194.548 132.548 196.748 126.485 197.21C120.422 197.671 114.361 196.577 108.379 195.488L106.928 195.933C106.376 172.67 109.009 148.567 120.523 128.338Z" fill="#F0F0F0"/>
<path d="M177.289 94.5603C160.094 102.827 145.433 116.632 136.433 133.469C134.488 137.11 132.831 140.971 132.108 145.054C131.385 149.139 131.89 153.028 133.287 156.908C134.565 160.455 136.282 163.935 136.674 167.73C137.087 171.73 135.613 175.471 132.96 178.439C129.714 182.072 125.355 184.322 121.015 186.375C116.197 188.655 111.156 190.946 107.743 195.201C107.33 195.716 106.553 195.046 106.966 194.531C112.903 187.129 123.067 185.737 130.115 179.775C133.403 176.992 135.872 173.203 135.717 168.764C135.58 164.882 133.812 161.291 132.488 157.711C131.097 153.952 130.404 150.172 130.903 146.164C131.413 142.064 132.922 138.129 134.766 134.456C138.924 126.17 144.616 118.564 151.136 111.988C158.629 104.43 167.362 98.2073 176.956 93.5899C177.55 93.3043 177.879 94.2767 177.289 94.5603Z" fill="white"/>
<path d="M139.07 127.842C136.434 125.918 134.569 123.12 133.808 119.948C133.047 116.777 133.439 113.439 134.916 110.53C135.216 109.942 136.145 110.382 135.843 110.97C134.464 113.676 134.099 116.786 134.813 119.737C135.528 122.689 137.276 125.288 139.741 127.066C140.276 127.453 139.602 128.227 139.07 127.842Z" fill="white"/>
<path d="M132.403 155.194C139.008 154.231 145.006 150.816 149.202 145.631C149.618 145.117 150.395 145.788 149.98 146.302C145.603 151.689 139.353 155.229 132.478 156.217C131.823 156.311 131.751 155.288 132.403 155.194Z" fill="white"/>
<path d="M159.137 105.692C160.001 106.649 161.09 107.376 162.306 107.809C163.521 108.242 164.826 108.367 166.101 108.172C166.755 108.07 166.826 109.093 166.177 109.194C164.766 109.403 163.326 109.264 161.982 108.789C160.638 108.313 159.43 107.517 158.466 106.468C158.366 106.377 158.306 106.251 158.296 106.117C158.286 105.983 158.328 105.85 158.412 105.745C158.502 105.643 158.628 105.58 158.764 105.57C158.899 105.56 159.033 105.604 159.137 105.692Z" fill="white"/>
<path d="M223.517 157.888C223.111 157.963 222.704 158.039 222.294 158.122C216.835 159.162 211.469 160.643 206.249 162.551C205.843 162.692 205.434 162.842 205.033 162.994C192.507 167.725 180.97 174.736 171.007 183.673C167.046 187.233 163.362 191.089 159.987 195.207C155.325 200.894 150.725 207.431 144.634 211.139C144.002 211.533 143.347 211.888 142.672 212.201L107.584 197.666C107.521 197.593 107.454 197.528 107.39 197.455L105.963 196.938C106.122 196.714 106.292 196.484 106.451 196.26C106.543 196.129 106.643 196.002 106.734 195.871C106.798 195.785 106.862 195.699 106.915 195.618C106.936 195.589 106.957 195.561 106.975 195.54C107.028 195.459 107.085 195.389 107.134 195.315C108.081 194.03 109.038 192.749 110.006 191.473C110.01 191.465 110.01 191.465 110.021 191.46C117.421 181.754 125.698 172.579 135.106 164.95C135.389 164.721 135.675 164.483 135.974 164.26C140.234 160.845 144.766 157.784 149.525 155.106C152.136 153.648 154.819 152.323 157.564 151.136C164.662 148.083 172.197 146.164 179.893 145.449C195.234 144.026 210.86 147.519 222.626 157.144C222.927 157.39 223.22 157.634 223.517 157.888Z" fill="#F0F0F0"/>
<path d="M223.254 158.3C204.542 154.562 184.513 156.77 167.176 164.802C163.428 166.538 159.777 168.626 156.739 171.451C153.699 174.278 151.758 177.687 150.534 181.624C149.416 185.224 148.689 189.036 146.714 192.302C144.632 195.744 141.2 197.844 137.292 198.62C132.511 199.568 127.673 198.744 122.97 197.774C117.749 196.697 112.343 195.495 107.053 196.84C106.412 197.003 106.196 196.001 106.836 195.838C116.04 193.498 124.993 198.498 134.216 197.975C138.519 197.731 142.774 196.19 145.326 192.552C147.558 189.37 148.311 185.44 149.412 181.785C150.568 177.947 152.293 174.513 155.107 171.612C157.986 168.645 161.563 166.411 165.25 164.587C173.566 160.472 182.696 157.82 191.866 156.491C202.406 154.961 213.129 155.244 223.574 157.326C224.22 157.455 223.896 158.429 223.254 158.3Z" fill="white"/>
<path d="M172.673 161.894C171.729 158.773 171.927 155.417 173.231 152.428C174.535 149.438 176.861 147.009 179.794 145.574C180.388 145.285 180.864 146.194 180.269 146.483C177.536 147.814 175.37 150.077 174.161 152.864C172.952 155.65 172.781 158.776 173.677 161.678C173.871 162.309 172.866 162.521 172.673 161.894Z" fill="white"/>
<path d="M150.86 179.724C156.715 182.926 163.563 183.807 170.039 182.19C170.681 182.029 170.897 183.032 170.256 183.193C163.514 184.862 156.389 183.932 150.304 180.586C149.724 180.267 150.284 179.407 150.86 179.724Z" fill="white"/>
<path d="M202.05 156.274C202.163 157.558 202.594 158.793 203.303 159.87C204.013 160.946 204.979 161.83 206.116 162.441C206.699 162.753 206.139 163.613 205.559 163.303C204.307 162.622 203.241 161.645 202.454 160.457C201.667 159.269 201.184 157.907 201.046 156.49C201.022 156.358 201.049 156.221 201.122 156.108C201.195 155.994 201.309 155.913 201.439 155.881C201.572 155.853 201.711 155.878 201.825 155.952C201.94 156.025 202.02 156.141 202.05 156.274Z" fill="white"/>
<path d="M156.676 181.868C151.762 158.139 145.619 150.228 145.619 150.228L143.273 148.411L140.451 146.221L140.464 145.94L139.795 145.713L139.638 145.591L139.38 145.393L139.339 145.438L139.251 145.528L126.481 141.193L110.281 135.698L102.779 125.959C101.557 124.373 99.9838 123.091 98.1829 122.214C96.382 121.337 94.4022 120.888 92.3985 120.903L68.4396 121.08C65.2 121.104 62.0866 122.337 59.7115 124.537L43.9636 139.125L19.4254 150.829L19.384 150.788L19.1264 150.972L15.335 152.782L15.4914 153.595L13.1448 155.286C13.1448 155.286 7.00224 162.648 2.08815 184.727C0.838067 190.345 0.222728 202.397 0.00062416 217.247C-0.0105321 217.999 0.127968 218.745 0.408068 219.442C0.688167 220.139 1.10428 220.774 1.63221 221.309C2.16014 221.844 2.78936 222.27 3.48327 222.56C4.17719 222.85 4.92196 223 5.67428 223H136.737L153.096 223C153.848 223 154.592 222.85 155.285 222.56C155.979 222.27 156.608 221.846 157.136 221.311C157.663 220.776 158.08 220.142 158.36 219.446C158.641 218.749 158.78 218.004 158.77 217.253C158.553 201.094 157.938 187.961 156.676 181.868Z" fill="url(#paint0_linear_45_1273)"/>
<path d="M173.492 20.6936C168.393 20.6936 163.503 22.7165 159.897 26.3174C156.291 29.9183 154.266 34.8021 154.266 39.8945C154.266 44.9868 156.291 49.8706 159.897 53.4715C163.503 57.0724 168.393 59.0953 173.492 59.0953H316.774C321.873 59.0953 326.763 57.0724 330.369 53.4715C333.974 49.8706 336 44.9868 336 39.8945C336 34.8021 333.974 29.9183 330.369 26.3174C326.763 22.7165 321.873 20.6936 316.774 20.6936H173.492Z" fill="#E5E5E5"/>
<path d="M173.492 24.5795C169.425 24.5795 165.524 26.193 162.649 29.0651C159.773 31.9372 158.157 35.8327 158.157 39.8944C158.157 43.9562 159.773 47.8516 162.649 50.7238C165.524 53.5959 169.425 55.2094 173.492 55.2094H316.774C320.841 55.2094 324.742 53.5959 327.617 50.7238C330.493 47.8516 332.109 43.9562 332.109 39.8944C332.109 35.8327 330.493 31.9372 327.617 29.0651C324.742 26.193 320.841 24.5795 316.774 24.5795H173.492Z" fill="white"/>
<path d="M84.1815 111.914C101.517 111.914 115.57 97.8795 115.57 80.567C115.57 63.2545 101.517 49.22 84.1815 49.22C66.8461 49.22 52.793 63.2545 52.793 80.567C52.793 97.8795 66.8461 111.914 84.1815 111.914Z" fill="#9E616A"/>
<path d="M76.1517 110.379C76.0176 110.084 75.8838 109.789 75.7505 109.492C75.8019 109.493 75.8528 109.501 75.9041 109.502L76.1517 110.379Z" fill="#2F2E41"/>
<path d="M51.9202 50.6455C53.5077 49.3808 55.3632 48.2171 57.393 48.2825C59.4226 48.3478 61.4809 50.1786 61.0604 52.1627C64.7886 45.5704 70.7227 40.5001 77.8212 37.8419C84.9197 35.1837 92.7289 35.1074 99.8781 37.6264C104.923 39.4038 109.87 42.9598 111.029 48.1753C111.326 49.5141 111.39 50.9821 112.227 52.0693C113.283 53.44 115.302 53.7501 116.965 53.2679C116.981 53.2631 116.998 53.2582 117.014 53.2533C117.295 53.1575 117.598 53.1481 117.885 53.2262C118.171 53.3044 118.427 53.4666 118.62 53.6918C118.813 53.917 118.934 54.1948 118.967 54.4894C119.001 54.7839 118.944 55.0817 118.806 55.3441L117.379 58.0026C119.178 58.4031 121.048 58.3634 122.829 57.8869C123.124 57.8094 123.437 57.8252 123.723 57.9321C124.01 58.0391 124.256 58.2319 124.428 58.4842C124.601 58.7364 124.691 59.0358 124.686 59.3411C124.681 59.6465 124.582 59.9429 124.402 60.1897C119.695 66.6431 111.832 70.8104 103.808 70.7614C98.1047 70.7267 92.3428 68.7637 86.7924 70.0735C84.6451 70.5802 82.6387 71.5606 80.9203 72.9427C79.2019 74.3248 77.8152 76.0736 76.8619 78.0607C75.9085 80.0479 75.4127 82.223 75.4109 84.4264C75.4091 86.6299 75.9012 88.8058 76.8513 90.7946C75.1462 88.932 71.85 89.3729 70.1057 91.1992C68.3616 93.0254 67.9101 95.7511 68.0858 98.2687C68.3546 102.119 69.8652 105.748 71.4578 109.279C58.1055 108.859 45.4764 99.5052 41.2254 86.8536C36.9566 74.149 41.4304 59.0025 51.9202 50.6455Z" fill="#2F2E41"/>
<path opacity="0.2" d="M30.8945 174.704L39.6983 222.54L44.9808 223L30.8945 174.704Z" fill="black"/>
<path opacity="0.2" d="M127.87 171.097L119.066 222.506L113.784 223L127.87 171.097Z" fill="black"/>
<path d="M59.429 34.5463C57.741 35.2502 55.9797 34.4788 55.241 32.7121C54.491 30.9184 55.1915 29.0976 56.9066 28.3824C58.6218 27.6671 60.3518 28.4404 61.1138 30.263C61.8645 32.0583 61.1716 33.8196 59.429 34.5463ZM56.1956 24.8518L54.8534 25.4115C54.5181 25.5497 54.1431 25.5571 53.8026 25.4324C53.462 25.3076 53.1808 25.0598 53.0145 24.7379L52.9481 24.6082C51.504 22.0072 51.3386 18.8461 52.4592 15.2175C53.4974 11.9625 53.9285 9.67328 53.0614 7.59936C52.0588 5.20152 49.9179 4.45039 47.1878 5.53848C46.129 5.98004 45.792 5.973 44.9588 6.79853C44.7775 6.98029 44.5615 7.12373 44.3235 7.2203C44.0855 7.31687 43.8305 7.3646 43.5737 7.36063C43.3254 7.35771 43.0803 7.30489 42.8529 7.20531C42.6255 7.10574 42.4205 6.96145 42.2501 6.78105C41.9219 6.43339 41.738 5.97431 41.7356 5.49652C41.7332 5.01872 41.9124 4.5578 42.2371 4.20686C43.6377 2.74265 45.327 1.58427 47.1984 0.804823C53.0642 -1.6413 56.0171 1.97005 57.3684 5.20187C58.6901 8.36296 57.9466 11.2959 56.752 15.0944C55.7509 18.2507 55.8092 20.5895 56.9464 22.9149C57.0285 23.0908 57.0742 23.2813 57.0807 23.4752C57.0872 23.6691 57.0544 23.8623 56.9843 24.0432C56.9142 24.2241 56.8081 24.3889 56.6726 24.5279C56.5371 24.6669 56.3748 24.777 56.1956 24.8518Z" fill="url(#paint1_linear_45_1273)"/>
<path d="M205.141 49.0519H176.633C176.543 49.0525 176.453 49.0353 176.369 49.0011C176.285 48.9669 176.209 48.9165 176.145 48.8527C176.081 48.789 176.03 48.7132 175.995 48.6297C175.96 48.5462 175.942 48.4566 175.942 48.3662C175.942 48.2757 175.96 48.1862 175.995 48.1027C176.03 48.0192 176.081 47.9434 176.145 47.8796C176.209 47.8159 176.285 47.7655 176.369 47.7313C176.453 47.6971 176.543 47.6798 176.633 47.6804H205.141C205.322 47.6817 205.496 47.7545 205.624 47.8829C205.751 48.0114 205.823 48.1851 205.823 48.3662C205.823 48.5472 205.751 48.721 205.624 48.8494C205.496 48.9779 205.322 49.0507 205.141 49.0519Z" fill="url(#paint2_linear_45_1273)"/>
<path d="M241.305 49.2806H212.797C212.706 49.2812 212.617 49.2639 212.533 49.2297C212.449 49.1955 212.373 49.1451 212.308 49.0814C212.244 49.0176 212.193 48.9418 212.158 48.8583C212.124 48.7748 212.106 48.6853 212.106 48.5948C212.106 48.5044 212.124 48.4148 212.158 48.3313C212.193 48.2478 212.244 48.172 212.308 48.1083C212.373 48.0445 212.449 47.9941 212.533 47.9599C212.617 47.9257 212.706 47.9085 212.797 47.9091H241.305C241.395 47.9085 241.485 47.9257 241.569 47.9599C241.653 47.9941 241.729 48.0445 241.793 48.1083C241.858 48.172 241.909 48.2478 241.943 48.3313C241.978 48.4148 241.996 48.5044 241.996 48.5948C241.996 48.6853 241.978 48.7748 241.943 48.8583C241.909 48.9418 241.858 49.0176 241.793 49.0814C241.729 49.1451 241.653 49.1955 241.569 49.2297C241.485 49.2639 241.395 49.2812 241.305 49.2806Z" fill="url(#paint3_linear_45_1273)"/>
<path d="M277.469 49.5091H248.961C248.78 49.5078 248.606 49.4351 248.478 49.3066C248.351 49.1781 248.279 49.0044 248.279 48.8233C248.279 48.6423 248.351 48.4685 248.478 48.3401C248.606 48.2116 248.78 48.1388 248.961 48.1376H277.469C277.559 48.137 277.649 48.1543 277.733 48.1884C277.817 48.2226 277.893 48.273 277.957 48.3368C278.021 48.4005 278.072 48.4763 278.107 48.5598C278.142 48.6433 278.16 48.7329 278.16 48.8233C278.16 48.9138 278.142 49.0033 278.107 49.0868C278.072 49.1703 278.021 49.2461 277.957 49.3099C277.893 49.3736 277.817 49.424 277.733 49.4582C277.649 49.4924 277.559 49.5097 277.469 49.5091Z" fill="url(#paint4_linear_45_1273)"/>
<path d="M313.632 49.7376H285.125C284.943 49.7363 284.77 49.6636 284.642 49.5351C284.514 49.4066 284.443 49.2329 284.443 49.0518C284.443 48.8708 284.514 48.697 284.642 48.5686C284.77 48.4401 284.943 48.3673 285.125 48.3661H313.632C313.814 48.3673 313.987 48.4401 314.115 48.5686C314.243 48.697 314.314 48.8708 314.314 49.0518C314.314 49.2329 314.243 49.4066 314.115 49.5351C313.987 49.6636 313.814 49.7363 313.632 49.7376Z" fill="url(#paint5_linear_45_1273)"/>
<path d="M190.825 42.7409C193.751 42.7409 196.123 40.3719 196.123 37.4496C196.123 34.5272 193.751 32.1582 190.825 32.1582C187.899 32.1582 185.526 34.5272 185.526 37.4496C185.526 40.3719 187.899 42.7409 190.825 42.7409Z" fill="url(#paint6_linear_45_1273)"/>
<path d="M227.207 42.7409C230.133 42.7409 232.505 40.3719 232.505 37.4496C232.505 34.5272 230.133 32.1582 227.207 32.1582C224.28 32.1582 221.908 34.5272 221.908 37.4496C221.908 40.3719 224.28 42.7409 227.207 42.7409Z" fill="url(#paint7_linear_45_1273)"/>
<path d="M263.589 42.7409C266.515 42.7409 268.887 40.3719 268.887 37.4496C268.887 34.5272 266.515 32.1582 263.589 32.1582C260.663 32.1582 258.291 34.5272 258.291 37.4496C258.291 40.3719 260.663 42.7409 263.589 42.7409Z" fill="url(#paint8_linear_45_1273)"/>
<path d="M299.971 42.7409C302.897 42.7409 305.269 40.3719 305.269 37.4496C305.269 34.5272 302.897 32.1582 299.971 32.1582C297.045 32.1582 294.673 34.5272 294.673 37.4496C294.673 40.3719 297.045 42.7409 299.971 42.7409Z" fill="url(#paint9_linear_45_1273)"/>
</g>
<defs>
<linearGradient id="paint0_linear_45_1273" x1="79.3851" y1="120.903" x2="79.3851" y2="223" gradientUnits="userSpaceOnUse">
<stop stop-color="#FF573F"/>
<stop offset="1" stop-color="#FF325F"/>
</linearGradient>
<linearGradient id="paint1_linear_45_1273" x1="51.5748" y1="0" x2="51.5748" y2="34.8051" gradientUnits="userSpaceOnUse">
<stop stop-color="#FF583E"/>
<stop offset="1" stop-color="#FF335E"/>
</linearGradient>
<linearGradient id="paint2_linear_45_1273" x1="190.883" y1="47.6804" x2="190.883" y2="49.0519" gradientUnits="userSpaceOnUse">
<stop stop-color="#FF583E"/>
<stop offset="1" stop-color="#FF335E"/>
</linearGradient>
<linearGradient id="paint3_linear_45_1273" x1="227.051" y1="47.9091" x2="227.051" y2="49.2806" gradientUnits="userSpaceOnUse">
<stop stop-color="#FF583E"/>
<stop offset="1" stop-color="#FF335E"/>
</linearGradient>
<linearGradient id="paint4_linear_45_1273" x1="263.219" y1="48.1376" x2="263.219" y2="49.5091" gradientUnits="userSpaceOnUse">
<stop stop-color="#FF583E"/>
<stop offset="1" stop-color="#FF335E"/>
</linearGradient>
<linearGradient id="paint5_linear_45_1273" x1="299.378" y1="48.3661" x2="299.378" y2="49.7376" gradientUnits="userSpaceOnUse">
<stop stop-color="#FF583E"/>
<stop offset="1" stop-color="#FF335E"/>
</linearGradient>
<linearGradient id="paint6_linear_45_1273" x1="190.825" y1="32.1582" x2="190.825" y2="42.7409" gradientUnits="userSpaceOnUse">
<stop stop-color="#FF583E"/>
<stop offset="1" stop-color="#FF335E"/>
</linearGradient>
<linearGradient id="paint7_linear_45_1273" x1="227.207" y1="32.1582" x2="227.207" y2="42.7409" gradientUnits="userSpaceOnUse">
<stop stop-color="#FF583E"/>
<stop offset="1" stop-color="#FF335E"/>
</linearGradient>
<linearGradient id="paint8_linear_45_1273" x1="263.589" y1="32.1582" x2="263.589" y2="42.7409" gradientUnits="userSpaceOnUse">
<stop stop-color="#FF583E"/>
<stop offset="1" stop-color="#FF335E"/>
</linearGradient>
<linearGradient id="paint9_linear_45_1273" x1="299.971" y1="32.1582" x2="299.971" y2="42.7409" gradientUnits="userSpaceOnUse">
<stop stop-color="#FF583E"/>
<stop offset="1" stop-color="#FF335E"/>
</linearGradient>
<clipPath id="clip0_45_1273">
<rect width="336" height="223" fill="white"/>
</clipPath>
</defs>
</svg>
