<svg width="25" height="25" viewBox="0 0 25 25" fill="none" xmlns="http://www.w3.org/2000/svg">
<circle cx="12.5" cy="12.5" r="12.5" fill="url(#paint0_linear_238_2566)"/>
<path d="M9.1875 22.0417V20.625H7.77083V19.2083H9.1875V17.7208C8.25486 17.5556 7.49045 17.1099 6.89427 16.3839C6.29809 15.6578 6 14.8167 6 13.8604C6 12.7861 6.38073 11.8741 7.14219 11.1245C7.90365 10.3748 8.82153 10 9.89583 10C10.9701 10 11.888 10.3748 12.6495 11.1245C13.4109 11.8741 13.7917 12.7861 13.7917 13.8604C13.7917 14.8167 13.4936 15.6578 12.8974 16.3839C12.3012 17.1099 11.5368 17.5556 10.6042 17.7208V19.2083H12.0208V20.625H10.6042V22.0417H9.1875ZM9.89583 16.375C10.5806 16.375 11.1649 16.133 11.649 15.649C12.133 15.1649 12.375 14.5806 12.375 13.8958C12.375 13.2111 12.133 12.6267 11.649 12.1427C11.1649 11.6587 10.5806 11.4167 9.89583 11.4167C9.21111 11.4167 8.62674 11.6587 8.14271 12.1427C7.65868 12.6267 7.41667 13.2111 7.41667 13.8958C7.41667 14.5806 7.65868 15.1649 8.14271 15.649C8.62674 16.133 9.21111 16.375 9.89583 16.375Z" fill="white"/>
<path d="M19.3333 4V8.25H17.9167V6.42604L15.101 9.22396C15.3253 9.55451 15.4965 9.90573 15.6146 10.2776C15.7326 10.6495 15.7917 11.0361 15.7917 11.4375C15.7917 12.5236 15.4139 13.4444 14.6583 14.2C13.9028 14.9556 12.9819 15.3333 11.8958 15.3333C10.8097 15.3333 9.88889 14.9556 9.13333 14.2C8.37778 13.4444 8 12.5236 8 11.4375C8 10.3514 8.37778 9.43056 9.13333 8.675C9.88889 7.91944 10.8097 7.54167 11.8958 7.54167C12.2854 7.54167 12.6691 7.59774 13.0469 7.7099C13.4247 7.82205 13.7729 7.99618 14.0917 8.23229L16.9073 5.41667H15.0833V4H19.3333ZM11.8958 8.95833C11.2111 8.95833 10.6267 9.20035 10.1427 9.68437C9.65868 10.1684 9.41667 10.7528 9.41667 11.4375C9.41667 12.1222 9.65868 12.7066 10.1427 13.1906C10.6267 13.6747 11.2111 13.9167 11.8958 13.9167C12.5806 13.9167 13.1649 13.6747 13.649 13.1906C14.133 12.7066 14.375 12.1222 14.375 11.4375C14.375 10.7528 14.133 10.1684 13.649 9.68437C13.1649 9.20035 12.5806 8.95833 11.8958 8.95833Z" fill="white"/>
<defs>
<linearGradient id="paint0_linear_238_2566" x1="0.520833" y1="12.2882" x2="24.1458" y2="12.5966" gradientUnits="userSpaceOnUse">
<stop stop-color="#FF5C3C"/>
<stop offset="1" stop-color="#FF2F63"/>
</linearGradient>
</defs>
</svg>
