<svg width="29" height="29" viewBox="0 0 29 29" fill="none" xmlns="http://www.w3.org/2000/svg">
<path d="M6.47202 17.5015L5.47383 21.244L1.82547 21.3215C0.735149 19.2904 0.116699 16.9667 0.116699 14.4973C0.116699 12.1094 0.694935 9.85764 1.7199 7.87488H1.72068L4.96875 8.47293L6.39159 11.7154C6.0938 12.5873 5.93148 13.5233 5.93148 14.4973C5.93159 15.5544 6.12225 16.5672 6.47202 17.5015V17.5015Z" fill="#FBBB00"/>
<path d="M28.5425 11.8073C28.7072 12.6783 28.7931 13.5779 28.7931 14.4974C28.7931 15.5283 28.6851 16.5339 28.4795 17.504C27.7815 20.8049 25.9577 23.6873 23.4312 25.727L23.4304 25.7262L19.3393 25.5166L18.7603 21.8865C20.4368 20.8991 21.7469 19.3538 22.4371 17.504H14.77V11.8073H28.5425Z" fill="#518EF8"/>
<path d="M23.4305 25.7263L23.4313 25.727C20.9741 27.7106 17.8528 28.8974 14.4549 28.8974C8.99457 28.8974 4.24721 25.8323 1.82544 21.3216L6.47199 17.5016C7.68284 20.7472 10.8002 23.0575 14.4549 23.0575C16.0258 23.0575 17.4975 22.631 18.7603 21.8865L23.4305 25.7263Z" fill="#28B446"/>
<path d="M23.6071 3.41257L18.9621 7.23173C17.6552 6.41126 16.1102 5.9373 14.455 5.9373C10.7176 5.9373 7.54192 8.35364 6.39172 11.7155L1.72075 7.875H1.71997C4.10628 3.25434 8.91352 0.0974121 14.455 0.0974121C17.934 0.0974121 21.1239 1.342 23.6071 3.41257Z" fill="#F14336"/>
</svg>
