<svg width="25" height="25" viewBox="0 0 25 25" fill="none" xmlns="http://www.w3.org/2000/svg">
<circle cx="12.5" cy="12.5" r="12.5" fill="url(#paint0_linear_210_2297)"/>
<path d="M12.4639 16.75C12.7118 16.75 12.9214 16.6644 13.0926 16.4932C13.2638 16.322 13.3493 16.1125 13.3493 15.8645C13.3493 15.6166 13.2638 15.4071 13.0926 15.2359C12.9214 15.0647 12.7118 14.9791 12.4639 14.9791C12.216 14.9791 12.0065 15.0647 11.8353 15.2359C11.6641 15.4071 11.5785 15.6166 11.5785 15.8645C11.5785 16.1125 11.6641 16.322 11.8353 16.4932C12.0065 16.6644 12.216 16.75 12.4639 16.75ZM11.8264 14.0229H13.1368C13.1368 13.6333 13.1811 13.3263 13.2697 13.102C13.3582 12.8777 13.6091 12.5708 14.0223 12.1812C14.3292 11.8743 14.5712 11.5821 14.7483 11.3046C14.9254 11.0272 15.0139 10.6937 15.0139 10.3041C15.0139 9.64301 14.7719 9.13538 14.2879 8.78121C13.8039 8.42704 13.2313 8.24996 12.5702 8.24996C11.8973 8.24996 11.3513 8.42704 10.9322 8.78121C10.5131 9.13538 10.2209 9.56038 10.0556 10.0562L11.2243 10.5166C11.2834 10.3041 11.4162 10.0739 11.6228 9.826C11.8294 9.57808 12.1452 9.45413 12.5702 9.45413C12.948 9.45413 13.2313 9.55742 13.4202 9.76402C13.6091 9.97062 13.7035 10.1979 13.7035 10.4458C13.7035 10.6819 13.6327 10.9033 13.491 11.1099C13.3493 11.3165 13.1723 11.5083 12.9598 11.6854C12.4403 12.1458 12.1216 12.4941 12.0035 12.7302C11.8855 12.9663 11.8264 13.3972 11.8264 14.0229ZM12.4993 19.5833C11.5195 19.5833 10.5987 19.3974 9.73685 19.0255C8.87504 18.6536 8.12539 18.1489 7.48789 17.5114C6.85039 16.8739 6.3457 16.1243 5.97383 15.2625C5.60195 14.4007 5.41602 13.4798 5.41602 12.5C5.41602 11.5201 5.60195 10.5993 5.97383 9.73746C6.3457 8.87565 6.85039 8.126 7.48789 7.4885C8.12539 6.851 8.87504 6.34631 9.73685 5.97444C10.5987 5.60256 11.5195 5.41663 12.4993 5.41663C13.4792 5.41663 14.4 5.60256 15.2618 5.97444C16.1237 6.34631 16.8733 6.851 17.5108 7.4885C18.1483 8.126 18.653 8.87565 19.0249 9.73746C19.3967 10.5993 19.5827 11.5201 19.5827 12.5C19.5827 13.4798 19.3967 14.4007 19.0249 15.2625C18.653 16.1243 18.1483 16.8739 17.5108 17.5114C16.8733 18.1489 16.1237 18.6536 15.2618 19.0255C14.4 19.3974 13.4792 19.5833 12.4993 19.5833ZM12.4993 18.1666C14.0813 18.1666 15.4212 17.6177 16.5191 16.5198C17.6171 15.4218 18.166 14.0819 18.166 12.5C18.166 10.918 17.6171 9.57808 16.5191 8.48017C15.4212 7.38225 14.0813 6.83329 12.4993 6.83329C10.9174 6.83329 9.57747 7.38225 8.47956 8.48017C7.38164 9.57808 6.83268 10.918 6.83268 12.5C6.83268 14.0819 7.38164 15.4218 8.47956 16.5198C9.57747 17.6177 10.9174 18.1666 12.4993 18.1666Z" fill="white"/>
<defs>
<linearGradient id="paint0_linear_210_2297" x1="0.520833" y1="12.2882" x2="24.1458" y2="12.5966" gradientUnits="userSpaceOnUse">
<stop stop-color="#FF5C3C"/>
<stop offset="1" stop-color="#FF2F63"/>
</linearGradient>
</defs>
</svg>
