<svg width="13" height="15" viewBox="0 0 13 15" fill="none" xmlns="http://www.w3.org/2000/svg">
<path d="M4.37492 8.20817H5.79159V6.26025H7.20825V8.20817H8.62492V4.84359L6.49992 3.42692L4.37492 4.84359V8.20817ZM6.49992 12.7061C7.9402 11.3839 9.0086 10.1826 9.70513 9.10244C10.4017 8.02223 10.7499 7.06303 10.7499 6.22484C10.7499 4.93803 10.3397 3.88439 9.51919 3.0639C8.6987 2.24341 7.69228 1.83317 6.49992 1.83317C5.30756 1.83317 4.30113 2.24341 3.48065 3.0639C2.66016 3.88439 2.24992 4.93803 2.24992 6.22484C2.24992 7.06303 2.59818 8.02223 3.29471 9.10244C3.99124 10.1826 5.05964 11.3839 6.49992 12.7061ZM6.49992 14.5832C4.59922 12.9658 3.17961 11.4636 2.24106 10.0764C1.30252 8.68925 0.833252 7.40539 0.833252 6.22484C0.833252 4.454 1.40287 3.04324 2.54211 1.99255C3.68134 0.941851 5.00061 0.416504 6.49992 0.416504C7.99922 0.416504 9.31849 0.941851 10.4577 1.99255C11.597 3.04324 12.1666 4.454 12.1666 6.22484C12.1666 7.40539 11.6973 8.68925 10.7588 10.0764C9.82023 11.4636 8.40061 12.9658 6.49992 14.5832Z" fill="black"/>
</svg>
