<svg width="81" height="81" viewBox="0 0 81 81" fill="none" xmlns="http://www.w3.org/2000/svg">
<g filter="url(#filter0_d_136_3985)">
<circle cx="36.0404" cy="32.3645" r="25" transform="rotate(-4.89327 36.0404 32.3645)" fill="url(#paint0_linear_136_3985)"/>
</g>
<g filter="url(#filter1_d_136_3985)">
<path d="M40.7275 41.0566L40.443 42.2566C39.5895 42.6032 38.9085 42.8655 38.3999 43.0432C37.8913 43.2299 37.3007 43.3232 36.6283 43.3232C35.5939 43.3232 34.7878 43.0655 34.2102 42.5499C33.6413 42.0255 33.3568 41.3632 33.3568 40.5632C33.3568 40.2521 33.3783 39.9366 33.4214 39.6166C33.4645 39.2877 33.5335 38.9188 33.6283 38.5099L34.6887 34.6166C34.7835 34.2432 34.8611 33.8921 34.9214 33.5632C34.9904 33.2255 35.0249 32.9188 35.0249 32.6432C35.0249 32.1455 34.9257 31.7988 34.7275 31.6032C34.5292 31.4077 34.1499 31.3099 33.5895 31.3099C33.3137 31.3099 33.0292 31.3544 32.7361 31.4432C32.4516 31.5321 32.2059 31.6166 31.999 31.6966L32.2835 30.4966C32.9818 30.2032 33.6499 29.9544 34.2878 29.7499C34.9257 29.5366 35.5292 29.4299 36.0982 29.4299C37.124 29.4299 37.9128 29.6877 38.4645 30.2032C39.0249 30.7099 39.3051 31.3721 39.3051 32.1899C39.3051 32.3588 39.2835 32.6566 39.2404 33.0832C39.2059 33.5099 39.137 33.901 39.0335 34.2566L37.9732 38.1366C37.887 38.4477 37.8094 38.8032 37.7404 39.2032C37.6714 39.6032 37.637 39.9055 37.637 40.1099C37.637 40.6255 37.749 40.9766 37.9732 41.1632C38.1973 41.3499 38.5852 41.4432 39.137 41.4432C39.3956 41.4432 39.6887 41.3988 40.0163 41.3099C40.3439 41.2121 40.5809 41.1277 40.7275 41.0566ZM40.999 24.7766C40.999 25.4521 40.749 26.0299 40.249 26.5099C39.7576 26.981 39.1628 27.2166 38.4645 27.2166C37.7663 27.2166 37.1671 26.981 36.6671 26.5099C36.1671 26.0299 35.9171 25.4521 35.9171 24.7766C35.9171 24.101 36.1671 23.5232 36.6671 23.0432C37.1671 22.5632 37.7663 22.3232 38.4645 22.3232C39.1628 22.3232 39.7576 22.5632 40.249 23.0432C40.749 23.5232 40.999 24.101 40.999 24.7766Z" fill="url(#paint1_linear_136_3985)"/>
</g>
<defs>
<filter id="filter0_d_136_3985" x="0.0390625" y="0.363037" width="80.0029" height="80.0029" filterUnits="userSpaceOnUse" color-interpolation-filters="sRGB">
<feFlood flood-opacity="0" result="BackgroundImageFix"/>
<feColorMatrix in="SourceAlpha" type="matrix" values="0 0 0 0 0 0 0 0 0 0 0 0 0 0 0 0 0 0 127 0" result="hardAlpha"/>
<feOffset dx="4" dy="8"/>
<feGaussianBlur stdDeviation="7.5"/>
<feColorMatrix type="matrix" values="0 0 0 0 0.136667 0 0 0 0 0.410652 0 0 0 0 0.8 0 0 0 0.27 0"/>
<feBlend mode="normal" in2="BackgroundImageFix" result="effect1_dropShadow_136_3985"/>
<feBlend mode="normal" in="SourceGraphic" in2="effect1_dropShadow_136_3985" result="shape"/>
</filter>
<filter id="filter1_d_136_3985" x="23.999" y="15.3232" width="33" height="45" filterUnits="userSpaceOnUse" color-interpolation-filters="sRGB">
<feFlood flood-opacity="0" result="BackgroundImageFix"/>
<feColorMatrix in="SourceAlpha" type="matrix" values="0 0 0 0 0 0 0 0 0 0 0 0 0 0 0 0 0 0 127 0" result="hardAlpha"/>
<feOffset dx="4" dy="5"/>
<feGaussianBlur stdDeviation="6"/>
<feColorMatrix type="matrix" values="0 0 0 0 0.00416667 0 0 0 0 0.00416667 0 0 0 0 0.00416667 0 0 0 0.25 0"/>
<feBlend mode="normal" in2="BackgroundImageFix" result="effect1_dropShadow_136_3985"/>
<feBlend mode="normal" in="SourceGraphic" in2="effect1_dropShadow_136_3985" result="shape"/>
</filter>
<linearGradient id="paint0_linear_136_3985" x1="31.1008" y1="16.5529" x2="46.6715" y2="44.314" gradientUnits="userSpaceOnUse">
<stop stop-color="#2285FA"/>
<stop offset="1" stop-color="#1B40C1"/>
</linearGradient>
<linearGradient id="paint1_linear_136_3985" x1="35.6099" y1="26.1824" x2="43.3293" y2="32.472" gradientUnits="userSpaceOnUse">
<stop stop-color="white"/>
<stop offset="1" stop-color="#FFEBED"/>
</linearGradient>
</defs>
</svg>
