<svg width="25" height="25" viewBox="0 0 25 25" fill="none" xmlns="http://www.w3.org/2000/svg">
<circle cx="12.5" cy="12.5" r="12.5" fill="url(#paint0_linear_256_2709)"/>
<path d="M5.41602 11.7925L8.95768 5.41748L12.4993 11.7925H5.41602ZM8.95768 18.8758C8.17852 18.8758 7.5115 18.5984 6.95664 18.0435C6.40178 17.4887 6.12435 16.8216 6.12435 16.0425C6.12435 15.2515 6.40178 14.5815 6.95664 14.0326C7.5115 13.4836 8.17852 13.2091 8.95768 13.2091C9.73685 13.2091 10.4039 13.4866 10.9587 14.0414C11.5136 14.5963 11.791 15.2633 11.791 16.0425C11.791 16.8216 11.5136 17.4887 10.9587 18.0435C10.4039 18.5984 9.73685 18.8758 8.95768 18.8758ZM8.95768 17.4591C9.34727 17.4591 9.68077 17.3204 9.9582 17.043C10.2356 16.7656 10.3743 16.4321 10.3743 16.0425C10.3743 15.6529 10.2356 15.3194 9.9582 15.042C9.68077 14.7645 9.34727 14.6258 8.95768 14.6258C8.5681 14.6258 8.23459 14.7645 7.95716 15.042C7.67973 15.3194 7.54102 15.6529 7.54102 16.0425C7.54102 16.4321 7.67973 16.7656 7.95716 17.043C8.23459 17.3204 8.5681 17.4591 8.95768 17.4591ZM7.82435 10.3758H10.091L8.95768 8.33936L7.82435 10.3758ZM13.2077 18.8758V13.2091H18.8743V18.8758H13.2077ZM14.6243 17.4591H17.4577V14.6258H14.6243V17.4591ZM16.041 11.7925C15.3681 11.2258 14.8044 10.7477 14.3499 10.3581C13.8954 9.96852 13.5323 9.62616 13.2608 9.33102C12.9893 9.03588 12.7945 8.75845 12.6764 8.49873C12.5584 8.23901 12.4993 7.96158 12.4993 7.66644C12.4993 7.13519 12.6853 6.68658 13.0572 6.32061C13.429 5.95463 13.8924 5.77165 14.4473 5.77165C14.766 5.77165 15.0641 5.84543 15.3415 5.993C15.619 6.14057 15.8521 6.34422 16.041 6.60394C16.2299 6.34422 16.4631 6.14057 16.7405 5.993C17.0179 5.84543 17.316 5.77165 17.6348 5.77165C18.1896 5.77165 18.653 5.95463 19.0249 6.32061C19.3967 6.68658 19.5827 7.13519 19.5827 7.66644C19.5827 7.96158 19.5237 8.23901 19.4056 8.49873C19.2875 8.75845 19.0928 9.03588 18.8212 9.33102C18.5497 9.62616 18.1867 9.96852 17.7322 10.3581C17.2776 10.7477 16.7139 11.2258 16.041 11.7925ZM16.041 9.93311C16.891 9.22477 17.4577 8.72304 17.741 8.4279C18.0243 8.13276 18.166 7.89074 18.166 7.70186C18.166 7.54838 18.1217 7.42442 18.0332 7.32998C17.9447 7.23554 17.8237 7.18831 17.6702 7.18831C17.5521 7.18831 17.437 7.22078 17.3249 7.28571C17.2127 7.35064 17.074 7.46574 16.9087 7.63102L16.041 8.46331L15.1733 7.63102C15.008 7.46574 14.8693 7.35064 14.7572 7.28571C14.645 7.22078 14.5299 7.18831 14.4118 7.18831C14.2584 7.18831 14.1374 7.23554 14.0488 7.32998C13.9603 7.42442 13.916 7.54838 13.916 7.70186C13.916 7.89074 14.0577 8.13276 14.341 8.4279C14.6243 8.72304 15.191 9.22477 16.041 9.93311Z" fill="white"/>
<defs>
<linearGradient id="paint0_linear_256_2709" x1="0.520833" y1="12.2882" x2="24.1458" y2="12.5966" gradientUnits="userSpaceOnUse">
<stop stop-color="#FF5C3C"/>
<stop offset="1" stop-color="#FF2F63"/>
</linearGradient>
</defs>
</svg>
