<svg width="15" height="14" viewBox="0 0 15 14" fill="none" xmlns="http://www.w3.org/2000/svg">
<path d="M1.83341 13.8748C1.44383 13.8748 1.11032 13.7361 0.832894 13.4587C0.555463 13.1813 0.416748 12.8478 0.416748 12.4582V4.6665C0.416748 4.27692 0.555463 3.94341 0.832894 3.66598C1.11032 3.38855 1.44383 3.24984 1.83341 3.24984H4.66675V1.83317C4.66675 1.44359 4.80546 1.11008 5.08289 0.83265C5.36032 0.555219 5.69383 0.416504 6.08341 0.416504H8.91675C9.30633 0.416504 9.63984 0.555219 9.91727 0.83265C10.1947 1.11008 10.3334 1.44359 10.3334 1.83317V3.24984H13.1667C13.5563 3.24984 13.8898 3.38855 14.1673 3.66598C14.4447 3.94341 14.5834 4.27692 14.5834 4.6665V12.4582C14.5834 12.8478 14.4447 13.1813 14.1673 13.4587C13.8898 13.7361 13.5563 13.8748 13.1667 13.8748H1.83341ZM1.83341 12.4582H13.1667V4.6665H1.83341V12.4582ZM6.08341 3.24984H8.91675V1.83317H6.08341V3.24984Z" fill="black"/>
</svg>
