<svg width="25" height="25" viewBox="0 0 25 25" fill="none" xmlns="http://www.w3.org/2000/svg">
<circle cx="12.5" cy="12.5" r="12.5" fill="url(#paint0_linear_238_2562)"/>
<path d="M6.83268 18.8751C6.4431 18.8751 6.10959 18.7364 5.83216 18.4589C5.55473 18.1815 5.41602 17.848 5.41602 17.4584V9.66675C5.41602 9.27716 5.55473 8.94366 5.83216 8.66623C6.10959 8.3888 6.4431 8.25008 6.83268 8.25008H9.66602V6.83341C9.66602 6.44383 9.80473 6.11032 10.0822 5.83289C10.3596 5.55546 10.6931 5.41675 11.0827 5.41675H13.916C14.3056 5.41675 14.6391 5.55546 14.9165 5.83289C15.194 6.11032 15.3327 6.44383 15.3327 6.83341V8.25008H18.166C18.5556 8.25008 18.8891 8.3888 19.1665 8.66623C19.444 8.94366 19.5827 9.27716 19.5827 9.66675V17.4584C19.5827 17.848 19.444 18.1815 19.1665 18.4589C18.8891 18.7364 18.5556 18.8751 18.166 18.8751H6.83268ZM6.83268 17.4584H18.166V9.66675H6.83268V17.4584ZM11.0827 8.25008H13.916V6.83341H11.0827V8.25008Z" fill="white"/>
<defs>
<linearGradient id="paint0_linear_238_2562" x1="0.520833" y1="12.2882" x2="24.1458" y2="12.5966" gradientUnits="userSpaceOnUse">
<stop stop-color="#FF5C3C"/>
<stop offset="1" stop-color="#FF2F63"/>
</linearGradient>
</defs>
</svg>
