<svg width="25" height="25" viewBox="0 0 25 25" fill="none" xmlns="http://www.w3.org/2000/svg">
<circle cx="12.5" cy="12.5" r="12.5" fill="url(#paint0_linear_238_2549)"/>
<path d="M12.4993 19.5834C11.5313 19.5834 10.6164 19.3975 9.75456 19.0256C8.89275 18.6537 8.14015 18.1461 7.49674 17.5027C6.85334 16.8593 6.3457 16.1067 5.97383 15.2449C5.60195 14.3831 5.41602 13.4681 5.41602 12.5001C5.41602 11.5202 5.60195 10.6023 5.97383 9.74644C6.3457 8.89053 6.85334 8.14088 7.49674 7.49748C8.14015 6.85407 8.89275 6.34644 9.75456 5.97456C10.6164 5.60269 11.5313 5.41675 12.4993 5.41675C13.4792 5.41675 14.3971 5.60269 15.253 5.97456C16.1089 6.34644 16.8586 6.85407 17.502 7.49748C18.1454 8.14088 18.653 8.89053 19.0249 9.74644C19.3967 10.6023 19.5827 11.5202 19.5827 12.5001C19.5827 13.4681 19.3967 14.3831 19.0249 15.2449C18.653 16.1067 18.1454 16.8593 17.502 17.5027C16.8586 18.1461 16.1089 18.6537 15.253 19.0256C14.3971 19.3975 13.4792 19.5834 12.4993 19.5834ZM12.4993 18.1313C12.8063 17.7063 13.0719 17.2636 13.2962 16.8032C13.5205 16.3428 13.7035 15.8529 13.8452 15.3334H11.1535C11.2952 15.8529 11.4782 16.3428 11.7025 16.8032C11.9268 17.2636 12.1924 17.7063 12.4993 18.1313ZM10.6577 17.848C10.4452 17.4584 10.2592 17.0541 10.0999 16.635C9.94049 16.2159 9.80768 15.782 9.70143 15.3334H7.61185C7.95421 15.9237 8.38216 16.4372 8.8957 16.874C9.40924 17.3108 9.99657 17.6355 10.6577 17.848ZM14.341 17.848C15.0021 17.6355 15.5895 17.3108 16.103 16.874C16.6165 16.4372 17.0445 15.9237 17.3868 15.3334H15.2973C15.191 15.782 15.0582 16.2159 14.8988 16.635C14.7395 17.0541 14.5535 17.4584 14.341 17.848ZM7.00977 13.9167H9.4181C9.38268 13.6806 9.35612 13.4475 9.33841 13.2173C9.3207 12.9871 9.31185 12.748 9.31185 12.5001C9.31185 12.2522 9.3207 12.0131 9.33841 11.7829C9.35612 11.5527 9.38268 11.3195 9.4181 11.0834H7.00977C6.95074 11.3195 6.90647 11.5527 6.87695 11.7829C6.84744 12.0131 6.83268 12.2522 6.83268 12.5001C6.83268 12.748 6.84744 12.9871 6.87695 13.2173C6.90647 13.4475 6.95074 13.6806 7.00977 13.9167ZM10.8348 13.9167H14.1639C14.1993 13.6806 14.2259 13.4475 14.2436 13.2173C14.2613 12.9871 14.2702 12.748 14.2702 12.5001C14.2702 12.2522 14.2613 12.0131 14.2436 11.7829C14.2259 11.5527 14.1993 11.3195 14.1639 11.0834H10.8348C10.7993 11.3195 10.7728 11.5527 10.7551 11.7829C10.7374 12.0131 10.7285 12.2522 10.7285 12.5001C10.7285 12.748 10.7374 12.9871 10.7551 13.2173C10.7728 13.4475 10.7993 13.6806 10.8348 13.9167ZM15.5806 13.9167H17.9889C18.048 13.6806 18.0922 13.4475 18.1217 13.2173C18.1513 12.9871 18.166 12.748 18.166 12.5001C18.166 12.2522 18.1513 12.0131 18.1217 11.7829C18.0922 11.5527 18.048 11.3195 17.9889 11.0834H15.5806C15.616 11.3195 15.6426 11.5527 15.6603 11.7829C15.678 12.0131 15.6868 12.2522 15.6868 12.5001C15.6868 12.748 15.678 12.9871 15.6603 13.2173C15.6426 13.4475 15.616 13.6806 15.5806 13.9167ZM15.2973 9.66675H17.3868C17.0445 9.07647 16.6165 8.56293 16.103 8.12612C15.5895 7.68932 15.0021 7.36466 14.341 7.15216C14.5535 7.54175 14.7395 7.94609 14.8988 8.36519C15.0582 8.78428 15.191 9.21814 15.2973 9.66675ZM11.1535 9.66675H13.8452C13.7035 9.1473 13.5205 8.65737 13.2962 8.19696C13.0719 7.73654 12.8063 7.29383 12.4993 6.86883C12.1924 7.29383 11.9268 7.73654 11.7025 8.19696C11.4782 8.65737 11.2952 9.1473 11.1535 9.66675ZM7.61185 9.66675H9.70143C9.80768 9.21814 9.94049 8.78428 10.0999 8.36519C10.2592 7.94609 10.4452 7.54175 10.6577 7.15216C9.99657 7.36466 9.40924 7.68932 8.8957 8.12612C8.38216 8.56293 7.95421 9.07647 7.61185 9.66675Z" fill="white"/>
<defs>
<linearGradient id="paint0_linear_238_2549" x1="0.520833" y1="12.2882" x2="24.1458" y2="12.5966" gradientUnits="userSpaceOnUse">
<stop stop-color="#FF5C3C"/>
<stop offset="1" stop-color="#FF2F63"/>
</linearGradient>
</defs>
</svg>
