<svg width="25" height="25" viewBox="0 0 25 25" fill="none" xmlns="http://www.w3.org/2000/svg">
<circle cx="12.5" cy="12.5" r="12.5" fill="url(#paint0_linear_238_2565)"/>
<path d="M6.125 18.8753V8.95866H10.375V7.54199L12.5 5.41699L14.625 7.54199V11.792H18.875V18.8753H6.125ZM7.54167 17.4587H8.95833V16.042H7.54167V17.4587ZM7.54167 14.6253H8.95833V13.2087H7.54167V14.6253ZM7.54167 11.792H8.95833V10.3753H7.54167V11.792ZM11.7917 17.4587H13.2083V16.042H11.7917V17.4587ZM11.7917 14.6253H13.2083V13.2087H11.7917V14.6253ZM11.7917 11.792H13.2083V10.3753H11.7917V11.792ZM11.7917 8.95866H13.2083V7.54199H11.7917V8.95866ZM16.0417 17.4587H17.4583V16.042H16.0417V17.4587ZM16.0417 14.6253H17.4583V13.2087H16.0417V14.6253Z" fill="white"/>
<defs>
<linearGradient id="paint0_linear_238_2565" x1="0.520833" y1="12.2882" x2="24.1458" y2="12.5966" gradientUnits="userSpaceOnUse">
<stop stop-color="#FF5C3C"/>
<stop offset="1" stop-color="#FF2F63"/>
</linearGradient>
</defs>
</svg>
