<svg width="23" height="23" viewBox="0 0 23 23" fill="none" xmlns="http://www.w3.org/2000/svg">
<rect y="10.9767" width="23" height="1.86047" rx="0.930233" fill="url(#paint0_linear_136_4993)"/>
<rect x="12.5" y="0.744141" width="21.3953" height="2" rx="1" transform="rotate(90 12.5 0.744141)" fill="url(#paint1_linear_136_4993)"/>
<path d="M19 11.4419C19 15.1896 15.7115 18.3488 11.5 18.3488C7.28852 18.3488 4 15.1896 4 11.4419C4 7.69412 7.28852 4.53488 11.5 4.53488C15.7115 4.53488 19 7.69412 19 11.4419Z" fill="white" stroke="url(#paint2_linear_136_4993)" stroke-width="2"/>
<ellipse cx="11.5" cy="11.4419" rx="2.5" ry="2.32558" fill="url(#paint3_linear_136_4993)"/>
<defs>
<linearGradient id="paint0_linear_136_4993" x1="11.5" y1="10.9767" x2="11.5" y2="12.8372" gradientUnits="userSpaceOnUse">
<stop stop-color="#FF5A3D"/>
<stop offset="1" stop-color="#FF2F63"/>
</linearGradient>
<linearGradient id="paint1_linear_136_4993" x1="23.1977" y1="0.744141" x2="23.1977" y2="2.74414" gradientUnits="userSpaceOnUse">
<stop stop-color="#FF5A3D"/>
<stop offset="1" stop-color="#FF2F63"/>
</linearGradient>
<linearGradient id="paint2_linear_136_4993" x1="11.5" y1="3.53488" x2="11.5" y2="19.3488" gradientUnits="userSpaceOnUse">
<stop stop-color="#FF5A3D"/>
<stop offset="1" stop-color="#FF2F63"/>
</linearGradient>
<linearGradient id="paint3_linear_136_4993" x1="11.5" y1="9.11627" x2="11.5" y2="13.7674" gradientUnits="userSpaceOnUse">
<stop stop-color="#FF5A3D"/>
<stop offset="1" stop-color="#FF2F63"/>
</linearGradient>
</defs>
</svg>
