<svg width="337" height="210" viewBox="0 0 337 210" fill="none" xmlns="http://www.w3.org/2000/svg">
<path d="M89.0691 122.184C74.3084 107.654 68.0742 92.4943 71.5144 79.4994C75.9292 62.8232 95.5421 51.2931 125.324 47.8654L125.434 48.8219C96.0667 52.2017 76.753 63.4731 72.4451 79.7457C69.0971 92.3923 75.2408 107.22 89.7446 121.499L89.0691 122.184Z" fill="#D2D2D2"/>
<path d="M231.484 173.764C213.062 173.764 193.043 171.027 173.158 165.762C148.569 159.252 126.022 149.426 107.957 137.346L108.492 136.546C126.47 148.568 148.917 158.349 173.405 164.832C195.534 170.69 217.83 173.405 237.873 172.689L237.908 173.65C235.791 173.727 233.65 173.764 231.484 173.764Z" fill="#D2D2D2"/>
<path d="M273.748 167.71L273.439 166.799C289.915 161.228 300.221 152.254 303.241 140.847C307.08 126.345 298.74 109.517 279.756 93.4617C260.676 77.3252 233.162 63.9359 202.281 55.7608L202.527 54.8301C233.543 63.0411 261.191 76.4997 280.377 92.7268C299.661 109.035 308.111 126.212 304.172 141.093C301.065 152.828 290.544 162.032 273.748 167.71Z" fill="#D2D2D2"/>
<path d="M122.457 174.166C86.2585 158.112 58.3647 137.283 43.9146 115.517L44.7165 114.984C59.0668 136.6 86.8141 157.305 122.847 173.286L122.457 174.166Z" fill="#D2D2D2"/>
<path d="M249.728 201.979C245.994 201.979 242.197 201.896 238.336 201.729L238.377 200.768C267.192 202.015 292.617 198.567 311.906 190.793L312.266 191.686C295.439 198.467 273.992 201.979 249.728 201.979Z" fill="#D2D2D2"/>
<path d="M228.726 48.7282C222.743 46.7802 216.589 44.9665 210.435 43.3373C175.021 33.9619 140.208 30.6331 109.759 33.7127L109.663 32.7548C140.225 29.665 175.157 33.0018 210.681 42.4066C216.853 44.0405 223.024 45.8594 229.024 47.813L228.726 48.7282Z" fill="#D2D2D2"/>
<path d="M66.446 123.628C51.6854 109.098 45.4512 93.9384 48.8913 80.9435C53.3061 64.2673 72.9191 52.7371 102.701 49.3094L102.811 50.266C73.4436 53.6458 54.1299 64.9172 49.822 81.1898C46.474 93.8364 52.6177 108.665 67.1215 122.943L66.446 123.628Z" fill="#D2D2D2"/>
<path d="M208.861 175.208C190.439 175.208 170.42 172.471 150.535 167.206C125.945 160.697 103.399 150.871 85.3335 138.79L85.8684 137.99C103.847 150.012 126.293 159.793 150.781 166.276C172.911 172.135 195.206 174.849 215.249 174.133L215.284 175.095C213.168 175.171 211.026 175.209 208.861 175.208Z" fill="#D2D2D2"/>
<path d="M251.124 169.154L250.816 168.242C267.292 162.671 277.597 153.698 280.617 142.29C284.456 127.788 276.116 110.96 257.132 94.9052C238.052 78.7687 210.538 65.3794 179.657 57.2043L179.903 56.2736C210.919 64.4846 238.567 77.9432 257.754 94.1703C277.037 110.479 285.487 127.655 281.548 142.536C278.441 154.271 267.921 163.475 251.124 169.154Z" fill="#D2D2D2"/>
<path d="M105.796 180.798C57.2964 156.725 20.0604 125.777 0.947937 93.6539L2.03674 92.8851C21.0171 124.786 58.0578 155.551 106.336 179.513L105.796 180.798Z" fill="#E0E0E0"/>
<path d="M227.105 203.424C223.372 203.424 219.574 203.341 215.713 203.174L215.754 202.212C244.57 203.46 269.994 200.011 289.283 192.238L289.643 193.131C272.817 199.911 251.369 203.424 227.105 203.424Z" fill="#D2D2D2"/>
<path d="M206.102 50.1729C200.119 48.225 193.965 46.4112 187.811 44.782C152.397 35.4066 117.584 32.0778 87.1354 35.1575L87.0386 34.1995C117.601 31.1097 152.533 34.4465 188.057 43.8513C194.229 45.4852 200.4 47.3041 206.4 49.2577L206.102 50.1729Z" fill="#D2D2D2"/>
<path d="M38.259 97.1328C45.177 89.3764 56.2124 84.649 66.2129 87.4789C56.987 94.0079 50.3678 103.59 47.5265 114.529C46.446 118.752 45.684 123.561 42.172 126.143C39.9868 127.75 37.0914 128.134 34.404 127.768C31.7165 127.402 29.1755 126.357 26.6687 125.321L25.9941 125.38C27.9335 115.169 31.3409 104.889 38.259 97.1328Z" fill="#41AF38"/>
<path d="M65.6233 88.4055C57.2622 90.43 49.7515 95.0374 44.158 101.573C42.9289 102.959 41.9259 104.53 41.1859 106.228C40.5185 107.905 40.3125 109.731 40.5892 111.515C40.8138 113.183 41.2368 114.864 41.0518 116.558C40.9443 117.424 40.655 118.257 40.2029 119.003C39.7507 119.749 39.146 120.391 38.4283 120.887C36.6721 122.17 34.5599 122.745 32.4749 123.235C30.1598 123.78 27.7465 124.309 25.8593 125.847C25.6307 126.033 25.3548 125.668 25.5831 125.482C28.8664 122.805 33.4296 123.149 37.0623 121.204C38.7573 120.297 40.1893 118.873 40.5375 116.92C40.8419 115.212 40.4072 113.478 40.1652 111.791C39.8697 110.054 40.0039 108.272 40.5561 106.6C41.2072 104.869 42.148 103.263 43.3383 101.848C45.9671 98.6207 49.087 95.8267 52.5837 93.5685C56.5602 90.9691 60.9521 89.069 65.5693 87.9506C65.8551 87.8815 65.9073 88.3369 65.6234 88.4055L65.6233 88.4055Z" fill="#F2F6FA"/>
<path d="M45.836 99.3623C44.8668 98.275 44.3157 96.8786 44.281 95.4224C44.2464 93.9662 44.7305 92.5451 45.6468 91.4129C45.8331 91.1845 46.1968 91.4631 46.0104 91.6918C45.1551 92.7446 44.7043 94.0684 44.7393 95.4243C44.7743 96.7802 45.2929 98.0789 46.2014 99.0861C46.3986 99.3052 46.0321 99.5802 45.836 99.3623H45.836Z" fill="#F2F6FA"/>
<path d="M40.3639 110.684C43.3349 110.881 46.2711 109.951 48.5871 108.08C48.8164 107.894 49.0923 108.26 48.8633 108.445C46.4496 110.388 43.392 111.35 40.3008 111.137C40.0062 111.117 40.0708 110.663 40.3639 110.684Z" fill="#F2F6FA"/>
<path d="M56.6632 91.5675C56.9506 92.0664 57.3573 92.486 57.8469 92.7889C58.3365 93.0917 58.8937 93.2681 59.4684 93.3024C59.7631 93.3191 59.6981 93.7727 59.4053 93.7561C58.7706 93.7153 58.1555 93.5197 57.6138 93.1863C57.0721 92.8529 56.6203 92.392 56.2978 91.8437C56.2631 91.7946 56.2484 91.7341 56.2567 91.6745C56.2649 91.6149 56.2956 91.5607 56.3424 91.5229C56.391 91.4866 56.4519 91.4709 56.512 91.4792C56.5721 91.4876 56.6264 91.5193 56.6632 91.5675Z" fill="#F2F6FA"/>
<path d="M80.129 126.344C79.9474 126.312 79.7657 126.281 79.5813 126.252C77.1368 125.837 74.6628 125.623 72.1835 125.609C71.9918 125.605 71.7975 125.604 71.6062 125.605C65.6327 125.637 59.717 126.777 54.1597 128.967C51.9492 129.841 49.8083 130.882 47.7556 132.081C44.9209 133.736 41.9791 135.757 38.855 136.361C38.5297 136.428 38.2007 136.474 37.8697 136.501L25.4655 124.956C25.4504 124.916 25.4327 124.878 25.4175 124.838L24.9011 124.4C25.0027 124.33 25.1095 124.261 25.211 124.192C25.2698 124.151 25.3313 124.113 25.39 124.073C25.4301 124.047 25.4703 124.021 25.5049 123.995C25.5182 123.986 25.5316 123.978 25.5423 123.972C25.5769 123.946 25.6118 123.926 25.6438 123.903C26.2398 123.512 26.8395 123.125 27.443 122.741C27.4457 122.738 27.4457 122.738 27.4511 122.738C32.0571 119.826 36.9466 117.273 42.0682 115.544C42.2223 115.492 42.3789 115.437 42.5387 115.39C44.8516 114.623 47.2232 114.047 49.6301 113.666C50.9486 113.462 52.2767 113.325 53.6091 113.256C57.0522 113.082 60.5013 113.451 63.8297 114.349C70.4647 116.141 76.4529 120.034 79.8722 125.894C79.9596 126.044 80.0443 126.191 80.129 126.344Z" fill="#41AF38"/>
<path d="M79.6955 120.544C71.8008 117.126 63.0299 116.283 54.6287 118.134C52.813 118.5 51.0664 119.151 49.4533 120.061C47.9105 120.998 46.6469 122.332 45.7938 123.923C44.9685 125.39 44.2943 126.987 43.1268 128.228C42.5197 128.855 41.787 129.346 40.9768 129.669C40.1665 129.993 39.2971 130.142 38.4254 130.105C36.2512 130.072 34.2186 129.259 32.2585 128.396C30.0822 127.436 27.8369 126.406 25.4038 126.498C25.109 126.509 25.1089 126.051 25.4033 126.04C29.6365 125.879 33.0729 128.901 37.144 129.536C39.0437 129.832 41.0441 129.558 42.4982 128.208C43.7697 127.027 44.4663 125.381 45.2891 123.888C46.0986 122.324 47.2788 120.982 48.7266 119.979C50.2882 118.989 52.0068 118.273 53.8088 117.86C57.8509 116.866 62.0241 116.513 66.1757 116.815C70.9157 117.134 75.5663 118.261 79.9263 120.148C80.1961 120.265 79.9636 120.66 79.6955 120.544Z" fill="#F2F6FA"/>
<path d="M57.2994 117.379C57.1802 115.927 57.5809 114.481 58.43 113.297C59.279 112.113 60.5211 111.27 61.9345 110.918C62.2207 110.848 62.3434 111.289 62.0568 111.36C60.74 111.685 59.5831 112.471 58.7947 113.574C58.0063 114.678 57.6385 116.027 57.7575 117.378C57.783 117.672 57.3248 117.671 57.2994 117.379Z" fill="#F2F6FA"/>
<path d="M46.1147 123.124C48.3681 125.07 51.2723 126.096 54.2482 125.996C54.543 125.986 54.5432 126.444 54.2487 126.454C51.1517 126.552 48.1317 125.479 45.7912 123.448C45.5683 123.254 45.893 122.931 46.1147 123.124Z" fill="#F2F6FA"/>
<path d="M70.6378 117.674C70.5669 118.245 70.639 118.825 70.8476 119.362C71.0563 119.899 71.3949 120.375 71.8331 120.748C72.0584 120.939 71.7334 121.262 71.5096 121.073C71.0273 120.658 70.654 120.131 70.4222 119.539C70.1904 118.947 70.1072 118.307 70.1798 117.675C70.1816 117.615 70.2063 117.557 70.2488 117.515C70.2913 117.472 70.3484 117.447 70.4085 117.445C70.4692 117.446 70.5273 117.47 70.5702 117.513C70.6132 117.555 70.6375 117.614 70.6378 117.674H70.6378Z" fill="#F2F6FA"/>
<path d="M308.773 161.427C304.864 151.797 296.06 143.635 285.69 142.939C292.185 152.189 295.198 163.438 294.198 174.697C293.796 179.037 292.897 183.823 295.337 187.435C296.855 189.682 299.453 191.017 302.107 191.576C304.761 192.134 307.506 192.004 310.215 191.871L310.831 192.153C312.436 181.884 312.682 171.057 308.773 161.427Z" fill="#008C0E"/>
<path d="M285.645 143.153C292.839 147.87 298.365 154.734 301.436 162.77C302.128 164.488 302.544 166.304 302.671 168.152C302.736 169.956 302.316 171.745 301.456 173.332C300.683 174.828 299.72 176.269 299.325 177.926C299.135 178.778 299.128 179.66 299.303 180.515C299.478 181.369 299.832 182.177 300.341 182.886C301.564 184.684 303.36 185.935 305.159 187.098C307.156 188.389 309.251 189.698 310.512 191.781C310.664 192.034 311.047 191.782 310.895 191.53C308.702 187.905 304.289 186.695 301.521 183.643C300.229 182.219 299.359 180.397 299.688 178.44C299.975 176.729 300.967 175.242 301.762 173.734C302.624 172.198 303.097 170.475 303.139 168.714C303.107 166.866 302.761 165.036 302.116 163.304C300.724 159.381 298.725 155.7 296.191 152.398C293.319 148.614 289.822 145.348 285.849 142.743C285.603 142.582 285.401 142.993 285.645 143.153Z" fill="#F2F6FA"/>
<path d="M300.599 160.124C301.878 159.426 302.866 158.296 303.388 156.936C303.91 155.576 303.932 154.075 303.449 152.701C303.351 152.423 302.915 152.563 303.013 152.841C303.465 154.12 303.445 155.518 302.956 156.784C302.467 158.049 301.542 159.098 300.348 159.741C300.089 159.881 300.342 160.263 300.599 160.124Z" fill="#F2F6FA"/>
<path d="M301.947 172.625C299.082 171.812 296.63 169.95 295.077 167.409C294.924 167.157 294.541 167.408 294.694 167.66C296.315 170.301 298.871 172.234 301.854 173.073C302.138 173.153 302.23 172.704 301.947 172.625Z" fill="#F2F6FA"/>
<path d="M293.022 149.142C292.584 149.516 292.06 149.774 291.497 149.895C290.934 150.015 290.35 149.994 289.797 149.833C289.514 149.75 289.423 150.199 289.704 150.282C290.316 150.457 290.961 150.479 291.583 150.347C292.205 150.216 292.786 149.933 293.274 149.525C293.323 149.491 293.357 149.439 293.369 149.38C293.382 149.321 293.371 149.259 293.339 149.208C293.306 149.158 293.254 149.122 293.194 149.11C293.135 149.098 293.073 149.109 293.022 149.142Z" fill="#F2F6FA"/>
<path d="M261.497 168.494C261.672 168.551 261.848 168.608 262.024 168.669C264.378 169.449 266.664 170.418 268.861 171.568C269.032 171.654 269.204 171.744 269.373 171.835C274.635 174.662 279.327 178.441 283.21 182.98C284.753 184.788 286.157 186.71 287.409 188.731C289.137 191.522 290.789 194.685 293.266 196.683C293.522 196.895 293.791 197.09 294.071 197.268L310.439 192.882C310.471 192.853 310.504 192.828 310.537 192.8L311.198 192.654C311.141 192.546 311.079 192.434 311.022 192.325C310.989 192.262 310.952 192.2 310.919 192.137C310.896 192.095 310.873 192.053 310.854 192.014C310.847 192 310.839 191.986 310.832 191.976C310.814 191.937 310.792 191.903 310.775 191.867C310.431 191.243 310.083 190.62 309.73 189.998C309.729 189.994 309.729 189.994 309.724 189.991C307.019 185.261 303.896 180.715 300.182 176.787C300.07 176.669 299.957 176.547 299.838 176.431C298.154 174.67 296.329 173.049 294.381 171.585C293.312 170.787 292.203 170.044 291.058 169.358C288.098 167.591 284.878 166.301 281.517 165.535C274.816 164.008 267.701 164.642 261.935 168.217C261.788 168.308 261.644 168.399 261.497 168.494Z" fill="#008C0E"/>
<path d="M261.59 168.692C270.174 168.126 278.718 170.28 286.009 174.847C287.596 175.803 289.022 177.002 290.236 178.402C291.373 179.803 292.115 181.484 292.384 183.269C292.668 184.928 292.766 186.659 293.449 188.22C293.81 189.014 294.335 189.723 294.99 190.3C295.644 190.877 296.413 191.309 297.246 191.568C299.305 192.267 301.492 192.185 303.629 192.03C306.001 191.859 308.462 191.643 310.722 192.547C310.996 192.657 311.15 192.225 310.877 192.116C306.944 190.542 302.692 192.233 298.644 191.462C296.755 191.103 294.964 190.172 294.048 188.412C293.247 186.873 293.144 185.088 292.871 183.406C292.635 181.66 291.974 179.999 290.948 178.568C289.809 177.111 288.432 175.859 286.873 174.864C283.4 172.57 279.588 170.835 275.577 169.724C271.005 168.431 266.247 167.93 261.506 168.241C261.213 168.261 261.299 168.711 261.59 168.692Z" fill="#F2F6FA"/>
<path d="M283.747 173.239C284.347 171.912 284.456 170.414 284.054 169.014C283.652 167.614 282.766 166.403 281.553 165.596C281.307 165.433 281.043 165.808 281.289 165.971C282.42 166.72 283.246 167.849 283.617 169.153C283.989 170.458 283.882 171.852 283.316 173.084C283.193 173.352 283.625 173.505 283.747 173.239H283.747Z" fill="#F2F6FA"/>
<path d="M292.35 182.409C289.574 183.484 286.494 183.474 283.725 182.38C283.45 182.271 283.296 182.703 283.57 182.811C286.454 183.944 289.659 183.949 292.546 182.823C292.821 182.715 292.624 182.302 292.35 182.409Z" fill="#F2F6FA"/>
<path d="M271.085 169.034C270.96 169.595 270.697 170.117 270.32 170.553C269.943 170.988 269.464 171.323 268.926 171.527C268.65 171.631 268.847 172.045 269.122 171.941C269.715 171.713 270.244 171.342 270.661 170.862C271.079 170.382 271.372 169.808 271.516 169.188C271.535 169.131 271.531 169.069 271.505 169.014C271.479 168.96 271.434 168.917 271.378 168.895C271.321 168.875 271.258 168.878 271.203 168.904C271.148 168.93 271.106 168.977 271.085 169.034V169.034Z" fill="#F2F6FA"/>
<path d="M232.942 194.22C235.069 194.22 236.793 192.496 236.793 190.369C236.793 188.242 235.069 186.518 232.942 186.518C230.815 186.518 229.091 188.242 229.091 190.369C229.091 192.496 230.815 194.22 232.942 194.22Z" fill="#FD6584"/>
<path d="M246.582 128.633C248.709 128.633 250.433 126.909 250.433 124.782C250.433 122.655 248.709 120.931 246.582 120.931C244.456 120.931 242.732 122.655 242.732 124.782C242.732 126.909 244.456 128.633 246.582 128.633Z" fill="#E6E6E6"/>
<path d="M174.928 21.8203C177.055 21.8203 178.779 20.0962 178.779 17.9695C178.779 15.8428 177.055 14.1188 174.928 14.1188C172.802 14.1188 171.078 15.8428 171.078 17.9695C171.078 20.0962 172.802 21.8203 174.928 21.8203Z" fill="#E6E6E6"/>
<path d="M94.2334 165.684C94.2334 166.665 94.2657 167.645 94.3343 168.617C94.4069 169.779 94.532 170.932 94.7014 172.078C95.2708 175.935 96.359 179.698 97.9365 183.264C98.0172 183.441 98.0979 183.619 98.1786 183.796L98.2996 184.063C98.3399 184.151 98.3843 184.24 98.4246 184.325C98.4811 184.442 98.5336 184.555 98.59 184.668C98.6586 184.809 98.7272 184.95 98.7998 185.091C98.8079 185.107 98.8159 185.128 98.828 185.148C98.8885 185.269 98.945 185.386 99.0096 185.507C99.0214 185.533 99.0349 185.559 99.0499 185.583C99.1185 185.721 99.1911 185.862 99.2637 185.999C99.3444 186.144 99.421 186.293 99.5017 186.439C99.6953 186.798 99.897 187.153 100.103 187.508C100.163 187.612 100.224 187.717 100.288 187.822C100.345 187.919 100.401 188.016 100.462 188.113C100.502 188.177 100.542 188.246 100.583 188.31C100.647 188.419 100.712 188.524 100.78 188.633C100.93 188.871 101.083 189.109 101.232 189.347H101.236C101.305 189.456 101.377 189.565 101.45 189.67V189.674C101.664 189.996 101.886 190.319 102.108 190.638C102.108 190.638 102.109 190.638 102.109 190.638C102.11 190.638 102.11 190.639 102.11 190.639C102.111 190.639 102.111 190.64 102.111 190.64C102.112 190.641 102.112 190.641 102.112 190.642C102.289 190.9 102.475 191.15 102.656 191.4V191.404C102.777 191.562 102.894 191.723 103.015 191.88C103.112 192.009 103.213 192.143 103.314 192.272C103.334 192.3 103.358 192.324 103.378 192.352V192.356C103.406 192.393 103.435 192.425 103.463 192.461C103.891 193.01 104.332 193.546 104.786 194.071L104.859 194.155C104.883 194.184 104.911 194.212 104.935 194.244C104.976 194.289 105.012 194.333 105.052 194.377C105.089 194.422 105.129 194.466 105.169 194.51C107.538 197.179 110.225 199.548 113.168 201.566C113.56 201.836 113.959 202.098 114.358 202.352C114.459 202.417 114.56 202.481 114.661 202.542C114.689 202.562 114.722 202.582 114.75 202.602C114.806 202.635 114.859 202.667 114.915 202.703C114.968 202.735 115.02 202.768 115.077 202.8C115.29 202.933 115.508 203.062 115.726 203.191C115.778 203.224 115.835 203.256 115.891 203.288C115.944 203.316 116 203.349 116.057 203.381C116.057 203.385 116.057 203.385 116.061 203.385H116.065V203.389H116.069C116.339 203.546 116.613 203.7 116.892 203.849C117.041 203.93 117.194 204.014 117.348 204.091C117.695 204.28 118.045 204.462 118.396 204.635C118.521 204.696 118.651 204.756 118.776 204.821C118.88 204.869 118.985 204.922 119.09 204.97C119.123 204.986 119.151 204.998 119.179 205.015C119.268 205.055 119.352 205.095 119.441 205.136C119.538 205.18 119.635 205.224 119.728 205.269C119.836 205.317 119.941 205.366 120.05 205.41C120.454 205.591 120.861 205.765 121.269 205.93C122.729 206.529 124.221 207.046 125.738 207.479C125.807 207.5 125.879 207.52 125.952 207.54C126.601 207.721 127.255 207.887 127.912 208.036C129.062 208.302 130.222 208.52 131.394 208.69H131.402C131.543 208.71 131.68 208.73 131.821 208.75C131.833 208.75 131.845 208.754 131.862 208.754C131.862 208.758 131.862 208.758 131.866 208.754C132.019 208.774 132.176 208.794 132.329 208.815C132.34 208.818 132.351 208.819 132.362 208.819C132.507 208.839 132.656 208.855 132.801 208.871C132.959 208.887 133.116 208.903 133.273 208.919C133.394 208.932 133.515 208.944 133.636 208.956C133.647 208.959 133.658 208.961 133.669 208.96C133.778 208.968 133.887 208.98 133.995 208.988H134.012C134.104 208.996 134.201 209.004 134.294 209.012C135.419 209.101 136.549 209.141 137.695 209.141C138.933 209.141 140.163 209.093 141.377 208.988H141.39C141.652 208.964 141.91 208.94 142.168 208.915C142.237 208.907 142.301 208.903 142.37 208.895C142.382 208.895 142.398 208.891 142.41 208.891C142.43 208.887 142.45 208.887 142.475 208.883C142.486 208.884 142.496 208.882 142.507 208.879C142.596 208.871 142.684 208.859 142.777 208.851L143.08 208.815C143.181 208.802 143.281 208.786 143.382 208.774C143.406 208.77 143.427 208.77 143.451 208.766C143.523 208.758 143.596 208.746 143.669 208.734C143.705 208.73 143.741 208.726 143.774 208.722C143.846 208.71 143.915 208.702 143.987 208.69H143.991C146.205 208.371 148.39 207.879 150.526 207.217C150.639 207.181 150.752 207.149 150.865 207.112C150.869 207.112 150.873 207.108 150.877 207.108C150.91 207.096 150.946 207.088 150.978 207.076C151.281 206.979 151.579 206.878 151.878 206.773C152.289 206.636 152.697 206.487 153.104 206.334C153.213 206.289 153.322 206.249 153.431 206.205C153.653 206.12 153.87 206.031 154.088 205.942C154.459 205.793 154.83 205.636 155.198 205.475C155.54 205.321 155.879 205.168 156.218 205.007C156.226 205.003 156.238 205.003 156.246 204.994C156.323 204.958 156.4 204.922 156.472 204.886H156.476C158.334 203.994 160.126 202.971 161.837 201.824C162.386 201.457 162.926 201.078 163.459 200.686C163.887 200.368 164.306 200.045 164.726 199.714C166.795 198.068 168.711 196.237 170.45 194.244V194.24C170.575 194.103 170.692 193.962 170.813 193.821C170.833 193.8 170.849 193.78 170.865 193.764C170.942 193.671 171.014 193.583 171.091 193.494V193.49C171.192 193.373 171.293 193.252 171.39 193.131C171.414 193.103 171.434 193.078 171.454 193.054V193.05C171.535 192.953 171.611 192.857 171.692 192.756C171.732 192.707 171.769 192.659 171.809 192.61V192.606C172.047 192.308 172.277 192.009 172.507 191.703C172.567 191.622 172.628 191.537 172.692 191.453C172.983 191.061 173.265 190.662 173.54 190.263V190.259C173.645 190.109 173.745 189.956 173.85 189.807C173.951 189.654 174.052 189.5 174.153 189.347C174.254 189.186 174.358 189.028 174.459 188.867L174.471 188.843C174.572 188.69 174.673 188.528 174.77 188.371C174.847 188.242 174.923 188.117 175 187.992C175.048 187.907 175.101 187.822 175.149 187.734C175.168 187.706 175.186 187.678 175.202 187.649C175.315 187.451 175.427 187.254 175.54 187.056C175.674 186.826 175.803 186.592 175.932 186.358C175.98 186.261 176.033 186.164 176.085 186.068C176.105 186.035 176.121 186.003 176.137 185.971C176.198 185.858 176.258 185.741 176.315 185.624C176.375 185.511 176.436 185.394 176.496 185.277C176.553 185.164 176.613 185.047 176.67 184.93C176.714 184.841 176.755 184.752 176.799 184.664C176.802 184.657 176.806 184.65 176.811 184.644C176.831 184.599 176.851 184.559 176.868 184.519C176.873 184.512 176.877 184.506 176.88 184.498C176.924 184.41 176.964 184.317 177.009 184.228C177.065 184.111 177.118 183.99 177.174 183.873C177.21 183.792 177.251 183.708 177.287 183.623C177.34 183.506 177.396 183.389 177.444 183.268C177.501 183.147 177.553 183.026 177.606 182.901C177.621 182.871 177.634 182.84 177.646 182.808C177.674 182.752 177.695 182.695 177.719 182.639C177.783 182.489 177.848 182.336 177.908 182.187C177.981 182.018 178.049 181.844 178.114 181.675C178.179 181.517 178.239 181.356 178.3 181.195L178.324 181.138C179.264 178.663 179.977 176.107 180.454 173.502V173.498C180.723 172.011 180.915 170.511 181.031 169.004C181.035 168.919 181.043 168.839 181.047 168.758C181.119 167.738 181.152 166.713 181.152 165.684C181.152 165.228 181.143 164.777 181.131 164.325C180.85 154.876 177.48 145.78 171.539 138.427C171.41 138.266 171.281 138.105 171.148 137.943C171.014 137.782 170.877 137.625 170.744 137.467C166.322 132.289 160.745 128.222 154.463 125.594C148.18 122.966 141.368 121.851 134.576 122.339C127.784 122.827 121.201 124.904 115.359 128.403C109.517 131.901 104.578 136.724 100.942 142.481C100.744 142.796 100.546 143.115 100.357 143.433C100.163 143.756 99.9777 144.079 99.7921 144.406C96.1377 150.901 94.223 158.231 94.2334 165.684Z" fill="#F1F1F1"/>
<path d="M135.968 137.258C143.114 139.092 150.437 140.149 157.81 140.411C158.925 140.472 160.043 140.464 161.157 140.388C163.605 140.182 165.702 139.413 168.038 138.992C169.16 138.791 170.411 138.643 171.541 138.426C171.28 138.102 171.014 137.782 170.744 137.465C168.306 137.671 165.831 138.345 163.365 138.659C159.172 139.192 154.474 138.597 151.295 137.129C149.753 136.417 148.572 135.529 147.035 134.814C146.826 134.706 146.599 134.637 146.366 134.609C145.923 134.595 145.485 134.709 145.105 134.936C142.526 136.238 138.783 137.295 135.309 136.713C135.05 136.916 135.542 137.147 135.968 137.258Z" fill="#F2F6FA"/>
<path d="M120.594 141.839C120.562 141.834 120.53 141.829 120.498 141.824C120.632 141.741 120.758 141.646 120.874 141.54L120.594 141.839Z" fill="#F2F6FA"/>
<path d="M99.793 144.407C101.244 144.523 102.703 144.61 104.169 144.666C105.284 144.726 106.402 144.719 107.516 144.643C109.964 144.436 112.061 143.668 114.396 143.248C116.537 142.863 119.138 142.678 120.497 141.824C116.984 141.216 113.345 142.453 109.723 142.914C106.794 143.274 103.824 143.127 100.944 142.48C100.543 143.111 100.159 143.753 99.793 144.407Z" fill="#F2F6FA"/>
<path d="M117.348 204.09C117.695 204.28 118.046 204.461 118.397 204.635C118.522 204.695 118.651 204.756 118.776 204.82C118.881 204.869 118.986 204.921 119.091 204.97C119.123 204.986 119.151 204.998 119.18 205.014C119.268 205.054 119.353 205.095 119.442 205.135C119.539 205.179 119.635 205.224 119.728 205.268C119.837 205.316 119.942 205.365 120.051 205.409C120.454 205.591 120.862 205.764 121.269 205.93C122.729 206.528 124.221 207.045 125.739 207.479C125.807 207.499 125.88 207.519 125.952 207.539C126.602 207.721 127.255 207.886 127.913 208.035C129.063 208.302 130.223 208.519 131.394 208.689H131.402C131.543 208.709 131.681 208.729 131.822 208.749C131.834 208.749 131.846 208.753 131.862 208.753C131.862 208.757 131.862 208.757 131.866 208.753C132.019 208.774 132.177 208.794 132.33 208.814C132.34 208.817 132.351 208.818 132.362 208.818C132.508 208.838 132.657 208.854 132.802 208.87C132.959 208.886 133.117 208.903 133.274 208.919C133.395 208.931 133.516 208.943 133.637 208.955C133.647 208.959 133.658 208.96 133.669 208.959C133.778 208.967 133.887 208.979 133.996 208.987H134.012C134.105 208.995 134.202 209.003 134.295 209.012C135.42 209.1 136.549 209.141 137.695 209.141C138.933 209.141 140.164 209.092 141.378 208.987H141.39C141.652 208.963 141.91 208.939 142.169 208.915C142.237 208.907 142.302 208.903 142.37 208.895C142.382 208.895 142.399 208.891 142.411 208.891C142.431 208.886 142.451 208.886 142.475 208.882C142.486 208.883 142.497 208.882 142.507 208.878C142.596 208.87 142.685 208.858 142.778 208.85L143.08 208.814C143.181 208.802 143.282 208.786 143.383 208.774C143.407 208.769 143.427 208.77 143.451 208.765C143.524 208.757 143.597 208.745 143.669 208.733C143.706 208.729 143.742 208.725 143.774 208.721C143.847 208.709 143.915 208.701 143.988 208.689H143.992C146.206 208.37 148.391 207.878 150.527 207.216C150.64 207.18 150.753 207.148 150.866 207.112C150.345 204.683 149.273 202.406 147.732 200.457C146.191 198.508 144.223 196.94 141.979 195.873C142.534 195.345 142.918 194.662 143.08 193.913C143.185 193.43 143.193 192.931 143.105 192.445C143.016 191.959 142.832 191.496 142.564 191.081C142.041 190.277 141.219 189.714 140.281 189.516L134.303 188.265C133.34 188.078 132.343 188.278 131.527 188.821C130.711 189.365 130.143 190.209 129.946 191.17C129.885 191.464 129.858 191.765 129.865 192.065C124.109 195.897 119.966 199.871 117.348 204.09Z" fill="url(#paint0_linear_2_3994)"/>
<path d="M135 185.904C141.878 185.904 147.455 180.328 147.455 173.449C147.455 166.571 141.878 160.995 135 160.995C128.121 160.995 122.545 166.571 122.545 173.449C122.545 180.328 128.121 185.904 135 185.904Z" fill="#FFB8B8"/>
<path d="M127.237 184.188C125.909 183.28 124.552 181.537 123.647 180.23C122.447 178.513 121.622 176.562 121.224 174.505C120.826 172.448 120.865 170.331 121.338 168.29C121.489 167.474 121.859 166.714 122.41 166.093C122.996 165.513 123.955 165.237 124.67 165.648C124.475 165.125 124.389 164.567 124.418 164.009C124.446 163.451 124.589 162.905 124.836 162.405C125.34 161.405 126.069 160.537 126.966 159.868C128.682 158.547 130.724 157.715 132.875 157.46C135.025 157.206 137.205 157.538 139.182 158.422C139.96 158.783 138.682 155.998 139.497 156.267C140.306 156.58 141.205 156.564 142.002 156.223C142.768 155.837 145.307 158.128 145.013 157.322C145.594 157.586 146.099 157.993 146.481 158.504C146.863 159.016 147.109 159.616 147.196 160.248C147.284 160.881 147.21 161.525 146.981 162.121C146.753 162.717 146.377 163.245 145.889 163.657C145.246 164.2 144.444 164.512 143.74 164.973C142.507 165.84 141.634 167.129 141.286 168.596C140.938 170.063 141.14 171.607 141.852 172.936C141.112 172.46 140.299 172.107 139.446 171.89C139.018 171.786 138.572 171.785 138.143 171.888C137.715 171.991 137.317 172.195 136.984 172.482C136.705 172.801 136.494 173.174 136.365 173.578C136.235 173.981 136.19 174.407 136.231 174.828C136.259 175.674 136.46 176.506 136.482 177.352C136.548 179.832 137.877 184.548 135.954 185.867C134.436 186.907 129.05 185.426 127.237 184.188Z" fill="#2F2E41"/>
<path d="M143.564 111.11C143.302 111.109 143.042 111.056 142.8 110.955C142.439 110.81 142.13 110.559 141.914 110.236C141.698 109.912 141.585 109.531 141.589 109.142V107.17C141.588 106.757 141.424 106.36 141.131 106.068C140.839 105.776 140.443 105.611 140.029 105.611C139.509 105.61 139.01 105.403 138.642 105.035C138.274 104.667 138.066 104.168 138.066 103.647V76.6386C138.066 76.1181 138.273 75.6192 138.641 75.2511C139.009 74.8831 139.508 74.676 140.029 74.6754H229.511C230.032 74.676 230.531 74.883 230.899 75.2511C231.267 75.6191 231.474 76.1181 231.474 76.6386V103.647C231.474 104.168 231.267 104.667 230.899 105.035C230.531 105.403 230.032 105.61 229.511 105.611H150.505C150.3 105.61 150.097 105.65 149.908 105.729C149.719 105.807 149.547 105.922 149.402 106.067L144.94 110.53C144.761 110.713 144.547 110.858 144.31 110.958C144.074 111.057 143.821 111.109 143.564 111.11Z" fill="#F2F6FA"/>
<path d="M143.564 111.513C143.249 111.513 142.937 111.45 142.646 111.328C142.211 111.153 141.838 110.85 141.578 110.46C141.317 110.07 141.18 109.611 141.185 109.142V107.171C141.185 106.864 141.063 106.57 140.846 106.353C140.63 106.136 140.336 106.014 140.029 106.014C139.402 106.013 138.8 105.764 138.356 105.32C137.913 104.876 137.663 104.275 137.663 103.647V76.6385C137.663 76.0111 137.913 75.4096 138.356 74.9659C138.8 74.5223 139.402 74.2727 140.029 74.272H229.511C230.139 74.2727 230.74 74.5223 231.184 74.9659C231.628 75.4096 231.877 76.0111 231.878 76.6385V103.647C231.877 104.275 231.628 104.876 231.184 105.32C230.74 105.764 230.139 106.013 229.511 106.014H150.505C150.353 106.014 150.203 106.043 150.063 106.101C149.922 106.16 149.795 106.245 149.688 106.353L145.225 110.815C145.008 111.035 144.75 111.211 144.465 111.33C144.18 111.45 143.874 111.512 143.564 111.513ZM140.029 75.0788C139.615 75.0792 139.219 75.2437 138.927 75.5362C138.634 75.8286 138.47 76.225 138.469 76.6385V103.647C138.47 104.061 138.634 104.457 138.927 104.75C139.219 105.042 139.616 105.207 140.029 105.207C140.55 105.208 141.049 105.415 141.417 105.783C141.785 106.151 141.992 106.65 141.992 107.171V109.142C141.992 109.45 142.084 109.752 142.255 110.008C142.427 110.265 142.67 110.465 142.955 110.583C143.24 110.701 143.554 110.731 143.856 110.671C144.159 110.611 144.437 110.463 144.655 110.244L149.117 105.782C149.299 105.599 149.515 105.454 149.754 105.356C149.992 105.257 150.248 105.206 150.505 105.207H229.511C229.925 105.207 230.321 105.042 230.614 104.75C230.906 104.457 231.071 104.061 231.071 103.647V76.6385C231.071 76.225 230.906 75.8285 230.614 75.5361C230.321 75.2437 229.925 75.0792 229.511 75.0787L140.029 75.0788Z" fill="#3F3D56"/>
<path d="M221.821 86.9027H149.26C148.983 86.9027 148.717 86.7926 148.521 86.5966C148.325 86.4006 148.215 86.1348 148.215 85.8576C148.215 85.5804 148.325 85.3146 148.521 85.1186C148.717 84.9226 148.983 84.8125 149.26 84.8125H221.821C222.098 84.8125 222.364 84.9226 222.56 85.1186C222.756 85.3146 222.866 85.5804 222.866 85.8576C222.866 86.1348 222.756 86.4006 222.56 86.5966C222.364 86.7926 222.098 86.9027 221.821 86.9027Z" fill="url(#paint1_linear_2_3994)"/>
<path d="M221.688 91.3431H149.26C148.983 91.3431 148.717 91.233 148.521 91.037C148.325 90.841 148.215 90.5752 148.215 90.298C148.215 90.0209 148.325 89.755 148.521 89.559C148.717 89.363 148.983 89.2529 149.26 89.2529H221.688C221.965 89.2529 222.231 89.363 222.427 89.559C222.623 89.755 222.733 90.0209 222.733 90.298C222.733 90.5752 222.623 90.841 222.427 91.037C222.231 91.233 221.965 91.3431 221.688 91.3431Z" fill="#E6E6E6"/>
<path d="M221.616 95.7826H149.26C148.983 95.7826 148.717 95.6725 148.521 95.4765C148.325 95.2805 148.215 95.0147 148.215 94.7375C148.215 94.4603 148.325 94.1945 148.521 93.9985C148.717 93.8025 148.983 93.6924 149.26 93.6924H221.616C221.893 93.6924 222.159 93.8025 222.355 93.9985C222.551 94.1945 222.661 94.4603 222.661 94.7375C222.661 95.0147 222.551 95.2805 222.355 95.4765C222.159 95.6725 221.893 95.7826 221.616 95.7826Z" fill="#E6E6E6"/>
<path d="M336.09 70.4842C336.09 71.4644 336.058 72.4447 335.989 73.4168C335.917 74.5786 335.792 75.7323 335.622 76.8779C335.053 80.7353 333.965 84.498 332.387 88.0639C332.306 88.2414 332.226 88.4189 332.145 88.5964L332.024 88.8626C331.984 88.9513 331.939 89.0401 331.899 89.1248C331.843 89.2418 331.79 89.3547 331.734 89.4677C331.665 89.6089 331.596 89.75 331.524 89.8912C331.516 89.9074 331.508 89.9275 331.496 89.9477C331.435 90.0687 331.379 90.1857 331.314 90.3067C331.302 90.3331 331.289 90.3587 331.274 90.3834C331.205 90.5205 331.133 90.6617 331.06 90.7988C330.979 90.9441 330.903 91.0933 330.822 91.2385C330.628 91.5976 330.427 91.9525 330.221 92.3075C330.16 92.4124 330.1 92.5173 330.035 92.6222C329.979 92.719 329.922 92.8158 329.862 92.9126C329.822 92.9771 329.781 93.0457 329.741 93.1103C329.676 93.2192 329.612 93.3241 329.543 93.433C329.394 93.671 329.241 93.909 329.091 94.147H329.087C329.019 94.2559 328.946 94.3648 328.874 94.4697V94.4737C328.66 94.7964 328.438 95.1191 328.216 95.4378C328.216 95.4378 328.215 95.4379 328.215 95.4381C328.214 95.4383 328.214 95.4386 328.213 95.439C328.213 95.4393 328.213 95.4398 328.212 95.4403C328.212 95.4408 328.212 95.4413 328.212 95.4418C328.035 95.7 327.849 95.9501 327.667 96.2002V96.2042C327.546 96.3616 327.429 96.5229 327.308 96.6802C327.212 96.8093 327.111 96.9424 327.01 97.0715C326.99 97.0997 326.966 97.1239 326.945 97.1522V97.1562C326.917 97.1925 326.889 97.2248 326.861 97.2611C326.433 97.8097 325.992 98.3462 325.538 98.8706L325.465 98.9553C325.441 98.9836 325.413 99.0118 325.388 99.0441C325.348 99.0885 325.312 99.1328 325.271 99.1772C325.235 99.2216 325.195 99.2659 325.154 99.3103C322.785 101.979 320.099 104.348 317.155 106.366C316.764 106.636 316.365 106.898 315.965 107.152C315.864 107.217 315.763 107.281 315.663 107.342C315.634 107.362 315.602 107.382 315.574 107.402C315.517 107.435 315.465 107.467 315.409 107.503C315.356 107.535 315.304 107.568 315.247 107.6C315.033 107.733 314.816 107.862 314.598 107.991C314.545 108.024 314.489 108.056 314.432 108.088C314.38 108.116 314.323 108.149 314.267 108.181C314.267 108.185 314.267 108.185 314.263 108.185H314.259V108.189H314.255C313.985 108.346 313.71 108.5 313.432 108.649C313.283 108.729 313.129 108.814 312.976 108.891C312.629 109.08 312.278 109.262 311.927 109.435C311.802 109.496 311.673 109.556 311.548 109.621C311.443 109.669 311.338 109.722 311.233 109.77C311.201 109.786 311.173 109.798 311.145 109.815C311.056 109.855 310.971 109.895 310.882 109.936C310.786 109.98 310.689 110.024 310.596 110.069C310.487 110.117 310.382 110.166 310.273 110.21C309.87 110.391 309.463 110.565 309.055 110.73C307.595 111.329 306.103 111.846 304.586 112.279C304.517 112.299 304.444 112.32 304.372 112.34C303.722 112.521 303.069 112.687 302.411 112.836C301.262 113.102 300.101 113.32 298.93 113.489H298.922C298.781 113.51 298.644 113.53 298.502 113.55C298.49 113.55 298.478 113.554 298.462 113.554C298.462 113.558 298.462 113.558 298.458 113.554C298.305 113.574 298.148 113.594 297.994 113.614C297.984 113.618 297.973 113.619 297.962 113.619C297.817 113.639 297.667 113.655 297.522 113.671C297.365 113.687 297.208 113.703 297.05 113.719C296.929 113.731 296.808 113.744 296.687 113.756C296.677 113.759 296.666 113.761 296.655 113.76C296.546 113.768 296.437 113.78 296.328 113.788H296.312C296.219 113.796 296.122 113.804 296.03 113.812C294.904 113.901 293.775 113.941 292.629 113.941C291.391 113.941 290.16 113.893 288.946 113.788H288.934C288.672 113.764 288.414 113.74 288.156 113.715C288.087 113.707 288.022 113.703 287.954 113.695C287.942 113.695 287.926 113.691 287.914 113.691C287.893 113.687 287.873 113.687 287.849 113.683C287.838 113.683 287.827 113.682 287.817 113.679C287.728 113.671 287.639 113.659 287.546 113.651L287.244 113.614C287.143 113.602 287.042 113.586 286.941 113.574C286.917 113.57 286.897 113.57 286.873 113.566C286.8 113.558 286.728 113.546 286.655 113.534C286.619 113.53 286.582 113.526 286.55 113.522C286.477 113.51 286.409 113.502 286.336 113.489H286.332C284.119 113.171 281.934 112.678 279.797 112.017C279.684 111.981 279.571 111.948 279.459 111.912C279.454 111.912 279.45 111.908 279.446 111.908C279.414 111.896 279.378 111.888 279.346 111.876C279.043 111.779 278.745 111.678 278.446 111.573C278.035 111.436 277.627 111.287 277.22 111.134C277.111 111.089 277.002 111.049 276.893 111.005C276.671 110.92 276.453 110.831 276.235 110.742C275.864 110.593 275.493 110.436 275.126 110.274C274.783 110.121 274.444 109.968 274.106 109.807C274.097 109.802 274.085 109.803 274.077 109.794C274.001 109.758 273.924 109.722 273.851 109.685H273.847C271.99 108.794 270.198 107.771 268.486 106.624C267.938 106.257 267.397 105.878 266.865 105.486C266.437 105.168 266.018 104.845 265.598 104.514C263.528 102.868 261.613 101.037 259.874 99.0441V99.0401C259.749 98.9029 259.632 98.7617 259.511 98.6206C259.491 98.6004 259.475 98.5802 259.459 98.5641C259.382 98.4713 259.309 98.3826 259.233 98.2938V98.2898C259.132 98.1728 259.031 98.0518 258.934 97.9308C258.91 97.9025 258.89 97.8783 258.87 97.8541V97.8501C258.789 97.7533 258.712 97.6565 258.632 97.5556C258.591 97.5072 258.555 97.4588 258.515 97.4104V97.4063C258.277 97.1078 258.047 96.8093 257.817 96.5028C257.756 96.4221 257.696 96.3374 257.631 96.2527C257.341 95.8614 257.058 95.462 256.784 95.0627V95.0586C256.679 94.9094 256.578 94.7561 256.473 94.6068C256.373 94.4536 256.272 94.3003 256.171 94.147C256.07 93.9856 255.965 93.8283 255.864 93.667L255.852 93.6428C255.751 93.4895 255.651 93.3281 255.554 93.1708C255.477 93.0417 255.4 92.9166 255.324 92.7916C255.275 92.7069 255.223 92.6222 255.175 92.5334C255.156 92.5061 255.138 92.4779 255.122 92.4487C255.009 92.2511 254.896 92.0534 254.783 91.8558C254.65 91.6258 254.521 91.3919 254.392 91.1579C254.344 91.0611 254.291 90.9643 254.239 90.8675C254.219 90.8352 254.202 90.8029 254.186 90.7706C254.126 90.6577 254.065 90.5407 254.009 90.4237C253.948 90.3108 253.888 90.1938 253.827 90.0768C253.771 89.9639 253.71 89.8469 253.654 89.7299C253.609 89.6412 253.569 89.5524 253.525 89.4637C253.522 89.4564 253.518 89.4496 253.513 89.4435C253.492 89.3991 253.472 89.3588 253.456 89.3184C253.451 89.3123 253.447 89.3055 253.444 89.2983C253.4 89.2095 253.359 89.1167 253.315 89.028C253.258 88.911 253.206 88.79 253.15 88.673C253.113 88.5923 253.073 88.5076 253.037 88.4229C252.984 88.3059 252.928 88.189 252.879 88.0679C252.823 87.9469 252.77 87.8259 252.718 87.7009C252.703 87.6707 252.689 87.6397 252.678 87.6081C252.649 87.5516 252.629 87.4951 252.605 87.4387C252.54 87.2894 252.476 87.1361 252.415 86.9869C252.343 86.8174 252.274 86.644 252.21 86.4745C252.145 86.3172 252.085 86.1559 252.024 85.9945L252 85.938C251.06 83.4625 250.347 80.9066 249.87 78.3019V78.2979C249.601 76.8108 249.408 75.3109 249.293 73.8041C249.289 73.7194 249.281 73.6387 249.277 73.5581C249.204 72.5375 249.172 71.5129 249.172 70.4842C249.172 70.0284 249.18 69.5766 249.192 69.1248C249.474 59.676 252.843 50.5796 258.785 43.2273C258.914 43.0659 259.043 42.9046 259.176 42.7432C259.309 42.5819 259.446 42.4245 259.58 42.2672C264.002 37.0886 269.579 33.0214 275.861 30.3937C282.143 27.7659 288.955 26.651 295.747 27.1389C302.54 27.6268 309.122 29.7039 314.965 33.2026C320.807 36.7013 325.745 41.5238 329.382 47.2813C329.58 47.596 329.777 47.9147 329.967 48.2334C330.16 48.5561 330.346 48.8788 330.532 49.2055C334.186 55.7014 336.101 63.031 336.09 70.4842Z" fill="#F1F1F1"/>
<path d="M294.356 42.0589C287.21 43.8926 279.887 44.9496 272.513 45.2115C271.399 45.2722 270.281 45.2646 269.167 45.1887C266.719 44.9828 264.622 44.2133 262.286 43.7928C261.163 43.5913 259.913 43.4439 258.782 43.2261C259.044 42.902 259.31 42.582 259.58 42.2659C262.017 42.4718 264.493 43.1459 266.959 43.4591C271.152 43.9923 275.85 43.3973 279.029 41.9299C280.571 41.2179 281.752 40.3292 283.289 39.6139C283.498 39.5066 283.724 39.4373 283.958 39.4091C284.401 39.3958 284.838 39.5094 285.219 39.7364C287.797 41.038 291.541 42.0957 295.015 41.5137C295.274 41.7164 294.782 41.9472 294.356 42.0589Z" fill="#F2F6FA"/>
<path d="M309.732 46.6399C309.764 46.6341 309.796 46.6295 309.828 46.624C309.694 46.5411 309.568 46.4463 309.452 46.3406L309.732 46.6399Z" fill="#F2F6FA"/>
<path d="M330.531 49.207C329.08 49.323 327.621 49.4093 326.155 49.466C325.04 49.5262 323.922 49.5186 322.808 49.4433C320.36 49.2363 318.263 48.4679 315.928 48.0474C313.787 47.6627 311.186 47.4774 309.827 46.6234C313.34 46.0154 316.979 47.253 320.601 47.7136C323.53 48.0739 326.5 47.9272 329.38 47.2801C329.781 47.9109 330.165 48.5532 330.531 49.207Z" fill="#F2F6FA"/>
<path d="M287.73 89.5002C294.939 89.5002 300.783 83.526 300.783 76.1563C300.783 68.7867 294.939 62.8124 287.73 62.8124C280.521 62.8124 274.677 68.7867 274.677 76.1563C274.677 83.526 280.521 89.5002 287.73 89.5002Z" fill="#FFB6B6"/>
<path d="M312.976 108.891C312.629 109.08 312.278 109.262 311.927 109.435C311.802 109.496 311.673 109.556 311.548 109.621C311.443 109.669 311.338 109.722 311.233 109.77C311.201 109.786 311.172 109.798 311.144 109.814C311.055 109.855 310.971 109.895 310.882 109.935C310.785 109.98 310.688 110.024 310.596 110.069C310.487 110.117 310.382 110.165 310.273 110.21C309.869 110.391 309.462 110.565 309.055 110.73C307.595 111.329 306.102 111.846 304.585 112.279C304.517 112.299 304.444 112.319 304.371 112.34C303.722 112.521 303.068 112.687 302.411 112.836C301.261 113.102 300.101 113.32 298.93 113.489H298.921C298.78 113.509 298.643 113.53 298.502 113.55C298.49 113.55 298.478 113.554 298.462 113.554C298.462 113.558 298.462 113.558 298.458 113.554C298.304 113.574 298.147 113.594 297.994 113.614C297.983 113.617 297.972 113.619 297.961 113.618C297.816 113.639 297.667 113.655 297.522 113.671C297.364 113.687 297.207 113.703 297.05 113.719C296.929 113.731 296.808 113.743 296.687 113.755C296.676 113.759 296.665 113.76 296.654 113.76C296.546 113.768 296.437 113.78 296.328 113.788H296.312C296.219 113.796 296.122 113.804 296.029 113.812C294.904 113.901 293.774 113.941 292.629 113.941C291.39 113.941 290.16 113.893 288.946 113.788H288.934C288.671 113.764 288.413 113.739 288.155 113.715C288.086 113.707 288.022 113.703 287.953 113.695C287.941 113.695 287.925 113.691 287.913 113.691C287.893 113.687 287.873 113.687 287.848 113.683C287.838 113.683 287.827 113.682 287.816 113.679C287.727 113.671 287.639 113.659 287.546 113.651L287.243 113.614C287.143 113.602 287.042 113.586 286.941 113.574C286.917 113.57 286.896 113.57 286.872 113.566C286.8 113.558 286.727 113.546 286.654 113.534C286.618 113.53 286.582 113.526 286.55 113.522C286.477 113.509 286.408 113.501 286.336 113.489H286.332C284.118 113.171 281.933 112.678 279.797 112.017C279.684 111.981 279.571 111.948 279.458 111.912C279.979 109.483 281.051 107.206 282.592 105.257C284.133 103.309 286.101 101.74 288.345 100.674C287.79 100.145 287.406 99.4621 287.243 98.7131C287.139 98.2304 287.13 97.7317 287.219 97.2457C287.308 96.7598 287.491 96.2961 287.76 95.8814C288.283 95.0776 289.104 94.5146 290.043 94.3162L296.021 93.0657C296.983 92.8781 297.981 93.078 298.797 93.6218C299.613 94.1657 300.181 95.0096 300.378 95.9701C300.439 96.2646 300.466 96.565 300.458 96.8656C306.215 100.698 310.358 104.671 312.976 108.891Z" fill="url(#paint2_linear_2_3994)"/>
<path d="M322.658 70.3689C320.44 67.7815 319.385 64.3487 317.611 61.4106C315.837 58.4724 312.751 55.8427 309.49 56.5265C307.242 56.9979 305.505 58.9814 304.626 61.1928C303.746 63.4042 303.581 65.8428 303.427 68.2319C303.482 63.3222 300.247 58.5626 295.791 56.996C291.336 55.4294 286.003 57.1769 283.203 61.1212C281.982 59.9888 280.387 59.3439 278.721 59.309C277.056 59.274 275.435 59.8513 274.167 60.9315C271.663 63.1698 271.108 67.4301 272.95 70.2851C274.792 73.1401 278.781 74.2036 281.708 72.6202L282.742 73.5721C282.16 75.6092 283.289 78.0156 285.188 78.7825C286.728 79.4044 288.901 79.3009 289.478 80.9167C289.88 82.0456 289.128 83.2507 288.327 84.1183C287.527 84.9858 286.576 85.8817 286.48 87.0822C286.335 88.8936 288.207 90.1625 289.909 90.5447C294.012 91.4662 298.564 89.5662 300.929 85.9452C300.975 85.8754 301.024 85.8054 301.078 85.7354C302.404 84.0387 303.371 82.0892 303.919 80.0062C304.467 77.9232 304.585 75.7503 304.265 73.6203C304.132 72.7834 304.266 72.1609 304.843 71.9627C307.337 71.106 314.324 72.904 316.439 74.529C318.554 76.154 320.247 78.3045 322.284 80.0344C324.321 81.7643 326.917 83.0986 329.503 82.6275C331.574 82.2503 333.337 80.7464 334.522 78.9325C335.707 77.1186 336.389 75.0042 337 72.903C332.42 75.549 326.151 74.4414 322.658 70.3689Z" fill="#2F2E41"/>
<path d="M54.7027 43.457C54.7027 44.4372 54.735 45.4174 54.8035 46.3896C54.8761 47.5514 55.0012 48.7051 55.1706 49.8507C55.74 53.7081 56.8282 57.4708 58.4058 61.0367C58.4864 61.2141 58.5671 61.3916 58.6478 61.5691L58.7688 61.8354C58.8092 61.9241 58.8535 62.0129 58.8939 62.0976C58.9504 62.2145 59.0028 62.3275 59.0593 62.4404C59.1278 62.5816 59.1964 62.7228 59.269 62.864C59.2771 62.8801 59.2852 62.9003 59.2973 62.9205C59.3578 63.0415 59.4143 63.1585 59.4788 63.2795C59.4907 63.3058 59.5041 63.3314 59.5191 63.3561C59.5877 63.4933 59.6603 63.6345 59.7329 63.7716C59.8136 63.9169 59.8903 64.0661 59.9709 64.2113C60.1646 64.5703 60.3662 64.9253 60.572 65.2803C60.6325 65.3852 60.693 65.4901 60.7575 65.5949C60.814 65.6918 60.8705 65.7886 60.931 65.8854C60.9713 65.9499 61.0117 66.0185 61.052 66.083C61.1166 66.192 61.1811 66.2968 61.2497 66.4057C61.3989 66.6438 61.5522 66.8818 61.7015 67.1198H61.7055C61.7741 67.2287 61.8467 67.3376 61.9193 67.4425V67.4465C62.1331 67.7692 62.355 68.0919 62.5768 68.4106C62.5773 68.4106 62.5779 68.4107 62.5784 68.4109C62.5789 68.4111 62.5793 68.4114 62.5797 68.4117C62.5801 68.4121 62.5804 68.4126 62.5806 68.4131C62.5808 68.4135 62.5809 68.4141 62.5809 68.4146C62.7583 68.6728 62.9439 68.9229 63.1254 69.173V69.177C63.2464 69.3343 63.3634 69.4957 63.4844 69.653C63.5813 69.7821 63.6821 69.9152 63.7829 70.0443C63.8031 70.0725 63.8273 70.0967 63.8475 70.125V70.129C63.8757 70.1653 63.904 70.1976 63.9322 70.2339C64.3598 70.7825 64.8008 71.319 65.2553 71.8434L65.3279 71.9281C65.3521 71.9564 65.3804 71.9846 65.4046 72.0169C65.4449 72.0613 65.4812 72.1056 65.5215 72.15C65.5579 72.1944 65.5982 72.2387 65.6385 72.2831C68.0077 74.9518 70.694 77.3211 73.6377 79.3384C74.029 79.6086 74.4284 79.8708 74.8277 80.125C74.9286 80.1895 75.0294 80.2541 75.1303 80.3146C75.1585 80.3347 75.1908 80.3549 75.219 80.3751C75.2755 80.4073 75.3279 80.4396 75.3844 80.4759C75.4368 80.5082 75.4893 80.5405 75.5457 80.5727C75.7595 80.7059 75.9774 80.8349 76.1952 80.964C76.2477 80.9963 76.3041 81.0286 76.3606 81.0609C76.413 81.0891 76.4695 81.1214 76.526 81.1536C76.526 81.1577 76.526 81.1577 76.53 81.1577H76.5341V81.1617H76.5381C76.8084 81.319 77.0827 81.4723 77.361 81.6216C77.5103 81.7022 77.6635 81.7869 77.8168 81.8636C78.1637 82.0532 78.5147 82.2347 78.8656 82.4082C78.9907 82.4687 79.1198 82.5292 79.2448 82.5937C79.3497 82.6421 79.4546 82.6946 79.5595 82.743C79.5917 82.7591 79.62 82.7712 79.6482 82.7873C79.737 82.8277 79.8217 82.868 79.9104 82.9084C80.0072 82.9528 80.104 82.9971 80.1968 83.0415C80.3057 83.0899 80.4106 83.1383 80.5195 83.1827C80.9229 83.3642 81.3303 83.5376 81.7378 83.703C83.1978 84.3015 84.69 84.8187 86.2073 85.252C86.2759 85.2722 86.3485 85.2924 86.4211 85.3125C87.0706 85.4941 87.7241 85.6595 88.3816 85.8087C89.5312 86.075 90.6917 86.2928 91.8628 86.4622H91.8709C92.0121 86.4824 92.1492 86.5025 92.2904 86.5227C92.3025 86.5227 92.3146 86.5267 92.3308 86.5267C92.3308 86.5308 92.3308 86.5308 92.3348 86.5267C92.4881 86.5469 92.6454 86.5671 92.7987 86.5873C92.8092 86.5903 92.8201 86.5917 92.831 86.5913C92.9762 86.6115 93.1254 86.6276 93.2707 86.6437C93.428 86.6599 93.5853 86.676 93.7426 86.6921C93.8636 86.7042 93.9847 86.7163 94.1057 86.7284C94.116 86.732 94.127 86.7334 94.1379 86.7325C94.2469 86.7406 94.3558 86.7526 94.4647 86.7607H94.4808C94.5736 86.7688 94.6704 86.7768 94.7632 86.7849C95.8886 86.8737 97.0181 86.914 98.1638 86.914C99.4022 86.914 100.632 86.8656 101.847 86.7607H101.859C102.121 86.7365 102.379 86.7123 102.637 86.6881C102.706 86.68 102.77 86.676 102.839 86.6679C102.851 86.6679 102.867 86.6639 102.879 86.6639C102.9 86.6599 102.92 86.6599 102.944 86.6558C102.955 86.6563 102.966 86.6549 102.976 86.6518C103.065 86.6437 103.154 86.6316 103.246 86.6236L103.549 86.5873C103.65 86.5752 103.751 86.559 103.852 86.5469C103.876 86.5429 103.896 86.5429 103.92 86.5389C103.993 86.5308 104.065 86.5187 104.138 86.5066C104.174 86.5026 104.211 86.4985 104.243 86.4945C104.315 86.4824 104.384 86.4743 104.457 86.4622H104.461C106.674 86.1436 108.859 85.6513 110.996 84.9899C111.108 84.9536 111.221 84.9213 111.334 84.885C111.338 84.885 111.342 84.8809 111.346 84.8809C111.379 84.8688 111.415 84.8608 111.447 84.8487C111.75 84.7519 112.048 84.651 112.347 84.5461C112.758 84.409 113.166 84.2597 113.573 84.1064C113.682 84.0621 113.791 84.0217 113.9 83.9774C114.122 83.8926 114.34 83.8039 114.557 83.7152C114.929 83.5659 115.3 83.4086 115.667 83.2472C116.01 83.0939 116.349 82.9407 116.687 82.7793C116.695 82.7753 116.708 82.7753 116.716 82.7672C116.792 82.7309 116.869 82.6946 116.941 82.6583H116.946C118.803 81.7667 120.595 80.7436 122.307 79.5966C122.855 79.2295 123.396 78.8503 123.928 78.459C124.356 78.1403 124.775 77.8176 125.195 77.4868C127.264 75.8406 129.18 74.0097 130.919 72.0169V72.0129C131.044 71.8757 131.161 71.7345 131.282 71.5933C131.302 71.5732 131.318 71.553 131.334 71.5369C131.411 71.4441 131.484 71.3553 131.56 71.2666V71.2626C131.661 71.1456 131.762 71.0246 131.859 70.9035C131.883 70.8753 131.903 70.8511 131.923 70.8269V70.8229C132.004 70.726 132.081 70.6292 132.161 70.5284C132.202 70.48 132.238 70.4316 132.278 70.3832V70.3791C132.516 70.0806 132.746 69.7821 132.976 69.4755C133.037 69.3949 133.097 69.3102 133.162 69.2254C133.452 68.8342 133.735 68.4348 134.009 68.0354V68.0314C134.114 67.8822 134.215 67.7289 134.319 67.5796C134.42 67.4263 134.521 67.2731 134.622 67.1198C134.723 66.9584 134.828 66.8011 134.929 66.6397L134.941 66.6155C135.042 66.4623 135.142 66.3009 135.239 66.1435C135.316 66.0145 135.392 65.8894 135.469 65.7644C135.518 65.6797 135.57 65.595 135.618 65.5062C135.637 65.4789 135.655 65.4506 135.671 65.4215C135.784 65.2238 135.897 65.0262 136.01 64.8285C136.143 64.5986 136.272 64.3646 136.401 64.1307C136.449 64.0339 136.502 63.937 136.554 63.8402C136.574 63.808 136.591 63.7757 136.607 63.7434C136.667 63.6305 136.728 63.5135 136.784 63.3965C136.845 63.2836 136.905 63.1666 136.966 63.0496C137.022 62.9366 137.083 62.8197 137.139 62.7027C137.184 62.6139 137.224 62.5252 137.268 62.4364C137.271 62.4292 137.275 62.4224 137.28 62.4163C137.3 62.3719 137.321 62.3316 137.337 62.2912C137.342 62.2851 137.346 62.2783 137.349 62.271C137.393 62.1823 137.434 62.0895 137.478 62.0008C137.534 61.8838 137.587 61.7628 137.643 61.6458C137.68 61.5651 137.72 61.4804 137.756 61.3957C137.809 61.2787 137.865 61.1617 137.914 61.0407C137.97 60.9197 138.023 60.7987 138.075 60.6736C138.09 60.6435 138.104 60.6125 138.115 60.5808C138.144 60.5244 138.164 60.4679 138.188 60.4114C138.252 60.2622 138.317 60.1089 138.378 59.9596C138.45 59.7902 138.519 59.6167 138.583 59.4473C138.648 59.29 138.708 59.1286 138.769 58.9673L138.793 58.9108C139.733 56.4352 140.446 53.8793 140.923 51.2747V51.2706C141.192 49.7836 141.385 48.2837 141.5 46.7769C141.504 46.6922 141.512 46.6115 141.516 46.5308C141.589 45.5103 141.621 44.4857 141.621 43.457C141.621 43.0012 141.613 42.5494 141.601 42.0976C141.319 32.6488 137.95 23.5524 132.008 16.2001C131.879 16.0387 131.75 15.8773 131.617 15.716C131.484 15.5546 131.346 15.3973 131.213 15.24C126.791 10.0614 121.214 5.99421 114.932 3.36644C108.65 0.738669 101.838 -0.376196 95.0454 0.111715C88.2531 0.599625 81.6705 2.67665 75.8283 6.17537C69.986 9.67409 65.0475 14.4966 61.411 20.2541C61.2134 20.5687 61.0157 20.8874 60.8261 21.2061C60.6325 21.5288 60.4469 21.8515 60.2614 22.1783C56.6069 28.6741 54.6922 36.0037 54.7027 43.457Z" fill="#F1F1F1"/>
<path d="M96.4364 15.0315C103.583 16.8652 110.906 17.9222 118.279 18.1841C119.394 18.2449 120.512 18.2373 121.626 18.1614C124.074 17.9555 126.171 17.186 128.506 16.7655C129.629 16.5639 130.88 16.4165 132.01 16.1987C131.749 15.8747 131.483 15.5546 131.213 15.2385C128.775 15.4444 126.3 16.1185 123.833 16.4317C119.64 16.9649 114.942 16.3699 111.764 14.9026C110.222 14.1905 109.04 13.3019 107.504 12.5866C107.295 12.4793 107.068 12.41 106.835 12.3818C106.392 12.3685 105.954 12.482 105.573 12.7091C102.995 14.0106 99.252 15.0684 95.7775 14.4864C95.5185 14.6891 96.0105 14.9199 96.4364 15.0315Z" fill="#F2F6FA"/>
<path d="M81.0613 19.6125C81.0295 19.6067 80.9976 19.6022 80.9658 19.5967C81.0996 19.5138 81.2255 19.4189 81.3421 19.3132L81.0613 19.6125Z" fill="#F2F6FA"/>
<path d="M60.2622 22.1798C61.7133 22.2958 63.172 22.3821 64.6383 22.4388C65.7533 22.499 66.8709 22.4914 67.9849 22.4161C70.4331 22.2091 72.5301 21.4407 74.8656 21.0202C77.006 20.6355 79.607 20.4502 80.966 19.5962C77.4536 18.9882 73.8144 20.2258 70.1925 20.6864C67.2629 21.0467 64.293 20.9 61.4131 20.2529C61.0122 20.8837 60.6285 21.526 60.2622 22.1798Z" fill="#F2F6FA"/>
<path d="M77.8164 81.8634C78.1633 82.053 78.5143 82.2345 78.8652 82.408C78.9903 82.4685 79.1194 82.529 79.2444 82.5935C79.3493 82.6419 79.4542 82.6944 79.559 82.7428C79.5913 82.7589 79.6196 82.771 79.6478 82.7872C79.7365 82.8275 79.8212 82.8678 79.91 82.9082C80.0068 82.9526 80.1036 82.9969 80.1964 83.0413C80.3053 83.0897 80.4102 83.1381 80.5191 83.1825C80.9225 83.364 81.3299 83.5375 81.7373 83.7029C83.1974 84.3014 84.6896 84.8185 86.2069 85.2519C86.2755 85.272 86.3481 85.2922 86.4207 85.3124C87.0702 85.4939 87.7237 85.6593 88.3812 85.8085C89.5308 86.0748 90.6912 86.2926 91.8624 86.462H91.8705C92.0117 86.4822 92.1488 86.5024 92.29 86.5225C92.3021 86.5225 92.3142 86.5266 92.3304 86.5266C92.3304 86.5306 92.3303 86.5306 92.3344 86.5266C92.4877 86.5467 92.645 86.5669 92.7983 86.5871C92.8087 86.5902 92.8196 86.5915 92.8305 86.5911C92.9758 86.6113 93.125 86.6274 93.2702 86.6436C93.4275 86.6597 93.5849 86.6758 93.7422 86.692C93.8632 86.7041 93.9842 86.7162 94.1053 86.7283C94.1156 86.7318 94.1266 86.7332 94.1375 86.7323C94.2464 86.7404 94.3554 86.7525 94.4643 86.7605H94.4804C94.5732 86.7686 94.67 86.7767 94.7628 86.7848C95.8882 86.8735 97.0177 86.9138 98.1633 86.9138C99.4017 86.9138 100.632 86.8654 101.846 86.7605H101.858C102.121 86.7363 102.379 86.7121 102.637 86.6879C102.705 86.6799 102.77 86.6758 102.839 86.6678C102.851 86.6678 102.867 86.6637 102.879 86.6637C102.899 86.6597 102.919 86.6597 102.943 86.6557C102.954 86.6561 102.965 86.6547 102.976 86.6516C103.065 86.6436 103.153 86.6315 103.246 86.6234L103.549 86.5871C103.649 86.575 103.75 86.5588 103.851 86.5467C103.875 86.5427 103.895 86.5427 103.92 86.5387C103.992 86.5306 104.065 86.5185 104.138 86.5064C104.174 86.5024 104.21 86.4984 104.242 86.4943C104.315 86.4822 104.384 86.4742 104.456 86.462H104.46C106.674 86.1434 108.859 85.6511 110.995 84.9897C111.108 84.9534 111.221 84.9211 111.334 84.8848C110.813 82.4557 109.741 80.1789 108.2 78.2303C106.659 76.2816 104.691 74.7133 102.447 73.6464C103.002 73.1178 103.386 72.4348 103.549 71.6859C103.653 71.2032 103.662 70.7045 103.573 70.2185C103.484 69.7325 103.301 69.2689 103.032 68.8541C102.509 68.0504 101.688 67.4874 100.749 67.289L94.7708 66.0385C93.8085 65.8509 92.811 66.0507 91.9951 66.5946C91.1793 67.1385 90.6112 67.9824 90.4143 68.9429C90.3533 69.2373 90.3262 69.5378 90.3336 69.8384C84.5772 73.6706 80.4344 77.6439 77.8164 81.8634Z" fill="url(#paint3_linear_2_3994)"/>
<path d="M101.467 62.0031C109.503 62.0031 116.018 55.4882 116.018 47.4516C116.018 39.4151 109.503 32.9001 101.467 32.9001C93.43 32.9001 86.915 39.4151 86.915 47.4516C86.915 55.4882 93.43 62.0031 101.467 62.0031Z" fill="#9E616A"/>
<path d="M99.399 61.2256C95.7561 62.2095 91.7398 60.9014 88.8968 58.4201C86.0539 55.9388 84.2755 52.4229 83.2508 48.7912C82.5003 46.1315 82.1445 43.179 83.3288 40.682C84.513 38.185 87.7003 36.5003 90.1593 37.7616C88.6424 35.9943 89.4002 33.0711 91.1719 31.5592C92.9436 30.0473 95.3763 29.6138 97.6934 29.3769C101.056 29.033 104.529 28.9945 107.729 30.0839C110.929 31.1733 113.836 33.555 114.838 36.7834C115.861 37.2596 117.012 37.3832 118.113 37.1347C119.213 36.8862 120.2 36.2798 120.919 35.4103C121.105 36.4089 120.956 37.4407 120.496 38.3462C120.036 39.2516 119.29 39.9802 118.374 40.4192L123.277 38.8297C124.12 40.6144 122.643 42.8233 120.753 43.3948C118.864 43.9663 116.825 43.3416 115.032 42.5159C113.239 41.6902 111.501 40.6463 109.554 40.3243C107.607 40.0023 105.319 40.628 104.418 42.3844C103.947 43.3043 103.922 44.3816 103.648 45.3785C103.374 46.3754 102.68 47.409 101.65 47.4905C100.998 47.5421 100.361 47.1953 99.7116 47.2662C99.3131 47.3446 98.9462 47.5376 98.6557 47.8214C98.3652 48.1052 98.1638 48.4676 98.0761 48.8642C97.9144 49.6599 97.9124 50.4799 98.0703 51.2764L99.3156 60.7956L99.399 61.2256Z" fill="#2F2E41"/>
<defs>
<linearGradient id="paint0_linear_2_3994" x1="134.107" y1="188.197" x2="134.107" y2="209.141" gradientUnits="userSpaceOnUse">
<stop stop-color="#FF5B3C"/>
<stop offset="1" stop-color="#FF3061"/>
</linearGradient>
<linearGradient id="paint1_linear_2_3994" x1="185.541" y1="84.8125" x2="185.541" y2="86.9027" gradientUnits="userSpaceOnUse">
<stop stop-color="#FF5B3C"/>
<stop offset="1" stop-color="#FF3061"/>
</linearGradient>
<linearGradient id="paint2_linear_2_3994" x1="296.217" y1="92.9969" x2="296.217" y2="113.941" gradientUnits="userSpaceOnUse">
<stop stop-color="#FF593E"/>
<stop offset="0.921875" stop-color="#FF3061"/>
</linearGradient>
<linearGradient id="paint3_linear_2_3994" x1="94.5752" y1="65.9697" x2="94.5752" y2="86.9138" gradientUnits="userSpaceOnUse">
<stop stop-color="#FF3E55"/>
<stop offset="1" stop-color="#FF3D56"/>
</linearGradient>
</defs>
</svg>
