<svg width="25" height="25" viewBox="0 0 25 25" fill="none" xmlns="http://www.w3.org/2000/svg">
<circle cx="12.5" cy="12.5" r="12.5" fill="url(#paint0_linear_238_2550)"/>
<path d="M5.41602 17.4583V16.0417H12.4993V17.4583H5.41602ZM5.41602 13.9167V12.5H8.95768V13.9167H5.41602ZM5.41602 10.375V8.95833H8.95768V10.375H5.41602ZM18.591 17.4583L15.8639 14.7312C15.5806 14.9319 15.2707 15.0825 14.9342 15.1828C14.5978 15.2832 14.2584 15.3333 13.916 15.3333C12.9362 15.3333 12.1009 14.988 11.4103 14.2974C10.7197 13.6068 10.3743 12.7715 10.3743 11.7917C10.3743 10.8118 10.7197 9.97656 11.4103 9.28594C12.1009 8.59531 12.9362 8.25 13.916 8.25C14.8959 8.25 15.7311 8.59531 16.4217 9.28594C17.1124 9.97656 17.4577 10.8118 17.4577 11.7917C17.4577 12.134 17.4075 12.4734 17.3072 12.8099C17.2068 13.1464 17.0563 13.4563 16.8556 13.7396L19.5827 16.4667L18.591 17.4583ZM13.916 13.9167C14.5063 13.9167 15.008 13.7101 15.4212 13.2969C15.8344 12.8837 16.041 12.3819 16.041 11.7917C16.041 11.2014 15.8344 10.6997 15.4212 10.2865C15.008 9.87326 14.5063 9.66667 13.916 9.66667C13.3257 9.66667 12.824 9.87326 12.4108 10.2865C11.9976 10.6997 11.791 11.2014 11.791 11.7917C11.791 12.3819 11.9976 12.8837 12.4108 13.2969C12.824 13.7101 13.3257 13.9167 13.916 13.9167Z" fill="white"/>
<defs>
<linearGradient id="paint0_linear_238_2550" x1="0.520833" y1="12.2882" x2="24.1458" y2="12.5966" gradientUnits="userSpaceOnUse">
<stop stop-color="#FF5C3C"/>
<stop offset="1" stop-color="#FF2F63"/>
</linearGradient>
</defs>
</svg>
