<svg width="30" height="30" viewBox="0 0 30 30" fill="none" xmlns="http://www.w3.org/2000/svg">
<rect x="0.5" y="0.5" width="29" height="29" rx="14.5" fill="white" stroke="#E8E6EA"/>
<path d="M15.0002 19.6668C14.6793 19.6668 14.4047 19.5526 14.1762 19.3241C13.9477 19.0956 13.8335 18.821 13.8335 18.5002C13.8335 18.1793 13.9477 17.9047 14.1762 17.6762C14.4047 17.4477 14.6793 17.3335 15.0002 17.3335C15.321 17.3335 15.5956 17.4477 15.8241 17.6762C16.0526 17.9047 16.1668 18.1793 16.1668 18.5002C16.1668 18.821 16.0526 19.0956 15.8241 19.3241C15.5956 19.5526 15.321 19.6668 15.0002 19.6668ZM15.0002 16.1668C14.6793 16.1668 14.4047 16.0526 14.1762 15.8241C13.9477 15.5956 13.8335 15.321 13.8335 15.0002C13.8335 14.6793 13.9477 14.4047 14.1762 14.1762C14.4047 13.9477 14.6793 13.8335 15.0002 13.8335C15.321 13.8335 15.5956 13.9477 15.8241 14.1762C16.0526 14.4047 16.1668 14.6793 16.1668 15.0002C16.1668 15.321 16.0526 15.5956 15.8241 15.8241C15.5956 16.0526 15.321 16.1668 15.0002 16.1668ZM15.0002 12.6668C14.6793 12.6668 14.4047 12.5526 14.1762 12.3241C13.9477 12.0956 13.8335 11.821 13.8335 11.5002C13.8335 11.1793 13.9477 10.9047 14.1762 10.6762C14.4047 10.4477 14.6793 10.3335 15.0002 10.3335C15.321 10.3335 15.5956 10.4477 15.8241 10.6762C16.0526 10.9047 16.1668 11.1793 16.1668 11.5002C16.1668 11.821 16.0526 12.0956 15.8241 12.3241C15.5956 12.5526 15.321 12.6668 15.0002 12.6668Z" fill="url(#paint0_linear_465_1196)"/>
<defs>
<linearGradient id="paint0_linear_465_1196" x1="15.0002" y1="10.3335" x2="15.0002" y2="19.6668" gradientUnits="userSpaceOnUse">
<stop stop-color="#FF5A3D"/>
<stop offset="1" stop-color="#FF2F63"/>
</linearGradient>
</defs>
</svg>
