<svg width="24" height="26" viewBox="0 0 24 26" fill="none" xmlns="http://www.w3.org/2000/svg">
<path d="M7.33476 22.7527C7.87598 22.6252 11.1827 22.5811 11.7269 22.6942C12.1922 22.8003 12.697 23.056 12.704 23.629C12.6836 24.1748 12.3842 24.6624 11.966 24.9751C11.4245 25.4293 10.786 25.7208 10.1161 25.8318C9.7456 25.8871 9.38095 25.8931 9.02214 25.8463C8.34876 25.7533 7.70339 25.4788 7.15205 25.0381C6.72542 24.7377 6.41423 24.2583 6.38065 23.7132C6.3737 23.1403 6.8722 22.8712 7.33476 22.7527ZM9.35727 3.1222C11.6154 3.09213 13.9356 4.18435 15.3284 6.02927C16.2319 7.21715 16.6543 8.41029 16.6769 10.2735L16.6828 10.7582C16.7001 12.187 17.0706 13.0245 17.8754 13.9844C18.485 14.6915 18.6882 15.6067 18.7002 16.6025C18.7123 17.5971 18.4119 18.5454 17.7966 19.3203C16.9899 20.2502 15.8437 20.8522 14.6679 20.9699C12.964 21.145 11.2588 21.2961 9.52933 21.3191C7.79881 21.3422 6.09217 21.2881 4.38398 21.1068C3.20461 21.0206 2.04417 20.4492 1.21632 19.5411C0.582349 18.7829 0.258027 17.8428 0.245968 16.8482C0.233896 15.8525 0.415888 14.9321 1.00708 14.2091C1.8131 13.2276 2.1395 12.3809 2.12218 10.9521L2.1163 10.4674C2.0931 8.55378 2.53322 7.29643 3.45592 6.05902C4.82817 4.25406 7.04955 3.15293 9.26018 3.12349L9.35727 3.1222Z" fill="url(#paint0_linear_136_3994)"/>
<path d="M17.1012 12.0854C20.0278 12.0854 22.4134 9.72298 22.4134 6.79268C22.4134 3.86238 20.0278 1.5 17.1012 1.5C14.1746 1.5 11.7891 3.86238 11.7891 6.79268C11.7891 9.72298 14.1746 12.0854 17.1012 12.0854Z" fill="url(#paint1_linear_136_3994)" stroke="#FAFEFF" stroke-width="3"/>
<defs>
<linearGradient id="paint0_linear_136_3994" x1="9.30819" y1="3.12285" x2="9.6112" y2="25.8767" gradientUnits="userSpaceOnUse">
<stop stop-color="#FF5A3D"/>
<stop offset="1" stop-color="#FF2F63"/>
</linearGradient>
<linearGradient id="paint1_linear_136_3994" x1="17.1012" y1="3" x2="17.1012" y2="10.5854" gradientUnits="userSpaceOnUse">
<stop stop-color="#FF5A3D"/>
<stop offset="1" stop-color="#FF2F63"/>
</linearGradient>
</defs>
</svg>
