<svg width="25" height="25" viewBox="0 0 25 25" fill="none" xmlns="http://www.w3.org/2000/svg">
<circle cx="12.5" cy="12.5" r="12.5" fill="url(#paint0_linear_200_2293)"/>
<path d="M6.83398 17.4583V16.0416H8.25065V11.0833C8.25065 10.1034 8.54579 9.23277 9.13607 8.47131C9.72635 7.70986 10.4937 7.21107 11.4382 6.97496V6.47913C11.4382 6.18399 11.5414 5.93312 11.748 5.72652C11.9546 5.51992 12.2055 5.41663 12.5007 5.41663C12.7958 5.41663 13.0467 5.51992 13.2533 5.72652C13.4599 5.93312 13.5632 6.18399 13.5632 6.47913V6.97496C14.5076 7.21107 15.275 7.70986 15.8652 8.47131C16.4555 9.23277 16.7507 10.1034 16.7507 11.0833V16.0416H18.1673V17.4583H6.83398ZM12.5007 19.5833C12.1111 19.5833 11.7776 19.4446 11.5001 19.1671C11.2227 18.8897 11.084 18.5562 11.084 18.1666H13.9173C13.9173 18.5562 13.7786 18.8897 13.5012 19.1671C13.2237 19.4446 12.8902 19.5833 12.5007 19.5833ZM9.66732 16.0416H15.334V11.0833C15.334 10.3041 15.0566 9.63711 14.5017 9.08225C13.9468 8.52739 13.2798 8.24996 12.5007 8.24996C11.7215 8.24996 11.0545 8.52739 10.4996 9.08225C9.94475 9.63711 9.66732 10.3041 9.66732 11.0833V16.0416Z" fill="white"/>
<defs>
<linearGradient id="paint0_linear_200_2293" x1="0.520833" y1="12.2882" x2="24.1458" y2="12.5966" gradientUnits="userSpaceOnUse">
<stop stop-color="#FF5C3C"/>
<stop offset="1" stop-color="#FF2F63"/>
</linearGradient>
</defs>
</svg>
