<svg width="25" height="25" viewBox="0 0 25 25" fill="none" xmlns="http://www.w3.org/2000/svg">
<circle cx="12.5" cy="12.5" r="12.5" fill="url(#paint0_linear_238_2567)"/>
<path d="M18.1673 11.7917C17.9666 11.7917 17.7984 11.7238 17.6626 11.588C17.5269 11.4523 17.459 11.284 17.459 11.0833C17.459 10.8826 17.5269 10.7144 17.6626 10.5786C17.7984 10.4429 17.9666 10.375 18.1673 10.375C18.368 10.375 18.5362 10.4429 18.672 10.5786C18.8078 10.7144 18.8757 10.8826 18.8757 11.0833C18.8757 11.284 18.8078 11.4523 18.672 11.588C18.5362 11.7238 18.368 11.7917 18.1673 11.7917ZM17.459 9.66667V6.125H18.8757V9.66667H17.459ZM10.3757 12.5C9.59648 12.5 8.92947 12.2226 8.37461 11.6677C7.81975 11.1128 7.54232 10.4458 7.54232 9.66667C7.54232 8.8875 7.81975 8.22049 8.37461 7.66562C8.92947 7.11076 9.59648 6.83333 10.3757 6.83333C11.1548 6.83333 11.8218 7.11076 12.3767 7.66562C12.9316 8.22049 13.209 8.8875 13.209 9.66667C13.209 10.4458 12.9316 11.1128 12.3767 11.6677C11.8218 12.2226 11.1548 12.5 10.3757 12.5ZM4.70898 18.1667V16.1833C4.70898 15.7819 4.81228 15.413 5.01888 15.0766C5.22548 14.7401 5.49996 14.4833 5.84232 14.3062C6.57426 13.9403 7.31801 13.6658 8.07357 13.4828C8.82912 13.2998 9.59648 13.2083 10.3757 13.2083C11.1548 13.2083 11.9222 13.2998 12.6777 13.4828C13.4333 13.6658 14.177 13.9403 14.909 14.3062C15.2513 14.4833 15.5258 14.7401 15.7324 15.0766C15.939 15.413 16.0423 15.7819 16.0423 16.1833V18.1667H4.70898ZM6.12565 16.75H14.6257V16.1833C14.6257 16.0535 14.5932 15.9354 14.5283 15.8292C14.4633 15.7229 14.3777 15.6403 14.2715 15.5813C13.634 15.2625 12.9906 15.0234 12.3413 14.8641C11.692 14.7047 11.0368 14.625 10.3757 14.625C9.71454 14.625 9.05933 14.7047 8.41003 14.8641C7.76072 15.0234 7.11732 15.2625 6.47982 15.5813C6.37357 15.6403 6.28798 15.7229 6.22305 15.8292C6.15812 15.9354 6.12565 16.0535 6.12565 16.1833V16.75ZM10.3757 11.0833C10.7652 11.0833 11.0987 10.9446 11.3762 10.6672C11.6536 10.3898 11.7923 10.0562 11.7923 9.66667C11.7923 9.27708 11.6536 8.94358 11.3762 8.66615C11.0987 8.38872 10.7652 8.25 10.3757 8.25C9.98607 8.25 9.65256 8.38872 9.37513 8.66615C9.0977 8.94358 8.95898 9.27708 8.95898 9.66667C8.95898 10.0562 9.0977 10.3898 9.37513 10.6672C9.65256 10.9446 9.98607 11.0833 10.3757 11.0833Z" fill="white"/>
<defs>
<linearGradient id="paint0_linear_238_2567" x1="0.520833" y1="12.2882" x2="24.1458" y2="12.5966" gradientUnits="userSpaceOnUse">
<stop stop-color="#FF5C3C"/>
<stop offset="1" stop-color="#FF2F63"/>
</linearGradient>
</defs>
</svg>
