<svg width="18" height="15" viewBox="0 0 18 15" fill="none" xmlns="http://www.w3.org/2000/svg">
<path fill-rule="evenodd" clip-rule="evenodd" d="M9.00053 2.00038C5.29865 2.00052 1.88265 4.00343 0.0679106 7.23692H0.0680583C-0.0226368 7.39829 -0.0226368 7.59548 0.0677629 7.75701C1.8808 10.9933 5.29718 12.9985 9.00039 13V12.9999H9.00098C12.7029 12.9985 16.1185 10.9944 17.9321 7.7599C18.0226 7.59853 18.0226 7.40134 17.9321 7.23996C16.1185 4.00548 12.7027 2.00189 9.00098 2H9.00053V2.00038ZM9.00039 3.06156C12.2215 3.06274 15.1967 4.75149 16.8572 7.50032C15.1964 10.2489 12.2215 11.9372 9.00076 11.9387C5.77867 11.9375 2.80253 10.2476 1.14208 7.49729C2.80386 4.74959 5.77932 3.06156 9.00001 3.06156H9.00039ZM8.99994 4.28335C7.23357 4.28335 5.79026 5.72989 5.79026 7.50021C5.79026 9.27037 7.23357 10.7169 8.99994 10.7169C10.7662 10.7169 12.2095 9.27037 12.2095 7.50021C12.2095 5.72989 10.7662 4.28335 8.99994 4.28335ZM8.99994 5.34453C10.1939 5.34453 11.1505 6.30327 11.1505 7.50006C11.1505 8.69669 10.1939 9.65543 8.99994 9.65543C7.80583 9.65543 6.84922 8.69669 6.84922 7.50006C6.84922 6.30327 7.80583 5.34453 8.99994 5.34453Z" fill="#777777"/>
<line x1="16.3536" y1="0.353553" x2="2.35355" y2="14.3536" stroke="#777777"/>
</svg>
