<svg width="18" height="11" viewBox="0 0 18 11" fill="none" xmlns="http://www.w3.org/2000/svg">
<path fill-rule="evenodd" clip-rule="evenodd" d="M9.00053 0.000375893C5.29865 0.000523966 1.88265 2.00343 0.0679106 5.23692H0.0680583C-0.0226368 5.39829 -0.0226368 5.59548 0.0677629 5.75701C1.8808 8.99327 5.29718 10.9985 9.00039 11V10.9999H9.00098C12.7029 10.9985 16.1185 8.99445 17.9321 5.7599C18.0226 5.59853 18.0226 5.40134 17.9321 5.23996C16.1185 2.00548 12.7027 0.00189496 9.00098 0H9.00053V0.000375893ZM9.00039 1.06156C12.2215 1.06274 15.1967 2.75149 16.8572 5.50032C15.1964 8.24889 12.2215 9.93719 9.00076 9.93871C5.77867 9.93752 2.80253 8.2476 1.14208 5.49729C2.80386 2.74959 5.77932 1.06156 9.00001 1.06156H9.00039ZM8.99994 2.28335C7.23357 2.28335 5.79026 3.72989 5.79026 5.50021C5.79026 7.27037 7.23357 8.71691 8.99994 8.71691C10.7662 8.71691 12.2095 7.27037 12.2095 5.50021C12.2095 3.72989 10.7662 2.28335 8.99994 2.28335ZM8.99994 3.34453C10.1939 3.34453 11.1505 4.30327 11.1505 5.50006C11.1505 6.69669 10.1939 7.65543 8.99994 7.65543C7.80583 7.65543 6.84922 6.69669 6.84922 5.50006C6.84922 4.30327 7.80583 3.34453 8.99994 3.34453Z" fill="#777777"/>
</svg>
