<svg width="25" height="25" viewBox="0 0 25 25" fill="none" xmlns="http://www.w3.org/2000/svg">
<circle cx="12.5" cy="12.5" r="12.5" fill="url(#paint0_linear_238_2556)"/>
<path d="M7.18685 12.5886C6.69102 12.5886 6.27192 12.4174 5.92956 12.0751C5.5872 11.7327 5.41602 11.3136 5.41602 10.8178C5.41602 10.322 5.5872 9.90286 5.92956 9.5605C6.27192 9.21814 6.69102 9.04696 7.18685 9.04696C7.68268 9.04696 8.10178 9.21814 8.44414 9.5605C8.7865 9.90286 8.95768 10.322 8.95768 10.8178C8.95768 11.3136 8.7865 11.7327 8.44414 12.0751C8.10178 12.4174 7.68268 12.5886 7.18685 12.5886ZM10.3743 9.75529C9.87852 9.75529 9.45942 9.58411 9.11706 9.24175C8.7747 8.89939 8.60352 8.48029 8.60352 7.98446C8.60352 7.48862 8.7747 7.06953 9.11706 6.72716C9.45942 6.3848 9.87852 6.21362 10.3743 6.21362C10.8702 6.21362 11.2893 6.3848 11.6316 6.72716C11.974 7.06953 12.1452 7.48862 12.1452 7.98446C12.1452 8.48029 11.974 8.89939 11.6316 9.24175C11.2893 9.58411 10.8702 9.75529 10.3743 9.75529ZM14.6243 9.75529C14.1285 9.75529 13.7094 9.58411 13.3671 9.24175C13.0247 8.89939 12.8535 8.48029 12.8535 7.98446C12.8535 7.48862 13.0247 7.06953 13.3671 6.72716C13.7094 6.3848 14.1285 6.21362 14.6243 6.21362C15.1202 6.21362 15.5393 6.3848 15.8816 6.72716C16.224 7.06953 16.3952 7.48862 16.3952 7.98446C16.3952 8.48029 16.224 8.89939 15.8816 9.24175C15.5393 9.58411 15.1202 9.75529 14.6243 9.75529ZM17.8118 12.5886C17.316 12.5886 16.8969 12.4174 16.5546 12.0751C16.2122 11.7327 16.041 11.3136 16.041 10.8178C16.041 10.322 16.2122 9.90286 16.5546 9.5605C16.8969 9.21814 17.316 9.04696 17.8118 9.04696C18.3077 9.04696 18.7268 9.21814 19.0691 9.5605C19.4115 9.90286 19.5827 10.322 19.5827 10.8178C19.5827 11.3136 19.4115 11.7327 19.0691 12.0751C18.7268 12.4174 18.3077 12.5886 17.8118 12.5886ZM8.70977 19.672C8.17852 19.672 7.73286 19.4683 7.37279 19.061C7.01272 18.6537 6.83268 18.1727 6.83268 17.6178C6.83268 17.0039 7.04223 16.4667 7.46133 16.0063C7.88043 15.5459 8.29657 15.0914 8.70977 14.6428C9.05213 14.2768 9.34727 13.8784 9.59518 13.4475C9.8431 13.0166 10.1382 12.6122 10.4806 12.2345C10.7403 11.9275 11.0414 11.6737 11.3837 11.473C11.7261 11.2723 12.098 11.172 12.4993 11.172C12.9007 11.172 13.2726 11.2664 13.615 11.4553C13.9573 11.6442 14.2584 11.8921 14.5181 12.199C14.8487 12.5768 15.1408 12.9841 15.3947 13.4209C15.6485 13.8577 15.9466 14.265 16.2889 14.6428C16.7021 15.0914 17.1183 15.5459 17.5374 16.0063C17.9565 16.4667 18.166 17.0039 18.166 17.6178C18.166 18.1727 17.986 18.6537 17.6259 19.061C17.2658 19.4683 16.8202 19.672 16.2889 19.672C15.6514 19.672 15.0198 19.6188 14.3941 19.5126C13.7684 19.4063 13.1368 19.3532 12.4993 19.3532C11.8618 19.3532 11.2303 19.4063 10.6046 19.5126C9.97886 19.6188 9.34727 19.672 8.70977 19.672Z" fill="white"/>
<defs>
<linearGradient id="paint0_linear_238_2556" x1="0.520833" y1="12.2882" x2="24.1458" y2="12.5966" gradientUnits="userSpaceOnUse">
<stop stop-color="#FF5C3C"/>
<stop offset="1" stop-color="#FF2F63"/>
</linearGradient>
</defs>
</svg>
