<svg width="24" height="24" viewBox="0 0 24 24" fill="none" xmlns="http://www.w3.org/2000/svg">
<path d="M16.3339 15.0808L15.7417 15.7068C15.7417 15.7068 14.3343 17.195 10.4927 13.133C6.65105 9.07105 8.05845 7.58291 8.05845 7.58291L8.43133 7.18866C9.34992 6.21743 9.4365 4.65813 8.63507 3.51978L6.99574 1.19117C6.00383 -0.217767 4.08715 -0.403887 2.95024 0.798209L0.909689 2.95579C0.345962 3.55184 -0.0318049 4.32451 0.0140087 5.18166C0.131208 7.37452 1.06421 12.0925 6.27044 17.5974C11.7914 23.4349 16.9717 23.667 19.0901 23.457C19.7602 23.3906 20.3429 23.0277 20.8124 22.5312L22.6593 20.5784C23.9059 19.2604 23.5544 17.0007 21.9593 16.0787L19.4756 14.6428C18.4283 14.0374 17.1524 14.2152 16.3339 15.0808Z" fill="black"/>
</svg>
