<svg width="25" height="25" viewBox="0 0 25 25" fill="none" xmlns="http://www.w3.org/2000/svg">
<circle cx="12.5" cy="12.5" r="12.5" fill="url(#paint0_linear_210_2296)"/>
<path d="M11.7569 15.0145L15.759 11.0125L14.7496 10.0031L11.7569 12.9958L10.2694 11.5083L9.26003 12.5177L11.7569 15.0145ZM12.5007 19.5833C10.8597 19.1701 9.50499 18.2286 8.43659 16.7588C7.36819 15.289 6.83398 13.6569 6.83398 11.8625V7.54163L12.5007 5.41663L18.1673 7.54163V11.8625C18.1673 13.6569 17.6331 15.289 16.5647 16.7588C15.4963 18.2286 14.1416 19.1701 12.5007 19.5833ZM12.5007 18.0958C13.7284 17.7062 14.7437 16.927 15.5465 15.7583C16.3493 14.5895 16.7507 13.2909 16.7507 11.8625V8.51558L12.5007 6.92183L8.25065 8.51558V11.8625C8.25065 13.2909 8.65204 14.5895 9.45482 15.7583C10.2576 16.927 11.2729 17.7062 12.5007 18.0958Z" fill="white"/>
<defs>
<linearGradient id="paint0_linear_210_2296" x1="0.520833" y1="12.2882" x2="24.1458" y2="12.5966" gradientUnits="userSpaceOnUse">
<stop stop-color="#FF5C3C"/>
<stop offset="1" stop-color="#FF2F63"/>
</linearGradient>
</defs>
</svg>
