<svg width="21" height="23" viewBox="0 0 21 23" fill="none" xmlns="http://www.w3.org/2000/svg">
<path d="M16.4809 15.9482L20.8841 20.5856L19.4293 22.118L15.0272 17.4796C13.3892 18.8628 11.3519 19.6151 9.25256 19.612C4.14515 19.612 0 15.2453 0 9.86502C0 4.48469 4.14515 0.118042 9.25256 0.118042C14.36 0.118042 18.5051 4.48469 18.5051 9.86502C18.5081 12.0765 17.7939 14.2227 16.4809 15.9482ZM14.4186 15.1446C15.7233 13.7312 16.4519 11.8365 16.449 9.86502C16.449 5.67598 13.2281 2.28404 9.25256 2.28404C5.27602 2.28404 2.05612 5.67598 2.05612 9.86502C2.05612 14.053 5.27602 17.446 9.25256 17.446C11.1241 17.4491 12.9226 16.6815 14.2644 15.3071L14.4186 15.1446Z" fill="url(#paint0_linear_136_3991)"/>
<defs>
<linearGradient id="paint0_linear_136_3991" x1="10.442" y1="0.118042" x2="10.442" y2="22.118" gradientUnits="userSpaceOnUse">
<stop stop-color="#FF5A3D"/>
<stop offset="1" stop-color="#FF2F63"/>
</linearGradient>
</defs>
</svg>
