<svg width="30" height="30" viewBox="0 0 30 30" fill="none" xmlns="http://www.w3.org/2000/svg">
<rect x="0.5" y="0.5" width="29" height="29" rx="14.5" fill="white" stroke="#E8E6EA"/>
<g clip-path="url(#clip0_163_4677)">
<path d="M15 17C16.1046 17 17 16.1046 17 15C17 13.8954 16.1046 13 15 13C13.8954 13 13 13.8954 13 15C13 16.1046 13.8954 17 15 17Z" stroke="url(#paint0_linear_163_4677)" stroke-width="1.5625"/>
<path d="M16.1773 8.43487C15.9322 8.33337 15.6216 8.33337 15.0003 8.33337C14.3791 8.33337 14.0685 8.33337 13.8234 8.43487C13.4967 8.57019 13.2371 8.82976 13.1018 9.15646C13.04 9.3056 13.0159 9.47904 13.0064 9.73203C12.9925 10.1038 12.8018 10.448 12.4796 10.634C12.1574 10.82 11.7641 10.8131 11.4351 10.6392C11.2113 10.5209 11.049 10.4551 10.889 10.4341C10.5384 10.3879 10.1838 10.4829 9.90323 10.6982C9.69282 10.8596 9.5375 11.1286 9.22688 11.6667C8.91625 12.2047 8.76094 12.4737 8.72632 12.7366C8.68016 13.0872 8.77517 13.4418 8.99044 13.7224C9.0887 13.8504 9.22679 13.958 9.44112 14.0927C9.75619 14.2907 9.95892 14.628 9.9589 15C9.95888 15.3721 9.75616 15.7093 9.44111 15.9072C9.22676 16.042 9.08864 16.1496 8.99038 16.2777C8.7751 16.5582 8.6801 16.9128 8.72626 17.2634C8.76087 17.5263 8.91618 17.7954 9.22681 18.3334C9.53744 18.8714 9.69276 19.1404 9.90316 19.3018C10.1837 19.5171 10.5383 19.6121 10.8889 19.566C11.0489 19.5449 11.2112 19.4791 11.435 19.3608C11.764 19.187 12.1574 19.18 12.4796 19.366C12.8018 19.5521 12.9925 19.8962 13.0064 20.2681C13.0159 20.521 13.04 20.6945 13.1018 20.8436C13.2371 21.1703 13.4967 21.4299 13.8234 21.5652C14.0685 21.6667 14.3791 21.6667 15.0003 21.6667C15.6216 21.6667 15.9322 21.6667 16.1773 21.5652C16.5039 21.4299 16.7635 21.1703 16.8988 20.8436C16.9606 20.6945 16.9848 20.521 16.9943 20.268C17.0081 19.8962 17.1988 19.5521 17.521 19.366C17.8432 19.18 18.2366 19.187 18.5656 19.3608C18.7894 19.4791 18.9517 19.5448 19.1117 19.5659C19.4623 19.6121 19.8169 19.5171 20.0974 19.3018C20.3078 19.1404 20.4631 18.8714 20.7737 18.3333C21.0844 17.7953 21.2397 17.5263 21.2743 17.2634C21.3205 16.9128 21.2255 16.5582 21.0102 16.2776C20.9119 16.1496 20.7738 16.0419 20.5595 15.9072C20.2445 15.7093 20.0417 15.372 20.0417 15C20.0417 14.6279 20.2445 14.2908 20.5595 14.0928C20.7739 13.9581 20.912 13.8505 21.0103 13.7224C21.2255 13.4419 21.3205 13.0873 21.2744 12.7367C21.2398 12.4737 21.0845 12.2047 20.7738 11.6667C20.4632 11.1287 20.3079 10.8597 20.0975 10.6982C19.8169 10.4829 19.4623 10.3879 19.1117 10.4341C18.9517 10.4552 18.7895 10.5209 18.5656 10.6392C18.2367 10.8131 17.8433 10.8201 17.5211 10.634C17.1988 10.448 17.0081 10.1038 16.9943 9.732C16.9848 9.47903 16.9606 9.30559 16.8988 9.15646C16.7635 8.82976 16.5039 8.57019 16.1773 8.43487Z" stroke="url(#paint1_linear_163_4677)" stroke-width="1.5625"/>
</g>
<defs>
<linearGradient id="paint0_linear_163_4677" x1="15" y1="13" x2="15" y2="17" gradientUnits="userSpaceOnUse">
<stop stop-color="#FF5A3D"/>
<stop offset="1" stop-color="#FF2F63"/>
</linearGradient>
<linearGradient id="paint1_linear_163_4677" x1="15.0003" y1="8.33337" x2="15.0003" y2="21.6667" gradientUnits="userSpaceOnUse">
<stop stop-color="#FF5A3D"/>
<stop offset="1" stop-color="#FF2F63"/>
</linearGradient>
<clipPath id="clip0_163_4677">
<rect width="16" height="16" fill="white" transform="translate(7 7)"/>
</clipPath>
</defs>
</svg>
