<svg width="25" height="25" viewBox="0 0 25 25" fill="none" xmlns="http://www.w3.org/2000/svg">
<circle cx="12.5" cy="12.5" r="12.5" fill="url(#paint0_linear_238_2561)"/>
<path d="M3.75 14.3125V12.8125H6.75V14.3125H3.75ZM7.7625 10.375L5.625 8.25625L6.69375 7.20625L8.8125 9.325L7.7625 10.375ZM7.5 18.25C7.2375 18.25 7.01563 18.1594 6.83438 17.9781C6.65313 17.7969 6.5625 17.575 6.5625 17.3125C6.5625 17.05 6.65313 16.8281 6.83438 16.6469C7.01563 16.4656 7.2375 16.375 7.5 16.375C7.7625 16.375 7.98438 16.4656 8.16563 16.6469C8.34688 16.8281 8.4375 17.05 8.4375 17.3125C8.4375 17.575 8.34688 17.7969 8.16563 17.9781C7.98438 18.1594 7.7625 18.25 7.5 18.25ZM8.25 14.3125V13.5625C8.25 12.525 8.61563 11.6406 9.34688 10.9094C10.0781 10.1781 10.9625 9.8125 12 9.8125C13.0375 9.8125 13.9219 10.1781 14.6531 10.9094C15.3844 11.6406 15.75 12.525 15.75 13.5625V14.3125H14.25V13.5625C14.25 12.9375 14.0312 12.4063 13.5938 11.9688C13.1562 11.5312 12.625 11.3125 12 11.3125C11.375 11.3125 10.8438 11.5312 10.4063 11.9688C9.96875 12.4063 9.75 12.9375 9.75 13.5625V14.3125H8.25ZM9.75 21.25C9.4875 21.25 9.26562 21.1594 9.08438 20.9781C8.90313 20.7969 8.8125 20.575 8.8125 20.3125C8.8125 20.05 8.90313 19.8281 9.08438 19.6469C9.26562 19.4656 9.4875 19.375 9.75 19.375C10.0125 19.375 10.2344 19.4656 10.4156 19.6469C10.5969 19.8281 10.6875 20.05 10.6875 20.3125C10.6875 20.575 10.5969 20.7969 10.4156 20.9781C10.2344 21.1594 10.0125 21.25 9.75 21.25ZM12 18.25C11.7375 18.25 11.5156 18.1594 11.3344 17.9781C11.1531 17.7969 11.0625 17.575 11.0625 17.3125C11.0625 17.05 11.1531 16.8281 11.3344 16.6469C11.5156 16.4656 11.7375 16.375 12 16.375C12.2625 16.375 12.4844 16.4656 12.6656 16.6469C12.8469 16.8281 12.9375 17.05 12.9375 17.3125C12.9375 17.575 12.8469 17.7969 12.6656 17.9781C12.4844 18.1594 12.2625 18.25 12 18.25ZM11.25 8.3125V5.3125H12.75V8.3125H11.25ZM14.25 21.25C13.9875 21.25 13.7656 21.1594 13.5844 20.9781C13.4031 20.7969 13.3125 20.575 13.3125 20.3125C13.3125 20.05 13.4031 19.8281 13.5844 19.6469C13.7656 19.4656 13.9875 19.375 14.25 19.375C14.5125 19.375 14.7344 19.4656 14.9156 19.6469C15.0969 19.8281 15.1875 20.05 15.1875 20.3125C15.1875 20.575 15.0969 20.7969 14.9156 20.9781C14.7344 21.1594 14.5125 21.25 14.25 21.25ZM16.2375 10.375L15.1688 9.325L17.3063 7.20625L18.3563 8.25625L16.2375 10.375ZM16.5 18.25C16.2375 18.25 16.0156 18.1594 15.8344 17.9781C15.6531 17.7969 15.5625 17.575 15.5625 17.3125C15.5625 17.05 15.6531 16.8281 15.8344 16.6469C16.0156 16.4656 16.2375 16.375 16.5 16.375C16.7625 16.375 16.9844 16.4656 17.1656 16.6469C17.3469 16.8281 17.4375 17.05 17.4375 17.3125C17.4375 17.575 17.3469 17.7969 17.1656 17.9781C16.9844 18.1594 16.7625 18.25 16.5 18.25ZM17.25 14.3125V12.8125H20.25V14.3125H17.25Z" fill="white"/>
<defs>
<linearGradient id="paint0_linear_238_2561" x1="0.520833" y1="12.2882" x2="24.1458" y2="12.5966" gradientUnits="userSpaceOnUse">
<stop stop-color="#FF5C3C"/>
<stop offset="1" stop-color="#FF2F63"/>
</linearGradient>
</defs>
</svg>
