<svg width="25" height="25" viewBox="0 0 25 25" fill="none" xmlns="http://www.w3.org/2000/svg">
<circle cx="12.5" cy="12.5" r="12.5" fill="url(#paint0_linear_238_2560)"/>
<path d="M13 20.5C11.9625 20.5 10.9875 20.3031 10.075 19.9094C9.1625 19.5156 8.36875 18.9813 7.69375 18.3063C7.01875 17.6313 6.48438 16.8375 6.09063 15.925C5.69688 15.0125 5.5 14.0375 5.5 13C5.5 11.9625 5.69688 10.9875 6.09063 10.075C6.48438 9.1625 7.01875 8.36875 7.69375 7.69375C8.36875 7.01875 9.1625 6.48438 10.075 6.09063C10.9875 5.69688 11.9625 5.5 13 5.5C14.0375 5.5 15.0125 5.69688 15.925 6.09063C16.8375 6.48438 17.6313 7.01875 18.3063 7.69375C18.9813 8.36875 19.5156 9.1625 19.9094 10.075C20.3031 10.9875 20.5 11.9625 20.5 13V14.0875C20.5 14.825 20.2469 15.4531 19.7406 15.9719C19.2344 16.4906 18.6125 16.75 17.875 16.75C17.4375 16.75 17.025 16.6562 16.6375 16.4688C16.25 16.2812 15.925 16.0125 15.6625 15.6625C15.3 16.025 14.8906 16.2969 14.4344 16.4781C13.9781 16.6594 13.5 16.75 13 16.75C11.9625 16.75 11.0781 16.3844 10.3469 15.6531C9.61563 14.9219 9.25 14.0375 9.25 13C9.25 11.9625 9.61563 11.0781 10.3469 10.3469C11.0781 9.61563 11.9625 9.25 13 9.25C14.0375 9.25 14.9219 9.61563 15.6531 10.3469C16.3844 11.0781 16.75 11.9625 16.75 13V14.0875C16.75 14.4125 16.8563 14.6875 17.0688 14.9125C17.2812 15.1375 17.55 15.25 17.875 15.25C18.2 15.25 18.4688 15.1375 18.6813 14.9125C18.8938 14.6875 19 14.4125 19 14.0875V13C19 11.325 18.4188 9.90625 17.2563 8.74375C16.0938 7.58125 14.675 7 13 7C11.325 7 9.90625 7.58125 8.74375 8.74375C7.58125 9.90625 7 11.325 7 13C7 14.675 7.58125 16.0938 8.74375 17.2563C9.90625 18.4188 11.325 19 13 19H16.75V20.5H13ZM13 15.25C13.625 15.25 14.1562 15.0312 14.5938 14.5938C15.0312 14.1562 15.25 13.625 15.25 13C15.25 12.375 15.0312 11.8438 14.5938 11.4062C14.1562 10.9688 13.625 10.75 13 10.75C12.375 10.75 11.8438 10.9688 11.4062 11.4062C10.9688 11.8438 10.75 12.375 10.75 13C10.75 13.625 10.9688 14.1562 11.4062 14.5938C11.8438 15.0312 12.375 15.25 13 15.25Z" fill="white"/>
<defs>
<linearGradient id="paint0_linear_238_2560" x1="0.520833" y1="12.2882" x2="24.1458" y2="12.5966" gradientUnits="userSpaceOnUse">
<stop stop-color="#FF5C3C"/>
<stop offset="1" stop-color="#FF2F63"/>
</linearGradient>
</defs>
</svg>
