<svg width="158" height="33" viewBox="0 0 158 33" fill="none" xmlns="http://www.w3.org/2000/svg">
<path d="M29.8925 28.1989L28.71 27.0164C29.3287 26.0814 29.6862 24.9676 29.6862 23.7714C29.6862 20.5126 27.0463 17.8589 23.7738 17.8589C20.5013 17.8589 17.875 20.5126 17.875 23.7851C17.875 27.0576 20.515 29.6976 23.7875 29.6976C24.9837 29.6976 26.0975 29.3401 27.0325 28.7214L28.215 29.9039C28.4487 30.1376 28.7512 30.2614 29.0675 30.2614C29.3837 30.2614 29.6862 30.1376 29.92 29.9039C30.3737 29.4226 30.3737 28.6664 29.8925 28.1989Z" fill="url(#paint0_linear_163_4692)"/>
<path d="M30.25 12.0046C30.25 13.6408 29.9887 15.1533 29.535 16.5558C29.4525 16.8446 29.1087 16.9271 28.8612 16.7483C27.3625 15.6346 25.5337 15.0433 23.65 15.0433C18.8787 15.0433 14.9875 18.9346 14.9875 23.7058C14.9875 25.1908 15.3725 26.6483 16.1012 27.9408C16.3212 28.3258 16.06 28.8208 15.6475 28.6696C12.3337 27.5421 5.6375 23.4308 3.465 16.5558C3.01125 15.1533 2.75 13.6408 2.75 12.0046C2.75 7.75585 6.17375 4.31836 10.395 4.31836C12.8837 4.31836 15.1112 5.52835 16.5 7.3846C17.8887 5.52835 20.1162 4.31836 22.605 4.31836C26.8262 4.31835 30.25 7.75585 30.25 12.0046Z" fill="url(#paint1_linear_163_4692)"/>
<path d="M40.0422 18.48C40.3022 18.4 40.5822 18.36 40.8822 18.36C41.7222 18.36 42.4522 18.61 43.0722 19.11C45.1522 20.79 46.8822 21.63 48.2622 21.63C49.0822 21.63 49.7022 21.45 50.1222 21.09C50.3422 20.85 50.4522 20.59 50.4522 20.31C50.4522 20.01 50.3222 19.75 50.0622 19.53C48.8022 18.69 47.5522 17.86 46.3122 17.04C44.5922 15.78 43.7322 14.51 43.7322 13.23C43.7322 11.39 44.6222 9.56 46.4022 7.74C47.8222 6.28 49.3722 5.19 51.0522 4.47C51.8922 4.11 52.6322 3.93 53.2722 3.93C53.9322 3.93 54.4822 4.13 54.9222 4.53C55.9622 5.49 56.4822 6.53 56.4822 7.65C56.4822 8.39 56.1822 9.18 55.5822 10.02C54.9822 10.84 54.2822 11.96 53.4822 13.38C53.3822 13.56 53.2722 13.65 53.1522 13.65C52.8922 13.65 52.6622 13.42 52.4622 12.96C52.2822 12.56 52.1922 12.22 52.1922 11.94C52.1922 11.52 52.3022 11.06 52.5222 10.56C52.6222 10.32 53.0722 9.58 53.8722 8.34C54.5122 7.36 54.8322 6.67 54.8322 6.27C54.8322 5.91 54.6222 5.73 54.2022 5.73C53.0622 5.73 51.4922 6.55 49.4922 8.19C47.3122 9.97 46.1922 11.63 46.1322 13.17C46.0922 13.97 46.7722 14.85 48.1722 15.81C49.3122 16.51 50.4422 17.21 51.5622 17.91C52.0822 18.27 52.3422 18.74 52.3422 19.32C52.3422 20.02 51.9722 20.79 51.2322 21.63C50.3522 22.63 49.0622 23.13 47.3622 23.13C44.6422 23.13 42.1822 21.81 39.9822 19.17C39.6822 18.81 39.7022 18.58 40.0422 18.48ZM64.0364 16.05C63.8364 16.27 63.5664 16.4 63.2264 16.44C62.8864 17.8 62.2964 19.08 61.4564 20.28C60.5364 21.58 59.5464 22.41 58.4864 22.77C58.1464 22.89 57.8064 22.95 57.4664 22.95C56.3864 22.95 55.4664 22.45 54.7064 21.45C54.1864 20.75 53.9264 19.91 53.9264 18.93C53.9264 17.63 54.3464 16.22 55.1864 14.7C55.7864 13.62 56.4964 12.73 57.3164 12.03C58.2164 11.27 59.0964 10.86 59.9564 10.8C60.7764 10.74 61.4564 11.08 61.9964 11.82C62.3364 12.22 62.6764 12.62 63.0164 13.02C63.3564 13.52 63.4864 14.22 63.4064 15.12C63.4064 15.26 63.3864 15.49 63.3464 15.81C63.4064 15.81 63.4964 15.8 63.6164 15.78C63.7564 15.76 63.8664 15.75 63.9464 15.75C64.1664 15.75 64.1964 15.85 64.0364 16.05ZM61.4564 15.24C61.6964 14.3 61.7764 13.56 61.6964 13.02C61.6364 12.6 61.4964 12.39 61.2764 12.39C60.9364 12.39 60.7664 12.76 60.7664 13.5C60.7664 14.22 60.9964 14.8 61.4564 15.24ZM61.2464 16.05C61.0864 15.99 60.8964 15.87 60.6764 15.69C59.7764 14.99 59.3164 14.11 59.2964 13.05C58.3564 13.85 57.5864 14.79 56.9864 15.87C56.1064 17.45 55.6664 18.92 55.6664 20.28C55.6664 21.28 55.9964 21.78 56.6564 21.78C57.8364 21.78 59.0164 20.67 60.1964 18.45C60.6364 17.61 60.9864 16.81 61.2464 16.05ZM69.6173 20.07C68.1373 22.05 66.6973 22.99 65.2973 22.89C64.0373 22.81 63.4073 22.04 63.4073 20.58C63.4073 19.96 63.5273 19.28 63.7673 18.54C64.5473 16.22 65.9273 13.67 67.9073 10.89C68.1473 10.55 68.4073 10.54 68.6873 10.86C68.9473 11.26 69.0773 11.71 69.0773 12.21C69.0773 12.99 68.7573 13.89 68.1173 14.91C67.1973 16.37 66.4173 17.84 65.7773 19.32C65.4973 19.98 65.3573 20.55 65.3573 21.03C65.3573 21.59 65.5473 21.89 65.9273 21.93C66.9273 22.01 68.4073 20.47 70.3673 17.31C70.9873 16.31 71.7273 15.02 72.5873 13.44C73.2673 12.18 73.7673 11.33 74.0873 10.89C74.2673 10.65 74.4173 10.53 74.5373 10.53C74.7773 10.53 74.9673 10.76 75.1073 11.22C75.2073 11.58 75.2573 11.9 75.2573 12.18C75.2573 12.8 75.1073 13.43 74.8073 14.07C74.0873 15.27 73.1373 16.98 71.9573 19.2C71.6173 19.94 71.4473 20.57 71.4473 21.09C71.4473 21.81 71.7573 22.15 72.3773 22.11C73.5173 22.05 74.8373 20.67 76.3373 17.97C76.4173 17.83 76.5073 17.76 76.6073 17.76C76.7273 17.74 76.8173 17.8 76.8773 17.94C77.0973 18.42 77.0073 19.05 76.6073 19.83C76.1673 20.71 75.5173 21.47 74.6573 22.11C73.8173 22.73 72.9673 23.04 72.1073 23.04C70.4273 23.04 69.5873 22.25 69.5873 20.67C69.5873 20.47 69.5973 20.27 69.6173 20.07ZM78.8062 16.5C78.1062 18.22 77.7562 19.59 77.7562 20.61C77.7562 21.51 78.0462 21.99 78.6262 22.05C79.3262 22.11 80.1462 21.69 81.0862 20.79C81.9662 19.93 82.7162 18.9 83.3362 17.7C83.4362 17.5 83.5562 17.4 83.6962 17.4C83.8362 17.4 83.9362 17.5 83.9962 17.7C84.1362 18.2 84.0362 18.82 83.6962 19.56C83.3962 20.2 82.8062 20.88 81.9262 21.6C80.8262 22.48 79.7462 22.91 78.6862 22.89C76.8862 22.85 75.9862 21.85 75.9862 19.89C75.9862 19.37 76.0562 18.79 76.1962 18.15C76.7162 15.69 77.7362 13.13 79.2562 10.47C80.6162 8.11 82.1262 6.06 83.7862 4.32C84.0462 4.06 84.2862 3.93 84.5062 3.93C84.7062 3.93 84.8962 4.01 85.0762 4.17C85.6562 4.69 85.9462 5.37 85.9462 6.21C85.9462 6.59 85.8862 7.01 85.7662 7.47C85.3262 9.19 84.3862 10.94 82.9462 12.72C81.6662 14.28 80.2862 15.54 78.8062 16.5ZM79.3462 15.21C80.9862 13.89 82.3562 12.27 83.4562 10.35C84.3562 8.81 84.8062 7.7 84.8062 7.02C84.8062 6.92 84.7862 6.86 84.7462 6.84C84.5462 6.72 83.9762 7.36 83.0362 8.76C82.1162 10.14 81.1262 11.81 80.0662 13.77C79.7462 14.35 79.5062 14.83 79.3462 15.21ZM94.4203 16.32C94.5003 16.16 94.6003 16.08 94.7203 16.08C95.0603 16.08 95.2303 16.5 95.2303 17.34C95.2303 18.12 94.9303 18.94 94.3303 19.8C93.8303 20.5 93.2603 21.08 92.6203 21.54C91.4803 22.36 90.2303 22.77 88.8703 22.77C87.9303 22.77 87.0903 22.58 86.3503 22.2C85.6303 21.8 85.0403 21.17 84.5803 20.31C84.0603 19.37 83.7903 18.31 83.7703 17.13C83.7103 14.23 84.7003 11.42 86.7403 8.7C88.5003 6.36 90.3703 4.81 92.3503 4.05C93.2303 3.71 94.0003 3.54 94.6603 3.54C95.3603 3.54 95.9403 3.74 96.4003 4.14C97.2203 4.86 97.7503 5.59 97.9903 6.33C98.0903 6.65 98.1403 6.97 98.1403 7.29C98.1403 7.83 98.0003 8.39 97.7203 8.97C97.4803 9.45 97.0803 10.44 96.5203 11.94C96.4003 12.26 96.1803 12.32 95.8603 12.12C95.2603 11.72 94.9603 11.12 94.9603 10.32C94.9603 9.8 95.1703 9.03 95.5903 8.01C96.0103 6.97 96.2203 6.25 96.2203 5.85C96.2203 5.31 95.9703 5.04 95.4703 5.04C94.5903 5.04 93.4303 5.59 91.9903 6.69C90.3503 7.93 88.9903 9.44 87.9103 11.22C86.5903 13.42 85.9303 15.61 85.9303 17.79C85.9303 19.49 86.3003 20.64 87.0403 21.24C87.4603 21.6 87.9503 21.78 88.5103 21.78C89.4503 21.78 90.4503 21.3 91.5103 20.34C92.5903 19.36 93.5603 18.02 94.4203 16.32ZM106.898 16.05C106.698 16.27 106.428 16.4 106.088 16.44C105.748 17.8 105.158 19.08 104.318 20.28C103.398 21.58 102.408 22.41 101.348 22.77C101.008 22.89 100.668 22.95 100.328 22.95C99.2477 22.95 98.3277 22.45 97.5677 21.45C97.0477 20.75 96.7877 19.91 96.7877 18.93C96.7877 17.63 97.2077 16.22 98.0477 14.7C98.6477 13.62 99.3577 12.73 100.178 12.03C101.078 11.27 101.958 10.86 102.818 10.8C103.638 10.74 104.318 11.08 104.858 11.82C105.198 12.22 105.538 12.62 105.878 13.02C106.218 13.52 106.348 14.22 106.268 15.12C106.268 15.26 106.248 15.49 106.208 15.81C106.268 15.81 106.358 15.8 106.478 15.78C106.618 15.76 106.728 15.75 106.808 15.75C107.028 15.75 107.058 15.85 106.898 16.05ZM104.318 15.24C104.558 14.3 104.638 13.56 104.558 13.02C104.498 12.6 104.358 12.39 104.138 12.39C103.798 12.39 103.628 12.76 103.628 13.5C103.628 14.22 103.858 14.8 104.318 15.24ZM104.108 16.05C103.948 15.99 103.758 15.87 103.538 15.69C102.638 14.99 102.178 14.11 102.158 13.05C101.218 13.85 100.448 14.79 99.8477 15.87C98.9677 17.45 98.5277 18.92 98.5277 20.28C98.5277 21.28 98.8577 21.78 99.5177 21.78C100.698 21.78 101.878 20.67 103.058 18.45C103.498 17.61 103.848 16.81 104.108 16.05ZM111.399 13.68C112.159 12.86 112.939 12.17 113.739 11.61C114.639 10.97 115.319 10.68 115.779 10.74C116.159 10.8 116.489 11.03 116.769 11.43C117.069 11.81 117.219 12.26 117.219 12.78C117.219 13.16 117.129 13.54 116.949 13.92C116.249 15.1 115.319 16.8 114.159 19.02C113.839 19.74 113.679 20.37 113.679 20.91C113.679 21.75 113.999 22.15 114.639 22.11C115.719 22.05 116.999 20.67 118.479 17.97C118.639 17.67 118.809 17.66 118.989 17.94C119.229 18.32 119.139 18.95 118.719 19.83C118.299 20.69 117.679 21.43 116.859 22.05C115.979 22.71 115.119 23.04 114.279 23.04C112.499 23.04 111.609 22.22 111.609 20.58C111.609 19.98 111.739 19.31 111.999 18.57C112.319 17.59 112.959 16.3 113.919 14.7C114.739 13.32 115.149 12.54 115.149 12.36C115.149 12.28 115.129 12.23 115.089 12.21C114.889 12.13 114.429 12.32 113.709 12.78C112.849 13.34 111.989 14.09 111.129 15.03C109.929 16.33 108.469 18.87 106.749 22.65C106.609 22.97 106.419 23.01 106.179 22.77C105.799 22.39 105.609 21.87 105.609 21.21C105.609 20.77 105.699 20.26 105.879 19.68C106.179 18.76 106.819 17.4 107.799 15.6C108.739 13.86 109.699 12.27 110.679 10.83C110.899 10.51 111.109 10.51 111.309 10.83C111.529 11.21 111.639 11.66 111.639 12.18C111.639 12.64 111.559 13.14 111.399 13.68ZM122.912 13.68C123.672 12.86 124.452 12.17 125.252 11.61C126.152 10.97 126.832 10.68 127.292 10.74C127.672 10.8 128.002 11.03 128.282 11.43C128.582 11.81 128.732 12.26 128.732 12.78C128.732 13.16 128.642 13.54 128.462 13.92C127.762 15.1 126.832 16.8 125.672 19.02C125.352 19.74 125.192 20.37 125.192 20.91C125.192 21.75 125.512 22.15 126.152 22.11C127.232 22.05 128.512 20.67 129.992 17.97C130.152 17.67 130.322 17.66 130.502 17.94C130.742 18.32 130.652 18.95 130.232 19.83C129.812 20.69 129.192 21.43 128.372 22.05C127.492 22.71 126.632 23.04 125.792 23.04C124.012 23.04 123.122 22.22 123.122 20.58C123.122 19.98 123.252 19.31 123.512 18.57C123.832 17.59 124.472 16.3 125.432 14.7C126.252 13.32 126.662 12.54 126.662 12.36C126.662 12.28 126.642 12.23 126.602 12.21C126.402 12.13 125.942 12.32 125.222 12.78C124.362 13.34 123.502 14.09 122.642 15.03C121.442 16.33 119.982 18.87 118.262 22.65C118.122 22.97 117.932 23.01 117.692 22.77C117.312 22.39 117.122 21.87 117.122 21.21C117.122 20.77 117.212 20.26 117.392 19.68C117.692 18.76 118.332 17.4 119.312 15.6C120.252 13.86 121.212 12.27 122.192 10.83C122.412 10.51 122.622 10.51 122.822 10.83C123.042 11.21 123.152 11.66 123.152 12.18C123.152 12.64 123.072 13.14 122.912 13.68ZM132.386 17.37C132.106 18.19 131.966 18.95 131.966 19.65C131.966 21.23 132.556 22.05 133.736 22.11C135.796 22.21 137.786 20.79 139.706 17.85C139.906 17.55 140.076 17.56 140.216 17.88C140.416 18.32 140.246 18.94 139.706 19.74C139.066 20.68 138.206 21.45 137.126 22.05C136.066 22.65 134.966 22.96 133.826 22.98C132.546 23 131.546 22.63 130.826 21.87C130.106 21.09 129.746 20.09 129.746 18.87C129.746 17.75 130.046 16.6 130.646 15.42C131.406 13.92 132.326 12.72 133.406 11.82C134.406 11.02 135.336 10.62 136.196 10.62C136.576 10.62 136.896 10.7 137.156 10.86C137.876 11.28 138.466 11.8 138.926 12.42C139.106 12.66 139.196 13 139.196 13.44C139.196 14.48 138.786 15.5 137.966 16.5C136.966 17.72 135.896 18.33 134.756 18.33C133.956 18.33 133.166 18.01 132.386 17.37ZM132.656 16.71C132.996 16.93 133.336 17.04 133.676 17.04C134.456 17.04 135.306 16.43 136.226 15.21C137.106 14.05 137.546 13.12 137.546 12.42C137.546 12.12 137.416 11.97 137.156 11.97C136.656 11.97 135.986 12.36 135.146 13.14C134.226 14 133.476 15.02 132.896 16.2C132.836 16.32 132.756 16.49 132.656 16.71ZM146.645 10.92C147.425 11.38 147.975 11.93 148.295 12.57C148.415 12.81 148.475 13.07 148.475 13.35C148.475 13.79 148.305 14.38 147.965 15.12C147.425 16.34 147.145 16.98 147.125 17.04C147.005 17.36 146.795 17.44 146.495 17.28C145.895 16.98 145.595 16.44 145.595 15.66C145.595 15.36 145.655 15.03 145.775 14.67C145.855 14.43 146.045 13.98 146.345 13.32C146.585 12.8 146.705 12.44 146.705 12.24C146.705 12.02 146.605 11.91 146.405 11.91C146.005 11.91 145.405 12.32 144.605 13.14C143.765 14.02 143.055 15.04 142.475 16.2C141.835 17.5 141.515 18.68 141.515 19.74C141.515 21.3 142.085 22.09 143.225 22.11C145.305 22.13 147.275 20.71 149.135 17.85C149.215 17.73 149.305 17.67 149.405 17.67C149.525 17.67 149.615 17.74 149.675 17.88C149.835 18.28 149.655 18.88 149.135 19.68C148.555 20.58 147.725 21.35 146.645 21.99C145.565 22.61 144.465 22.93 143.345 22.95C142.065 22.97 141.065 22.6 140.345 21.84C139.645 21.08 139.295 20.09 139.295 18.87C139.295 17.77 139.595 16.62 140.195 15.42C140.935 13.94 141.845 12.76 142.925 11.88C143.905 11.08 144.825 10.68 145.685 10.68C146.045 10.68 146.365 10.76 146.645 10.92ZM152.302 10.83C151.382 10.83 150.732 10.57 150.352 10.05C150.252 9.91 150.202 9.79 150.202 9.69C150.202 9.51 150.362 9.43 150.682 9.45C151.342 9.49 152.172 9.45 153.172 9.33C154.192 7.53 154.952 6.29 155.452 5.61C155.592 5.43 155.732 5.34 155.872 5.34C155.992 5.34 156.092 5.43 156.172 5.61C156.312 5.97 156.382 6.34 156.382 6.72C156.382 7.36 156.182 8.12 155.782 9C156.182 8.98 156.602 9.09 157.042 9.33C157.502 9.55 157.732 9.84 157.732 10.2C157.732 10.38 157.582 10.47 157.282 10.47C156.702 10.39 155.922 10.43 154.942 10.59C154.022 12.17 153.352 13.35 152.932 14.13C152.092 15.63 151.422 16.93 150.922 18.03C150.542 18.89 150.352 19.68 150.352 20.4C150.352 21.52 150.742 22.1 151.522 22.14C152.162 22.16 152.882 21.73 153.682 20.85C154.422 20.05 155.092 19.04 155.692 17.82C155.792 17.62 155.912 17.52 156.052 17.52C156.172 17.52 156.262 17.62 156.322 17.82C156.442 18.22 156.342 18.78 156.022 19.5C155.722 20.2 155.182 20.9 154.402 21.6C153.342 22.54 152.292 22.99 151.252 22.95C150.492 22.93 149.852 22.63 149.332 22.05C148.812 21.45 148.552 20.67 148.552 19.71C148.552 18.93 148.742 18.1 149.122 17.22C149.782 15.64 150.842 13.51 152.302 10.83Z" fill="url(#paint2_linear_163_4692)"/>
<defs>
<linearGradient id="paint0_linear_163_4692" x1="24.066" y1="17.8589" x2="24.066" y2="30.2614" gradientUnits="userSpaceOnUse">
<stop stop-color="#FF583F"/>
<stop offset="0.0001" stop-color="#FF5C3C"/>
<stop offset="1" stop-color="#FF3061"/>
</linearGradient>
<linearGradient id="paint1_linear_163_4692" x1="16.5" y1="4.31836" x2="16.5" y2="28.6975" gradientUnits="userSpaceOnUse">
<stop stop-color="#FF5A3D"/>
<stop offset="1" stop-color="#FF2F63"/>
</linearGradient>
<linearGradient id="paint2_linear_163_4692" x1="98" y1="6.5" x2="98" y2="26.5" gradientUnits="userSpaceOnUse">
<stop stop-color="#FF5A3D"/>
<stop offset="1" stop-color="#FF2F63"/>
</linearGradient>
</defs>
</svg>
