<svg width="14" height="14" viewBox="0 0 14 14" fill="none" xmlns="http://www.w3.org/2000/svg">
<path fill-rule="evenodd" clip-rule="evenodd" d="M5.38096 1.15317C5.21959 1.29159 5.1389 1.36081 5.05267 1.41899C4.85502 1.55236 4.63286 1.64514 4.39906 1.69197C4.29707 1.7124 4.19112 1.72113 3.97924 1.73861C3.44687 1.78252 3.18067 1.80447 2.9588 1.88356C2.4456 2.06649 2.0428 2.47195 1.863 2.98655C1.78527 3.20904 1.76489 3.47553 1.72414 4.00851C1.70792 4.22064 1.69981 4.32671 1.67999 4.42889C1.63457 4.66311 1.54315 4.88597 1.41103 5.08453C1.3534 5.17116 1.28471 5.2523 1.14733 5.41459C0.802167 5.82237 0.629579 6.02623 0.528686 6.2392C0.29531 6.7318 0.29718 7.30365 0.533773 7.79503C0.636063 8.00748 0.809974 8.21044 1.1578 8.61642C1.29622 8.77797 1.36546 8.85878 1.42366 8.94507C1.55707 9.14295 1.64994 9.36533 1.6969 9.59934C1.71738 9.70142 1.72618 9.80746 1.74379 10.0195C1.78803 10.5522 1.81015 10.8186 1.88934 11.0407C2.07249 11.5544 2.47794 11.9577 2.99232 12.138C3.21471 12.2159 3.48104 12.2365 4.01369 12.2776C4.22569 12.294 4.33169 12.3022 4.43382 12.3221C4.66791 12.3677 4.89068 12.4594 5.0892 12.5917C5.17581 12.6494 5.25694 12.7182 5.41922 12.8558C5.82695 13.2015 6.03079 13.3743 6.24369 13.4754C6.73612 13.7093 7.30758 13.7078 7.79847 13.4714C8.01071 13.3691 8.21341 13.1953 8.61888 12.8474C8.78024 12.709 8.86095 12.6398 8.94714 12.5817C9.14479 12.4483 9.36696 12.3555 9.60078 12.3087C9.70278 12.2883 9.80874 12.2795 10.0206 12.262C10.553 12.2181 10.8192 12.1961 11.041 12.1171C11.5542 11.9342 11.9571 11.5287 12.1369 11.0141C12.2145 10.7916 12.2349 10.5251 12.2757 9.99211C12.2919 9.78002 12.3001 9.67394 12.3199 9.57175C12.3653 9.3375 12.4567 9.11464 12.5888 8.91608C12.6464 8.82948 12.7151 8.74832 12.8525 8.58604C13.1977 8.17827 13.3703 7.97441 13.4712 7.76143C13.7045 7.26883 13.7027 6.69698 13.4661 6.2056C13.3638 5.99315 13.1899 5.7902 12.842 5.38422C12.7036 5.22264 12.6344 5.14186 12.5762 5.05554C12.4428 4.85766 12.3499 4.63529 12.303 4.4013C12.2825 4.29922 12.2736 4.1932 12.2561 3.98116C12.2118 3.4484 12.1897 3.18202 12.1105 2.95994C11.9274 2.44627 11.5219 2.04292 11.0075 1.86266C10.7851 1.78472 10.5188 1.76415 9.98613 1.72301C9.77417 1.70663 9.66816 1.69845 9.56602 1.67855C9.33191 1.63294 9.10913 1.54131 8.91061 1.40897C8.82404 1.35123 8.74288 1.28244 8.58062 1.14486C8.17289 0.799191 7.96905 0.626355 7.75615 0.525245C7.26372 0.291379 6.69226 0.292863 6.20137 0.529283C5.98913 0.631491 5.78643 0.805389 5.38096 1.15317ZM9.90143 5.57188C10.1119 5.35999 10.1108 5.01735 9.89893 4.80655C9.68706 4.59576 9.34459 4.59665 9.1341 4.80854L5.92172 8.04203L4.8585 6.98434C4.64661 6.77357 4.30419 6.77446 4.09368 6.98632C3.88318 7.19819 3.8843 7.54083 4.09619 7.75167L5.54305 9.19105C5.75493 9.40182 6.09734 9.40093 6.30789 9.18906L9.90143 5.57188Z" fill="#1D9BF0"/>
</svg>
