<svg width="24" height="24" viewBox="0 0 24 24" fill="none" xmlns="http://www.w3.org/2000/svg">
<rect x="6.96973" y="7.00012" width="10.4884" height="10.4884" transform="rotate(-0.166955 6.96973 7.00012)" fill="white"/>
<path fill-rule="evenodd" clip-rule="evenodd" d="M9.85626 3.65698C9.61945 3.85999 9.50104 3.9615 9.3745 4.04684C9.08445 4.24247 8.75847 4.37861 8.41544 4.44737C8.26579 4.47738 8.11036 4.49023 7.79949 4.51595C7.01842 4.58058 6.62788 4.61288 6.30232 4.72895C5.54932 4.99738 4.95815 5.59201 4.6941 6.34657C4.57994 6.6728 4.54991 7.06352 4.48983 7.84495C4.46593 8.15596 4.45398 8.31147 4.42485 8.46129C4.35809 8.80471 4.22385 9.13149 4.02992 9.42267C3.94531 9.5497 3.8445 9.66869 3.64286 9.9067C3.13626 10.5047 2.88295 10.8037 2.73482 11.116C2.39217 11.8383 2.39461 12.6767 2.74146 13.397C2.89142 13.7084 3.14646 14.0059 3.65654 14.6009C3.85953 14.8377 3.96107 14.9562 4.04641 15.0827C4.24204 15.3727 4.37817 15.6987 4.44694 16.0418C4.47694 16.1914 4.4898 16.3469 4.51551 16.6577C4.58014 17.4388 4.61245 17.8293 4.72851 18.1549C4.99695 18.9079 5.59158 19.4991 6.34613 19.7631C6.67236 19.8772 7.06308 19.9073 7.84452 19.9674C8.15553 19.9912 8.31104 20.0033 8.46085 20.0324C8.80428 20.0991 9.13105 20.2334 9.42223 20.4273C9.54926 20.5119 9.66826 20.6127 9.90626 20.8143C10.5043 21.321 10.8032 21.5743 11.1155 21.7224C11.8378 22.065 12.6762 22.0626 13.3966 21.7158C13.708 21.5658 14.0055 21.3108 14.6005 20.8006C14.8373 20.5977 14.9557 20.4961 15.0822 20.4108C15.3723 20.2152 15.6983 20.079 16.0413 20.0103C16.191 19.9803 16.3464 19.9674 16.6573 19.9417C17.4383 19.877 17.8289 19.8447 18.1545 19.7287C18.9075 19.4603 19.4987 18.8656 19.7627 18.1111C19.8768 17.7848 19.9068 17.3941 19.967 16.6127C19.9908 16.3017 20.0028 16.1462 20.0319 15.9964C20.0987 15.6529 20.233 15.3261 20.4269 15.0349C20.5114 14.908 20.6123 14.7889 20.8139 14.5509C21.3205 13.9529 21.5738 13.654 21.722 13.3417C22.0646 12.6194 22.0621 11.781 21.7153 11.0607C21.5654 10.7492 21.3103 10.4517 20.8002 9.8567C20.5972 9.61988 20.4957 9.50147 20.4104 9.37494C20.2148 9.08489 20.0786 8.7589 20.0098 8.41588C19.9799 8.26623 19.9669 8.11079 19.9413 7.79993C19.8766 7.01886 19.8443 6.62832 19.7283 6.30276C19.4598 5.54976 18.8652 4.95858 18.1106 4.69454C17.7844 4.58037 17.3937 4.55035 16.6122 4.49027C16.3013 4.46636 16.1457 4.45442 15.9959 4.42529C15.6525 4.35852 15.3257 4.22429 15.0345 4.03035C14.9075 3.94575 14.7885 3.84493 14.5505 3.6433C13.9525 3.13669 13.6535 2.88339 13.3412 2.73525C12.6189 2.39261 11.7805 2.39505 11.0602 2.7419C10.7488 2.89185 10.4513 3.1469 9.85626 3.65698ZM16.486 10.1332C16.7949 9.82245 16.7934 9.3201 16.4827 9.01115C16.172 8.7022 15.6695 8.70367 15.3606 9.01442L10.646 13.7566L9.0867 12.2064C8.77595 11.8975 8.27359 11.8989 7.96464 12.2097C7.6557 12.5204 7.65716 13.0227 7.96791 13.3317L10.0899 15.4414C10.4006 15.7503 10.9029 15.7488 11.212 15.4381L16.486 10.1332Z" fill="#1D9BF0"/>
</svg>
