<svg width="25" height="25" viewBox="0 0 25 25" fill="none" xmlns="http://www.w3.org/2000/svg">
<circle cx="12.5" cy="12.5" r="12.5" fill="url(#paint0_linear_238_2558)"/>
<path d="M18.6283 10.6402L17.6366 9.64856L18.1678 9.0996L15.9012 6.83294L15.3522 7.36419L14.3428 6.35481L14.8741 5.80585C15.1456 5.53432 15.4821 5.40151 15.8835 5.40741C16.2849 5.41332 16.6213 5.55203 16.8928 5.82356L19.1772 8.10794C19.4487 8.37946 19.5845 8.71297 19.5845 9.10846C19.5845 9.50394 19.4487 9.83745 19.1772 10.109L18.6283 10.6402ZM10.1283 19.1579C9.85673 19.4295 9.52322 19.5652 9.12773 19.5652C8.73225 19.5652 8.39874 19.4295 8.12721 19.1579L5.84284 16.8736C5.57131 16.602 5.43555 16.2685 5.43555 15.873C5.43555 15.4776 5.57131 15.144 5.84284 14.8725L6.37409 14.3413L7.38346 15.3506L6.83451 15.8819L9.11888 18.1663L9.65013 17.6173L10.6595 18.6267L10.1283 19.1579ZM17.1585 13.2079L18.1678 12.1986L12.8022 6.83294L11.7928 7.84231L17.1585 13.2079ZM12.2001 18.1663L13.2095 17.1392L7.86159 11.7913L6.83451 12.8006L12.2001 18.1663ZM12.0939 14.0225L14.0418 12.0923L12.9085 10.959L10.9783 12.9069L12.0939 14.0225ZM13.2095 19.1579C12.938 19.4295 12.6015 19.5652 12.2001 19.5652C11.7987 19.5652 11.4623 19.4295 11.1908 19.1579L5.84284 13.81C5.57131 13.5385 5.43555 13.202 5.43555 12.8006C5.43555 12.3993 5.57131 12.0628 5.84284 11.7913L6.85221 10.7819C7.12374 10.5104 7.45725 10.3746 7.85273 10.3746C8.24822 10.3746 8.58173 10.5104 8.85326 10.7819L9.96888 11.8975L11.9168 9.9496L10.8012 8.85169C10.5296 8.58016 10.3939 8.2437 10.3939 7.84231C10.3939 7.44092 10.5296 7.10446 10.8012 6.83294L11.8105 5.82356C12.0821 5.55203 12.4156 5.41627 12.8111 5.41627C13.2066 5.41627 13.5401 5.55203 13.8116 5.82356L19.1772 11.1892C19.4487 11.4607 19.5845 11.7942 19.5845 12.1897C19.5845 12.5852 19.4487 12.9187 19.1772 13.1902L18.1678 14.1996C17.8963 14.4711 17.5599 14.6069 17.1585 14.6069C16.7571 14.6069 16.4206 14.4711 16.1491 14.1996L15.0512 13.084L13.1033 15.0319L14.2189 16.1475C14.4904 16.419 14.6262 16.7526 14.6262 17.148C14.6262 17.5435 14.4904 17.877 14.2189 18.1486L13.2095 19.1579Z" fill="white"/>
<defs>
<linearGradient id="paint0_linear_238_2558" x1="0.520833" y1="12.2882" x2="24.1458" y2="12.5966" gradientUnits="userSpaceOnUse">
<stop stop-color="#FF5C3C"/>
<stop offset="1" stop-color="#FF2F63"/>
</linearGradient>
</defs>
</svg>
